<svg id="Layer_1" data-name="Layer 1" xmlns="http://www.w3.org/2000/svg" viewBox="0 0 1366 768"><defs><style>.cls-1{fill:#606060;}</style></defs><title>5</title><path class="cls-1" d="M614.6,386.73a14.09,14.09,0,0,1,.63-4.57,16.62,16.62,0,0,1,2.2-4.12,27,27,0,0,1,7-6.22,66.3,66.3,0,0,1,17.18-7.07c12-3.2,24.39-4.28,36.72-4.44,12.33.15,24.73,1.24,36.72,4.43a66.4,66.4,0,0,1,17.18,7.07,27,27,0,0,1,7,6.22,16.65,16.65,0,0,1,2.2,4.12,14.09,14.09,0,0,1,.62,4.57,13.83,13.83,0,0,0-3.43-8.22,26,26,0,0,0-7.09-5.48,65.32,65.32,0,0,0-17-6.13,178.84,178.84,0,0,0-72.36,0,65.41,65.41,0,0,0-17,6.13,26,26,0,0,0-7.09,5.48A13.83,13.83,0,0,0,614.6,386.73Z"/><path class="cls-1" d="M613.15,365c-2.86,3.5-5.52,7.26-6.85,11.36a17.22,17.22,0,0,0-.87,6.12,14,14,0,0,0,1.83,5.59,24.54,24.54,0,0,0,9,8.19,65.9,65.9,0,0,0,11.79,5.23,142.92,142.92,0,0,0,25.71,5.81,205.58,205.58,0,0,0,26.48,2.13,195.24,195.24,0,0,0,26.52-.94,121.31,121.31,0,0,0,25.72-5.07,54.38,54.38,0,0,0,11.62-5.28,23.27,23.27,0,0,0,8.51-8.62,18.4,18.4,0,0,0,1.46-12.12,43.51,43.51,0,0,0-4.89-12.4,38.23,38.23,0,0,1,7.21,11.77,21.22,21.22,0,0,1,.13,14.46,27.89,27.89,0,0,1-9.14,11.57,55.28,55.28,0,0,1-12.53,7c-17.63,7.06-36.41,8.54-54.82,8.34-18.42-.66-37-3.13-54.4-10.32a63.89,63.89,0,0,1-12.49-6.8,28.89,28.89,0,0,1-9.71-11,17.77,17.77,0,0,1-1.39-7.48,18.4,18.4,0,0,1,2-7.06C606.26,371.15,609.66,367.89,613.15,365Z"/><path class="cls-1" d="M679.95,314.35c-3,6.05-4.66,12.34-3.66,18.38s3.72,11.79,6.52,17.81a87.72,87.72,0,0,1,3.75,9.55,29.17,29.17,0,0,1,1.3,10.69,21.34,21.34,0,0,1-3.53,10.14,28.53,28.53,0,0,1-7.23,7.26c3.81-5.55,6.65-11.52,6.24-17.51s-3-11.74-5.8-17.73-5.63-12.56-5.74-19.87a24,24,0,0,1,2.12-10.43A27.15,27.15,0,0,1,679.95,314.35Z"/><path class="cls-1" d="M608.81,422.92a66.23,66.23,0,0,0,18.16,8.9,134.36,134.36,0,0,0,19.6,4.81,196.39,196.39,0,0,0,20,2.36,186.62,186.62,0,0,0,20.16.4,172.72,172.72,0,0,0,20.06-1.64,131.19,131.19,0,0,0,19.62-4.14,75,75,0,0,0,18.26-8,41.67,41.67,0,0,0,14.17-14.06c-2.33,6.49-7,12.06-12.54,16.39a68.46,68.46,0,0,1-18.45,9.93c-13.16,4.84-27.1,6.78-41,7.28A162.42,162.42,0,0,1,645.65,441a109,109,0,0,1-19.72-6.58C619.66,431.55,613.55,427.93,608.81,422.92Z"/><path class="cls-1" d="M598,437.16c6,5.16,13.22,8.22,20.63,10.44a162.43,162.43,0,0,0,22.64,5.15,248.9,248.9,0,0,0,46.34,2.8,192.64,192.64,0,0,0,23.08-2,141.46,141.46,0,0,0,22.52-5,73.48,73.48,0,0,0,20.61-9.86A38.81,38.81,0,0,0,768,421c-1.59,7.77-6.5,14.68-12.52,20a69.28,69.28,0,0,1-20.87,11.89c-15.06,5.63-31,7.84-46.91,8.46a199.88,199.88,0,0,1-47.35-4.16,132.55,132.55,0,0,1-22.79-6.92C610.38,447.1,603,443.3,598,437.16Z"/><path class="cls-1" d="M673.85,311.22c-13.87-31.16,18.54-33.58,40.41-58.51,10.73,34.7,2.5,60.22-28.35,74.79-6.24-11.18.47-27.22,10.86-44.63C685.4,292.14,676.66,301.53,673.85,311.22Z"/><circle class="cls-1" cx="420.84" cy="384" r="7.52"/><circle class="cls-1" cx="945.16" cy="384" r="7.52"/><path class="cls-1" d="M683,696.25c-172.17,0-312.25-140.07-312.25-312.25S510.83,71.75,683,71.75,995.25,211.83,995.25,384,855.17,696.25,683,696.25Zm0-621C512.74,75.22,374.22,213.74,374.22,384S512.74,692.78,683,692.78,991.78,554.26,991.78,384,853.26,75.22,683,75.22Z"/><path class="cls-1" d="M683,597.32c-117.63,0-213.32-95.7-213.32-213.32S565.37,170.68,683,170.68,896.32,266.37,896.32,384,800.63,597.32,683,597.32Zm0-423.17c-115.71,0-209.85,94.14-209.85,209.85S567.29,593.85,683,593.85,892.85,499.71,892.85,384,798.71,174.15,683,174.15Z"/><path class="cls-1" d="M423.24,343.34c-10.78-2.63-16.58-12-14-22.69a21.26,21.26,0,0,1,5.17-9.73,1.21,1.21,0,0,0,.21-.28l-.59-2.31a1.37,1.37,0,0,1-.13-.85.66.66,0,0,1,.85-.52l8.65,2.11a.72.72,0,0,1,.49.94l-.1.41a.91.91,0,0,1-.71.74A16.85,16.85,0,0,0,419,312c-3.86,1.37-5.94,3.81-7,8.22-2.06,8.46,2.25,14.29,12.49,16.78s16.91-.75,19-9.21a10.91,10.91,0,0,0-2-9.89,12.94,12.94,0,0,0-5-3.76.76.76,0,0,1-.39-1l.06-.23a.72.72,0,0,1,.87-.61l10.1,2.46a.72.72,0,0,1,.49.94l0,.18a1.28,1.28,0,0,1-.55.69L445.19,318c-.24.18-.3.26-.21.48a18.25,18.25,0,0,1,.63,11.24C443,340.39,433.89,345.93,423.24,343.34Z"/><path class="cls-1" d="M428.38,344.49a22.23,22.23,0,0,1-5.26-.66h0c-11.14-2.72-17.05-12.31-14.37-23.32a21.64,21.64,0,0,1,5.3-10l0,0-.57-2.19a1.57,1.57,0,0,1-.09-1,1.22,1.22,0,0,1,.54-.77,1.23,1.23,0,0,1,.93-.13l8.65,2.11a1.23,1.23,0,0,1,.87,1.56l-.1.41a1.41,1.41,0,0,1-1.13,1.13,16.6,16.6,0,0,0-4,.85c-3.71,1.32-5.65,3.6-6.69,7.86-1,4.06-.47,7.49,1.55,10.2s5.6,4.75,10.57,6,9.08,1.06,12.2-.46,5.16-4.32,6.14-8.37a10.43,10.43,0,0,0-1.92-9.44,12.47,12.47,0,0,0-4.77-3.62,1.26,1.26,0,0,1-.69-1.56l.06-.23a1.35,1.35,0,0,1,.59-.85,1.18,1.18,0,0,1,.9-.13l10.1,2.46a1.19,1.19,0,0,1,.74.53,1.35,1.35,0,0,1,.13,1l0,.18a1.61,1.61,0,0,1-.65.9l-.09.07-1.78,1.35h0a18.75,18.75,0,0,1,.61,11.43,19,19,0,0,1-8.4,12.12A17.71,17.71,0,0,1,428.38,344.49Zm-5-1.66a18.22,18.22,0,0,0,21.13-24.2.84.84,0,0,1,.38-1.06l1.86-1.41c.16-.12.25-.2.28-.34l0-.18a.35.35,0,0,0,0-.25.15.15,0,0,0-.1-.07l-10.1-2.46a.15.15,0,0,0-.12,0,.35.35,0,0,0-.13.22l-.06.23c0,.07-.06.31.07.36a13.53,13.53,0,0,1,5.18,3.92,11.42,11.42,0,0,1,2.12,10.34c-1.06,4.37-3.32,7.42-6.69,9.06s-7.68,1.8-12.9.53-9-3.41-11.15-6.35-2.79-6.69-1.72-11.06c1.11-4.58,3.31-7.15,7.34-8.58a17.5,17.5,0,0,1,4.24-.9c.15,0,.23-.23.26-.35l.1-.41c0-.12,0-.28-.12-.32l-8.65-2.11a.21.21,0,0,0-.15,0,.22.22,0,0,0-.07.13.6.6,0,0,0,.06.4l.06.18.6,2.34a.52.52,0,0,1,0,.37,1.69,1.69,0,0,1-.32.43,20.89,20.89,0,0,0-5,9.47c-2.54,10.42,3.06,19.5,13.61,22.07Z"/><path class="cls-1" d="M454.82,296.17l-.17-.08a.74.74,0,0,1-.45-.89l0,0,.12-1a2.77,2.77,0,0,0-1.74-3.18l-23.87-11.55a2.77,2.77,0,0,0-3.58.61l-.7.7a.76.76,0,0,1-1,.16l-.17-.08a.68.68,0,0,1-.37-1l6.41-13.24c3.22-6.66,8.87-9.08,14.69-6.26,4,2,5.73,5.58,4.87,10.48,0,.15,0,.21.17.19l14.73-1.72a4.11,4.11,0,0,0,3.14-1.76l1.65-2.12a.73.73,0,0,1,1-.2l.17.08a.68.68,0,0,1,.37,1l-3.77,7.8a.83.83,0,0,1-.69.45l-18.27,1.62a.48.48,0,0,0-.37.24l-2.75,4.6,10.58,5.12a2.68,2.68,0,0,0,3.55-.78l1.34-1.59a.73.73,0,0,1,1-.2l.17.08a.68.68,0,0,1,.37,1l-5.43,11.21A.68.68,0,0,1,454.82,296.17Zm-9.67-26.8a8.15,8.15,0,0,0-4.12-3.86c-3.25-1.57-6.05-1.47-8.06.31a8.11,8.11,0,0,0-2.1,3l-2.14,4.43a.22.22,0,0,0,.11.31l13.33,6.45,2.34-3.76A6.94,6.94,0,0,0,445.16,269.37Z"/><path class="cls-1" d="M455.21,296.78a1.39,1.39,0,0,1-.61-.15l-.17-.08a1.27,1.27,0,0,1-.76-1.34v0l.11-1a2.27,2.27,0,0,0-1.45-2.66L428.47,280a2.26,2.26,0,0,0-3,.5l-.71.71a1.27,1.27,0,0,1-1.55.26l-.17-.08a1.27,1.27,0,0,1-.68-.72,1.21,1.21,0,0,1,.07-.93l6.41-13.24c3.37-7,9.27-9.46,15.38-6.5,4.14,2,5.94,5.65,5.23,10.56l14.26-1.66a3.6,3.6,0,0,0,2.79-1.56l1.65-2.12a1.24,1.24,0,0,1,1.61-.35l.17.08a1.27,1.27,0,0,1,.68.72,1.2,1.2,0,0,1-.07.93l-3.77,7.8a1.32,1.32,0,0,1-1.08.73l-18.3,1.62L445,280.84,455,285.71a2.16,2.16,0,0,0,2.93-.65l1.34-1.59a1.23,1.23,0,0,1,1.6-.33l.17.08a1.19,1.19,0,0,1,.61,1.65l-5.43,11.22a1.2,1.2,0,0,1-.68.63A1.14,1.14,0,0,1,455.21,296.78Zm-.49-1.64a.49.49,0,0,1,0,.22c0,.14.13.24.19.27l.17.08h0a.29.29,0,0,0,.2,0,.21.21,0,0,0,.09-.11l5.43-11.22c0-.07.08-.17-.13-.27l-.17-.08s-.24-.11-.32,0l-1.38,1.64a3.2,3.2,0,0,1-4.17.91L444,281.52a.52.52,0,0,1-.22-.73l2.75-4.6a1,1,0,0,1,.72-.48l18.32-1.63c.2,0,.25-.12.27-.16l3.77-7.8a.21.21,0,0,0,0-.14.3.3,0,0,0-.15-.13l-.17-.08s-.25-.11-.33,0l-1.68,2.15a4.63,4.63,0,0,1-3.5,2l-14.71,1.72a.65.65,0,0,1-.57-.17.68.68,0,0,1-.17-.59c.82-4.67-.77-8.1-4.58-9.95-5.54-2.68-10.91-.37-14,6l-6.41,13.24a.21.21,0,0,0,0,.14.3.3,0,0,0,.15.13l.17.08c.16.08.23.08.38-.07l.69-.69a3.27,3.27,0,0,1,4.16-.71l23.87,11.55a3.27,3.27,0,0,1,2,3.72Zm-12.54-14.57a.52.52,0,0,1-.22-.05l-13.33-6.45a.74.74,0,0,1-.35-1l2.14-4.43a8.46,8.46,0,0,1,2.24-3.22c2.16-1.92,5.14-2.05,8.61-.38a8.6,8.6,0,0,1,4.36,4.11,7.42,7.42,0,0,1-.67,7.41l-2.34,3.76A.52.52,0,0,1,442.17,280.57Zm-12.85-7.31L442,279.39l2.09-3.37a6.45,6.45,0,0,0,.62-6.43h0a7.62,7.62,0,0,0-3.87-3.62c-3.06-1.48-5.65-1.4-7.49.23a7.64,7.64,0,0,0-2,2.88Z"/><path class="cls-1" d="M498.93,225.19l.11.09a.7.7,0,0,1,.11,1.09l-8.52,11.06a.75.75,0,0,1-1.08.17l-.11-.09a.77.77,0,0,1-.12-1.15c2.17-3.12,2.08-4.08-.26-4.81L480.69,229a.35.35,0,0,0-.39.12l-6.66,8.65a.35.35,0,0,0,0,.4l3.79,6.05c1.85,3,2.32,2.67,5.92-.17.43-.32.73-.33,1.06-.07l.15.11a.69.69,0,0,1,.14,1.05l-7.72,10a.75.75,0,0,1-1.08.17l-.15-.12c-.34-.26-.38-.59-.17-1.08,2.21-4.09,1.88-5.12,0-8l-14.2-22.71,0,0c-.16-.18-.28-.33-.38-.35l-2.23-.41a.78.78,0,0,1-.52-.94l.59-1.91-.12-1.92c0-.6.3-.77.92-.65l33.54,9.81c2.12.63,2.42.39,4.61-1.77A.75.75,0,0,1,498.93,225.19Zm-21.09,3L464.71,224l7.35,11.64c.05.16.12.15.26,0l5.55-7.2C478,228.24,478,228.21,477.84,228.16Z"/><path class="cls-1" d="M476.34,256a1.25,1.25,0,0,1-.76-.26l-.15-.12a1.3,1.3,0,0,1-.33-1.68c2.15-4,1.82-4.8.07-7.55L461,223.68v0l-.08-.08-2.14-.4a1.3,1.3,0,0,1-.92-1.59l.56-1.83-.11-1.83a1.19,1.19,0,0,1,.37-1,1.4,1.4,0,0,1,1.16-.19l33.59,9.82c1.82.54,1.94.49,4.11-1.64a1.26,1.26,0,0,1,1.76-.15h0l.11.09a1.23,1.23,0,0,1,.51.85,1.32,1.32,0,0,1-.31,1L491,237.73a1.33,1.33,0,0,1-.88.52,1.24,1.24,0,0,1-.92-.25l-.11-.09a1.27,1.27,0,0,1-.23-1.84c.79-1.14,1.66-2.52,1.44-3.17-.11-.32-.56-.6-1.42-.87l-8.28-2.52L474.12,238l3.74,6c.67,1.08,1.19,1.76,1.66,1.84.63.11,1.78-.78,3.51-2.14a1.26,1.26,0,0,1,1.69-.07l.14.11a1.2,1.2,0,0,1,.23,1.78l-7.72,10a1.33,1.33,0,0,1-.88.52Zm-14.48-32.82L476,245.85c2,3.11,2.24,4.36,0,8.54-.12.31-.05.36,0,.43l.15.12a.21.21,0,0,0,.16,0,.31.31,0,0,0,.2-.13l7.72-10a.19.19,0,0,0,0-.33l-.15-.11c-.12-.09-.17-.13-.44.07-2.07,1.63-3.23,2.53-4.32,2.34-.86-.15-1.49-.93-2.35-2.31l-3.79-6.05a.87.87,0,0,1,0-1l6.66-8.65a.87.87,0,0,1,1-.29l8.36,2.55a2.9,2.9,0,0,1,2.09,1.52c.35,1-.34,2.31-1.56,4.07-.19.3-.1.37,0,.45l.11.09a.2.2,0,0,0,.16,0,.31.31,0,0,0,.19-.13L498.75,226a.37.37,0,0,0,.1-.22.26.26,0,0,0-.11-.14l-.11-.09c-.13-.1-.23-.13-.4.05-2.26,2.22-2.76,2.61-5.14,1.91l-33.54-9.81a.69.69,0,0,0-.25,0s0,.07,0,.16l.12,1.9a.51.51,0,0,1,0,.18l-.59,1.91a.27.27,0,0,0,.18.29l2.17.4a1.15,1.15,0,0,1,.63.47A.58.58,0,0,1,461.86,223.19Zm12.19,14.68h0Zm6.48-8.39h0Zm-8.38,6.8h-.1a.6.6,0,0,1-.46-.39l-7.33-11.6a.51.51,0,0,1,.59-.77L478,227.67h0a.65.65,0,0,1,.44.42.72.72,0,0,1-.17.64l-5.55,7.2A.76.76,0,0,1,472.16,236.28Zm-6.26-11.35,6.32,10,5-6.44Zm11.94,3.23,0,.13h0Z"/><path class="cls-1" d="M510.91,213.45l-.13-.14a.77.77,0,0,1-.1-1l.34-.54c1-1.49.81-2.77-.64-4.42l-16.61-19c-1.51-1.73-2.65-2-4.37-1.15l-.14.06-.37.14a.76.76,0,0,1-.95-.23l-.12-.14a.68.68,0,0,1,0-1l18.81-16.48a.7.7,0,0,1,1,0l5.09,4.82a.68.68,0,0,1,0,1l-.11.09a.75.75,0,0,1-.93.07l0,0-5.57-2.16a.38.38,0,0,0-.44.07l-9.94,8.7a.22.22,0,0,0,0,.33l8.77,10c.12.14.19.15.33,0l5-4.35a2.72,2.72,0,0,0,.73-3.57L509.27,182a.75.75,0,0,1,.19-.92l.11-.09a.67.67,0,0,1,1,.07l8,9.16a.66.66,0,0,1-.06,1l-.11.09c-.28.25-.55.23-.93,0L515,189.72a2.72,2.72,0,0,0-3.64.26l-5,4.35a.22.22,0,0,0,0,.33l8.4,9.58a2.68,2.68,0,0,0,3.57.67l1.85-.94a.73.73,0,0,1,1,.2l.13.14a.68.68,0,0,1,0,1l-9.37,8.21A.68.68,0,0,1,510.91,213.45Z"/><path class="cls-1" d="M511.47,214.25h-.07a1.27,1.27,0,0,1-.87-.46l-.12-.14a1.27,1.27,0,0,1-.17-1.55l.35-.57c.87-1.3.71-2.33-.59-3.81l-16.6-19c-1.37-1.56-2.24-1.8-3.75-1l-.56.22a1.27,1.27,0,0,1-1.52-.37l-.12-.14a1.28,1.28,0,0,1-.34-.9,1.2,1.2,0,0,1,.43-.85l18.81-16.48a1.2,1.2,0,0,1,1.72,0l5.09,4.82a1.16,1.16,0,0,1,.38.87,1.24,1.24,0,0,1-.43.91l-.11.1a1.25,1.25,0,0,1-1.52.13l-.11-.08L506,173.94l-9.68,8.48,8.4,9.58,4.76-4.17a2.22,2.22,0,0,0,.61-3l-1.32-2.64a1.27,1.27,0,0,1,.31-1.53l.11-.09a1.18,1.18,0,0,1,1.72.11l8,9.16a1.18,1.18,0,0,1-.11,1.72l-.11.09a1.23,1.23,0,0,1-1.53.06l-2.47-1.6a2.23,2.23,0,0,0-3,.21L507,194.54l8.21,9.37a2.16,2.16,0,0,0,3,.55l1.85-.94a1.23,1.23,0,0,1,1.6.32l.12.14a1.19,1.19,0,0,1-.08,1.76l-9.37,8.21A1.22,1.22,0,0,1,511.47,214.25Zm-20.4-28a4.21,4.21,0,0,1,3.09,1.81l16.6,19c1.61,1.84,1.81,3.35.68,5l-.33.53c-.08.16-.07.22.05.36l.12.14h0a.29.29,0,0,0,.17.11.32.32,0,0,0,.13-.06L521,205c.06-.06.14-.12,0-.3l-.12-.14c0-.05-.19-.19-.31-.11l-1.91,1a3.2,3.2,0,0,1-4.19-.79L506,195a.73.73,0,0,1,.08-1.06l5-4.35a3.22,3.22,0,0,1,4.27-.3l2.44,1.58c.21.12.24.1.31,0l.1-.09a.16.16,0,0,0,0-.26l-8-9.16c-.09-.1-.16-.11-.27,0l-.1.09c-.08.07-.14.12-.05.35l1.3,2.6a3.22,3.22,0,0,1-.86,4.19l-5,4.35a.73.73,0,0,1-.54.21.75.75,0,0,1-.51-.29l-8.76-10a.73.73,0,0,1,.07-1.06l9.93-8.7a.9.9,0,0,1,1-.16l5.56,2.16a.52.52,0,0,1,.18.12.19.19,0,0,0,.19-.07l.1-.09a.21.21,0,0,0,.08-.15.14.14,0,0,0-.05-.11l-5.1-4.82c-.16-.15-.22-.12-.33,0L488.2,186.46a.24.24,0,0,0,0,.3l.12.14c.12.14.18.16.38.09l.49-.19A4.1,4.1,0,0,1,491.07,186.27Zm15.7,8.45h0ZM496.15,182.6h0Z"/><path class="cls-1" d="M552.54,181.14l-.09-.16a.74.74,0,0,1,.13-1l2-1.89a2.29,2.29,0,0,0,.37-2.92l-14.77-25.55L534.37,153a3.37,3.37,0,0,0-1.84,3.18l.07,7a.8.8,0,0,1-.41.78l-.08,0a.67.67,0,0,1-1-.34l-3.35-8.88a.71.71,0,0,1,.39-.93l26.36-15.24c.4-.23.74-.21,1,.13l6,7.34a.67.67,0,0,1-.21,1l-.08,0a.86.86,0,0,1-.95,0l-6-3.56a3.36,3.36,0,0,0-3.67,0l-5.72,3.31,14.78,25.55a2.38,2.38,0,0,0,2.71,1.14l2.62-.81a.76.76,0,0,1,1,.36l.09.16a.69.69,0,0,1-.27,1l-12.21,7.06A.69.69,0,0,1,552.54,181.14Z"/><path class="cls-1" d="M553.15,182.06a1.12,1.12,0,0,1-.29,0,1.26,1.26,0,0,1-.76-.62l-.09-.16a1.25,1.25,0,0,1,.26-1.66l2-1.86a1.78,1.78,0,0,0,.27-2.28L540,150.34l-5.39,3.12a2.87,2.87,0,0,0-1.58,2.73l.07,7a1.31,1.31,0,0,1-.67,1.23,1.33,1.33,0,0,1-1.15.15,1.14,1.14,0,0,1-.68-.72L527.27,155a1.22,1.22,0,0,1,.61-1.55l26.36-15.24a1.18,1.18,0,0,1,1.67.27l6,7.31a1.13,1.13,0,0,1,.27.94,1.27,1.27,0,0,1-.62.88,1.41,1.41,0,0,1-1.59,0l-6-3.53a2.86,2.86,0,0,0-3.15,0l-5.27,3,14.52,25.1a1.86,1.86,0,0,0,2.11.9l2.62-.81a1.28,1.28,0,0,1,1.56.6l.09.16a1.2,1.2,0,0,1-.46,1.73l-12.21,7.06A1.33,1.33,0,0,1,553.15,182.06Zm-12.93-32.94.13,0a.51.51,0,0,1,.31.24l14.77,25.55a2.81,2.81,0,0,1-.47,3.56l-2,1.89a.27.27,0,0,0,0,.36l.09.16h0a.27.27,0,0,0,.13.14.26.26,0,0,0,.18-.05l12.21-7.06c.16-.09.18-.16.09-.32l-.09-.16c-.08-.13-.11-.19-.4-.12l-2.58.8a2.89,2.89,0,0,1-3.31-1.37l-14.78-25.55a.51.51,0,0,1,.19-.7l5.72-3.31a3.89,3.89,0,0,1,4.19,0l6,3.56a.38.38,0,0,0,.43,0c.14-.08.19-.14.2-.2a.12.12,0,0,0,0-.1l-6-7.35c-.07-.1-.1-.14-.34,0l-26.36,15.24c-.23.13-.19.23-.17.28l3.36,8.9c0,.08.05.09.08.1a.24.24,0,0,0,.19,0c.18-.1.24-.15.23-.38l-.07-7a3.9,3.9,0,0,1,2.1-3.63l5.84-3.38A.51.51,0,0,1,540.21,149.12Z"/><path class="cls-1" d="M616.41,144.67c-.89-4.36.66-7.83,5.9-13.1.12-.12.15-.22,0-.33-3.49-3.07-4.44-5.6-4.76-7.21-.94-4.63,2.11-8.93,7-9.92,4-.81,7.31,1,8,4.26.57,2.8-.91,6.11-4.7,10.51-.12.12-.1.21,0,.33l10.67,9c.12.12.17.11.22-.09a18.86,18.86,0,0,0,.39-8.2c-.28-1.38-.49-1.48-3.75-1.29a.65.65,0,0,1-.78-.56l0-.23a.66.66,0,0,1,.55-.83l9.64-2a.67.67,0,0,1,.83.55l0,.18a.69.69,0,0,1-.49.87c-3,.94-3.31,1.34-3.35,3.5a59.45,59.45,0,0,1-1.32,9.49.35.35,0,0,0,.08.41l5,4.49c.12.12.21.1.42.2v0l3.11.47a.87.87,0,0,1,.66.68l0,.18a.66.66,0,0,1-.55.83l-6.38,1.3a.88.88,0,0,1-.86-.21l-3.35-3.1c-.11-.07-.28,0-.46.33a14.78,14.78,0,0,1-9.75,6.37C621.9,152.87,617.56,150.36,616.41,144.67Zm12.72-24.42c-.6-2.94-2.56-4.36-5.17-3.83a3.77,3.77,0,0,0-3.18,4.8c.35,1.7,1.1,3.55,5.07,6.38.17.16.27.14.38,0C628.86,124.79,629.65,122.77,629.13,120.25Zm7.32,23.13c.16-.18.15-.22,0-.33L624.25,132.9c-.12-.12-.21-.1-.33,0-3,3.57-3.19,6.19-2.68,8.67,1,4.86,4.17,7.37,8.53,6.49A10.31,10.31,0,0,0,636.46,143.37Z"/><path class="cls-1" d="M625.14,152.43c-4.93,0-8.23-2.68-9.24-7.65h0c-.91-4.47.67-8.11,5.82-13.35-2.68-2.41-4.2-4.79-4.71-7.29a9,9,0,0,1,7.37-10.53c4.26-.86,7.87,1.1,8.59,4.66.59,2.91-.88,6.33-4.63,10.74l10,8.43a18.06,18.06,0,0,0,.25-7.4c-.21-1-.21-1-3.22-.88a1.16,1.16,0,0,1-1.32-1l0-.23a1.18,1.18,0,0,1,1-1.44l9.64-2a1.18,1.18,0,0,1,1.44.95l0,.18a1.21,1.21,0,0,1-.84,1.46c-2.85.9-3,1.17-3,3a59.82,59.82,0,0,1-1.33,9.58l4.9,4.42.07,0h.08l3.11.47a1.39,1.39,0,0,1,1.09,1.08l0,.18a1.18,1.18,0,0,1-1,1.44l-6.38,1.3a1.38,1.38,0,0,1-1.34-.37l-3-2.79a15.29,15.29,0,0,1-10,6.56A16.52,16.52,0,0,1,625.14,152.43Zm1.25-38a9.05,9.05,0,0,0-1.8.19c-4.63.94-7.46,4.95-6.57,9.31.48,2.36,2,4.62,4.6,6.92a.64.64,0,0,1,.29.48.73.73,0,0,1-.24.6c-5.1,5.13-6.61,8.44-5.76,12.63h0c1.11,5.45,5.13,7.76,11.31,6.5a14.3,14.3,0,0,0,9.42-6.16,1,1,0,0,1,.63-.56.66.66,0,0,1,.53.09l3.42,3.15a.41.41,0,0,0,.41.08l6.38-1.3c.13,0,.17-.09.15-.22l0-.18a.35.35,0,0,0-.26-.28l-2.89-.44a.46.46,0,0,1-.32,0l-.14-.05a1,1,0,0,1-.43-.25l-5-4.47a.87.87,0,0,1-.24-.93,58.72,58.72,0,0,0,1.31-9.37c0-2.43.56-3,3.71-4,.13,0,.18-.09.14-.27l0-.18c0-.14-.09-.17-.22-.15l-9.64,2c-.13,0-.17.09-.15.22l0,.23c0,.12,0,.17.23.15,3.17-.18,3.93-.15,4.3,1.7a19.44,19.44,0,0,1-.4,8.43.69.69,0,0,1-.46.54.63.63,0,0,1-.63-.21l-10.64-9a.78.78,0,0,1-.28-.57.72.72,0,0,1,.23-.52c3.63-4.22,5.09-7.42,4.56-10S629.27,114.43,626.4,114.43Zm12.22,30.87ZM622,131.66l0,0Zm6.19-2.45h0Zm-.09,19.55a6.72,6.72,0,0,1-4.17-1.37,9.33,9.33,0,0,1-3.19-5.71c-.47-2.3-.5-5.18,2.79-9.1a.72.72,0,0,1,1.09-.05l12.16,10.11a.66.66,0,0,1,.31.46.73.73,0,0,1-.21.57,10.84,10.84,0,0,1-7,4.9A8.93,8.93,0,0,1,628.09,148.76Zm-4-15.3c-2.82,3.45-2.82,5.89-2.39,8a8.33,8.33,0,0,0,2.81,5.09,6.14,6.14,0,0,0,5.11,1,9.8,9.8,0,0,0,6.25-4.31Zm12,10h0Zm-12.25-10.19h0Zm2.14-5.07a.84.84,0,0,1-.56-.24c-4.18-3-4.89-5-5.23-6.66a4.26,4.26,0,0,1,3.58-5.41c2.91-.59,5.13,1,5.78,4.23.55,2.7-.3,4.89-3,7.83A.77.77,0,0,1,626.06,128.23Zm-1-11.4a4.79,4.79,0,0,0-1,.1,3.27,3.27,0,0,0-2.78,4.2c.31,1.52.93,3.23,4.74,6,2.37-2.59,3.08-4.44,2.61-6.74h0C628.17,118.07,626.87,116.82,625,116.82Z"/><path class="cls-1" d="M696,144.39l0-.18c.11-.79.65-.62,1.09-.71,1.87-.17,2.81-1.23,3.12-3.55l3.35-25c.31-2.32-.26-3.39-2.1-4.11-.71-.33-.92-.55-.85-1.06l0-.18a.68.68,0,0,1,.8-.65l11.24,1.51a.68.68,0,0,1,.6.84l0,.18c-.1.74-.61.67-1.05.8h0c-2,.21-2.79,1.09-3.1,3.41l-1.36,10.17c0,.19,0,.24.25.27l17.41,2.33c.09,0,.14,0,.19,0L727,118.1c.31-2.32-.25-3.39-2.09-4.11-.71-.33-.92-.55-.85-1.06l0-.18a.68.68,0,0,1,.8-.65l11.24,1.51a.68.68,0,0,1,.6.84l0,.32a.79.79,0,0,1-.71.71c-2.71.44-3.14.86-3.48,3.36l-3.35,25c-.31,2.32.32,3.59,2.08,4.25.54.21.94.36.86,1l0,.19a.66.66,0,0,1-.79.6L720,148.32a.68.68,0,0,1-.65-.8l0-.19c.11-.79.65-.62,1.09-.7,1.87-.17,2.81-1.23,3.12-3.55l1.64-12.21c0-.05-.09-.06-.18-.07l-17.41-2.33c-.19,0-.29.06-.31.19l-1.61,12c-.31,2.32.32,3.59,2.08,4.25.54.21.95.36.86,1l0,.19a.66.66,0,0,1-.79.6l-11.19-1.5A.68.68,0,0,1,696,144.39Z"/><path class="cls-1" d="M731.34,150.34h-.18L720,148.83a1.27,1.27,0,0,1-.87-.48,1.2,1.2,0,0,1-.22-.9l0-.18a1.19,1.19,0,0,1,1.28-1.12l.22,0c1.41-.13,2.39-.71,2.71-3.11l1.57-11.75L707.83,129l-1.57,11.75c-.32,2.4.47,3.22,1.75,3.7.58.23,1.33.52,1.19,1.52l0,.19a1.18,1.18,0,0,1-1.37,1l-11.19-1.5a1.19,1.19,0,0,1-1.09-1.37h0l0-.19a1.19,1.19,0,0,1,1.28-1.12l.22,0c1.41-.13,2.39-.71,2.71-3.11l3.35-25c.27-2.06-.16-2.93-1.77-3.56-.7-.33-1.3-.68-1.17-1.61l0-.18a1.19,1.19,0,0,1,1.38-1.09L712.79,110a1.21,1.21,0,0,1,.81.45,1.27,1.27,0,0,1,.23,1l0,.19a1.28,1.28,0,0,1-1.2,1.18l-.22,0a.51.51,0,0,1-.23,0c-1.64.18-2.28.9-2.56,3l-1.33,9.89,16.85,2.26,1.32-9.89c.28-2.06-.15-2.93-1.77-3.56-.7-.33-1.3-.68-1.17-1.61l0-.18a1.28,1.28,0,0,1,.47-.87,1.21,1.21,0,0,1,.9-.22l11.24,1.51a1.19,1.19,0,0,1,1,1.42l0,.32A1.3,1.3,0,0,1,736,116c-2.5.41-2.76.65-3.07,2.92l-3.35,25c-.32,2.4.47,3.22,1.75,3.7.58.23,1.32.52,1.19,1.51l0,.19a1.21,1.21,0,0,1-.46.82A1.19,1.19,0,0,1,731.34,150.34ZM720,147.22a.42.42,0,0,0-.05.19l0,.18a.2.2,0,0,0,0,.14.3.3,0,0,0,.19.08l11.19,1.5a.22.22,0,0,0,.15,0,.22.22,0,0,0,.06-.14l0-.19c0-.17,0-.19-.52-.4-2-.76-2.77-2.24-2.43-4.81l3.35-25c.37-2.72,1-3.33,3.9-3.8.23,0,.26-.14.28-.27l0-.33c0-.23-.07-.25-.15-.26l-11.24-1.51a.22.22,0,0,0-.14,0,.29.29,0,0,0-.08.19l0,.18c0,.19,0,.25.56.53,2,.8,2.73,2.1,2.39,4.64l-1.39,10.35a.51.51,0,0,1-.2.34.71.71,0,0,1-.56.12l-17.42-2.33a.7.7,0,0,1-.69-.85l1.36-10.17c.34-2.54,1.34-3.62,3.56-3.86h.06l.2,0c.34-.07.35-.07.38-.31l0-.19a.29.29,0,0,0,0-.2.21.21,0,0,0-.13-.06l-11.24-1.51c-.08,0-.19,0-.22.21l0,.18c0,.19,0,.25.56.53,2,.8,2.73,2.1,2.39,4.64l-3.35,25c-.34,2.56-1.45,3.8-3.59,4l-.29,0a1,1,0,0,0-.28,0h0a.47.47,0,0,0-.05.19l0,.18c0,.09,0,.19.21.22l11.19,1.5a.22.22,0,0,0,.21-.16l0-.19c0-.17,0-.19-.51-.4-2-.76-2.77-2.25-2.43-4.81l1.61-12a.73.73,0,0,1,.32-.52.83.83,0,0,1,.57-.12l17.41,2.33a.72.72,0,0,1,.52.26.51.51,0,0,1,.1.39l-1.64,12.21c-.34,2.53-1.48,3.8-3.58,4l-.29,0a1,1,0,0,0-.28,0Z"/><path class="cls-1" d="M782.9,165.71l0,.13a.71.71,0,0,1-1,.43l-13.1-4.81a.75.75,0,0,1-.49-1l0-.13c.16-.44.52-.61,1.07-.46,3.63,1.13,4.51.76,4.51-1.69l-.07-8.76a.35.35,0,0,0-.23-.33l-10.25-3.76a.35.35,0,0,0-.39.11l-4.64,5.43c-2.27,2.66-1.85,3,1.93,5.6.44.31.53.59.39,1l-.06.18a.69.69,0,0,1-1,.45l-11.87-4.36a.75.75,0,0,1-.49-1l.06-.18c.15-.39.45-.53,1-.49,4.57.88,5.44.25,7.66-2.38l17.4-20.35,0,0c.13-.2.23-.36.22-.47l-.27-2.24a.78.78,0,0,1,.74-.78l2,0,1.8-.69c.57-.19.83.06.9.68l.69,34.93c0,2.21.36,2.43,3.07,3.87A.75.75,0,0,1,782.9,165.71Zm-9.15-19.23,0-13.77-8.9,10.5c-.14.1-.11.16.11.24l8.53,3.13C773.73,146.68,773.74,146.63,773.75,146.49Z"/><path class="cls-1" d="M782.21,166.86a1.57,1.57,0,0,1-.54-.1l-13.1-4.81a1.26,1.26,0,0,1-.79-1.64l0-.13a1.28,1.28,0,0,1,1.69-.78c1.33.42,2.91.83,3.45.43.28-.2.41-.72.41-1.62l-.07-8.65-10-3.68-4.57,5.35c-.83,1-1.33,1.66-1.26,2.13.09.65,1.28,1.47,3.1,2.71a1.26,1.26,0,0,1,.58,1.59l-.06.17a1.2,1.2,0,0,1-1.62.75l-11.87-4.36a1.26,1.26,0,0,1-.79-1.64l.06-.17a1.31,1.31,0,0,1,1.51-.83c4.46.85,5.12.3,7.22-2.19L773,129l0,0,.06-.1-.26-2.15a1.33,1.33,0,0,1,.38-1,1.22,1.22,0,0,1,.87-.37l1.9,0,1.71-.65a1.2,1.2,0,0,1,1.06.06,1.32,1.32,0,0,1,.53,1l.7,35c0,1.9.11,2,2.8,3.43a1.26,1.26,0,0,1,.67,1.64l0,.13A1.18,1.18,0,0,1,782.21,166.86ZM769,160.35c-.16,0-.19.09-.22.18l0,.13c-.05.14,0,.26.18.32l13.1,4.81c.26.1.3,0,.34-.12l0-.13h0c.05-.13.07-.25-.17-.36-2.79-1.49-3.32-1.84-3.36-4.33l-.69-34.93a.67.67,0,0,0-.07-.24l-.15,0-1.78.68a.52.52,0,0,1-.18,0l-2,0a.2.2,0,0,0-.14.07.28.28,0,0,0-.09.19l.27,2.19a1.19,1.19,0,0,1-.26.74.55.55,0,0,1-.1.12l-17.37,20.31c-2.38,2.82-3.49,3.44-8.15,2.55-.33,0-.36.06-.4.16l-.06.17a.24.24,0,0,0,.18.32l11.87,4.36c.17.06.24,0,.3-.14l.06-.17c.05-.15.07-.2-.2-.39-2.18-1.49-3.38-2.31-3.53-3.42-.11-.86.44-1.7,1.5-2.94l4.64-5.43a.85.85,0,0,1,1-.26l10.24,3.76a.87.87,0,0,1,.56.83l.07,8.75a2.9,2.9,0,0,1-.82,2.45c-.87.64-2.31.37-4.35-.27Zm4.39-10.75h0Zm-.11-.15h0Zm-9.94-3.67h0Zm10.32,1.37a1,1,0,0,1-.34-.07l-8.53-3.13a.71.71,0,0,1-.53-.54.6.6,0,0,1,.23-.56l8.86-10.47a.52.52,0,0,1,.91.33l0,13.77h0a.64.64,0,0,1-.26.55A.58.58,0,0,1,773.67,147.15Zm-.06-.67h0Zm-8-3.34,7.62,2.8V134.13Z"/><path class="cls-1" d="M797.71,173.51l.1-.16a.73.73,0,0,1,.94-.35l0,0,1,.22A2.76,2.76,0,0,0,803,171.8l14.05-22.49a2.76,2.76,0,0,0-.22-3.62l-.62-.77a.76.76,0,0,1-.05-1l.1-.16a.68.68,0,0,1,1-.26l12.48,7.8c6.28,3.92,8.08,9.8,4.65,15.28-2.38,3.82-6.17,5.1-10.94,3.72-.14,0-.21,0-.2.15l.13,14.83a4.11,4.11,0,0,0,1.41,3.31l1.92,1.87a.73.73,0,0,1,.09,1l-.1.16a.68.68,0,0,1-1,.26l-7.35-4.59a.83.83,0,0,1-.37-.73l.36-18.34a.48.48,0,0,0-.2-.4l-4.28-3.23-6.23,10a2.68,2.68,0,0,0,.39,3.62l1.44,1.5a.74.74,0,0,1,.09,1l-.1.16a.68.68,0,0,1-1,.26l-10.57-6.6A.68.68,0,0,1,797.71,173.51Zm27.69-6.73a8.15,8.15,0,0,0,4.29-3.67c1.91-3.06,2.11-5.86.56-8.05a8.13,8.13,0,0,0-2.8-2.41L823.26,150a.22.22,0,0,0-.32.07l-7.85,12.56,3.49,2.73A6.93,6.93,0,0,0,825.39,166.77Z"/><path class="cls-1" d="M826.11,192.53a1.25,1.25,0,0,1-.66-.2l-7.35-4.59a1.33,1.33,0,0,1-.62-1.15l.36-18.37L814,165.35l-5.94,9.5a2.16,2.16,0,0,0,.33,3l1.44,1.51A1.23,1.23,0,0,1,810,181l-.1.16a1.2,1.2,0,0,1-1.7.43l-10.57-6.6a1.19,1.19,0,0,1-.36-1.72h0l.1-.16a1.26,1.26,0,0,1,1.41-.61h0l1,.22a2.27,2.27,0,0,0,2.8-1.16L816.64,149a2.26,2.26,0,0,0-.18-3l-.63-.78a1.27,1.27,0,0,1-.09-1.57l.1-.15a1.27,1.27,0,0,1,.79-.6,1.2,1.2,0,0,1,.91.17L830,150.88a13.67,13.67,0,0,1,6.18,7.34,10.31,10.31,0,0,1-1.37,8.65c-2.44,3.9-6.26,5.3-11.06,4.06l.12,14.35a3.6,3.6,0,0,0,1.25,2.94l1.93,1.87a1.23,1.23,0,0,1,.17,1.64l-.09.15a1.27,1.27,0,0,1-.79.6Zm-12.23-28.44a.51.51,0,0,1,.31.1l4.28,3.23a1,1,0,0,1,.4.76l-.36,18.39c0,.21.09.26.13.28l7.35,4.59a.19.19,0,0,0,.14,0,.29.29,0,0,0,.15-.14l.09-.16s.14-.23,0-.33l-2-1.9a4.64,4.64,0,0,1-1.57-3.69l-.12-14.81a.65.65,0,0,1,.23-.55.68.68,0,0,1,.61-.1c4.55,1.31,8.13.11,10.38-3.49a9.31,9.31,0,0,0,1.26-7.8,12.67,12.67,0,0,0-5.74-6.77L817,144a.21.21,0,0,0-.13,0,.29.29,0,0,0-.15.14l-.1.16c-.1.16-.11.22,0,.39l.61.77a3.26,3.26,0,0,1,.26,4.21l-14.05,22.49a3.27,3.27,0,0,1-3.91,1.61l-.8-.18a.53.53,0,0,1-.22,0c-.13-.06-.26.12-.28.16l-.1.16c-.12.2,0,.25,0,.3l10.57,6.6c.07,0,.16.1.29-.1l.1-.16c0-.05.13-.23,0-.33l-1.48-1.55a3.2,3.2,0,0,1-.46-4.24l6.24-10a.52.52,0,0,1,.34-.23Zm9.32,3.58a8,8,0,0,1-4.94-1.88l-3.49-2.73a.51.51,0,0,1-.12-.68l7.85-12.56a.73.73,0,0,1,1-.24l4.17,2.61a8.48,8.48,0,0,1,3,2.57c1.67,2.35,1.49,5.33-.55,8.6a8.6,8.6,0,0,1-4.56,3.89A7.15,7.15,0,0,1,823.2,167.67Zm-7.43-5.13L818.9,165a6.44,6.44,0,0,0,6.33,1.3h0a7.62,7.62,0,0,0,4-3.46c1.26-2,2.38-4.94.57-7.48a7.66,7.66,0,0,0-2.65-2.28l-3.93-2.46Z"/><path class="cls-1" d="M847.51,210.78,860,179.7a5.66,5.66,0,0,0-.92-5.8.75.75,0,0,1,0-1.09l.1-.1a.75.75,0,0,1,1.09,0l10.42,9.77a.69.69,0,0,1,0,1.06l-.09.1a.77.77,0,0,1-1.06.1l0,0c-2.62-2.2-4-2.25-4.85-.24l-9.52,22.14.21.19,20.08-10.19c2.74-1.48,2.85-3,.44-5.95a.71.71,0,0,1,0-1.06l.13-.14a.7.7,0,0,1,1.09,0l9.23,8.65a.69.69,0,0,1,0,1.06l-.13.14c-.29.31-.58.35-1.06.1-2.74-1.87-5.43-2.14-8-.8l-28.47,14.28a.88.88,0,0,1-1-.2A.8.8,0,0,1,847.51,210.78Z"/><path class="cls-1" d="M848.34,212.46a1.44,1.44,0,0,1-1-.41,1.32,1.32,0,0,1-.33-1.44h0l12.45-31.09a5.15,5.15,0,0,0-.84-5.28,1.26,1.26,0,0,1,0-1.77l.1-.11a1.26,1.26,0,0,1,1.82,0L871,182.09a1.2,1.2,0,0,1,.06,1.79l-.09.1a1.28,1.28,0,0,1-1.71.19l-.09-.07c-1.42-1.19-2.45-1.72-3.1-1.56-.37.09-.68.46-.94,1.11L856,204.88l19.18-9.74c1.13-.61,1.72-1.2,1.85-1.85s-.35-1.84-1.57-3.31a1.22,1.22,0,0,1,0-1.74l.13-.14a1.21,1.21,0,0,1,1.82,0l9.23,8.65a1.2,1.2,0,0,1,.06,1.79l-.13.14a1.26,1.26,0,0,1-1.67.2c-2.63-1.79-5.14-2-7.5-.8L848.9,212.33A1.39,1.39,0,0,1,848.34,212.46ZM848,211a.29.29,0,0,0,.07.33.37.37,0,0,0,.4.1l28.44-14.27c2.72-1.43,5.58-1.15,8.5.84.25.13.29.08.39,0l.13-.14a.28.28,0,0,0,.09-.17.29.29,0,0,0-.1-.16l-9.23-8.65c-.19-.18-.26-.13-.37,0l-.13.14c-.08.09-.14.15,0,.37,1.47,1.76,2,3,1.8,4.18-.19,1-.95,1.79-2.38,2.57l-20.09,10.2a.51.51,0,0,1-.59-.08l-.21-.19a.51.51,0,0,1-.12-.58l9.52-22.14a2.5,2.5,0,0,1,1.64-1.71c1-.26,2.25.29,4,1.76.21.13.29.07.39,0l.09-.1c.13-.14.13-.21,0-.33l-10.42-9.77a.24.24,0,0,0-.37,0l-.1.11c-.09.1-.16.2,0,.4a6.17,6.17,0,0,1,1,6.34Z"/><path class="cls-1" d="M872.12,235.72l.15-.11a.76.76,0,0,1,1,0l.33.22,0,0c1.44,1.28,2.75,1.26,4.61-.08l20.49-14.67c1.9-1.36,2.3-2.51,1.56-4.34l0,0-.11-.39a.77.77,0,0,1,.32-.92l.15-.11a.68.68,0,0,1,1,.13l14.56,20.34a.7.7,0,0,1-.13,1l-5.3,4.6a.67.67,0,0,1-1-.14l-.08-.11a.75.75,0,0,1,0-.94l0,0,2.69-5.33a.38.38,0,0,0,0-.44l-7.69-10.74a.22.22,0,0,0-.33-.05l-10.81,7.74c-.15.11-.17.17-.05.33l3.84,5.37a2.73,2.73,0,0,0,3.48,1.08l2.76-1.05a.75.75,0,0,1,.89.28l.08.12a.67.67,0,0,1-.16,1l-9.9,7.09a.66.66,0,0,1-1-.16l-.08-.11a.71.71,0,0,1,.09-.93l1.82-2.28a2.72,2.72,0,0,0,.1-3.64l-3.84-5.37a.22.22,0,0,0-.33-.05L878.83,242c-.15.11-.16.17-.05.33l7.58,10.59a.43.43,0,0,0,.37.19l6.79-.89,0,0a.82.82,0,0,1,.88.35l.27.38a.68.68,0,0,1-.27,1l-7.06,3.33a.66.66,0,0,1-.93-.25l-14.47-20.23A.67.67,0,0,1,872.12,235.72Z"/><path class="cls-1" d="M887,257.82a1.25,1.25,0,0,1-1-.57L871.5,237a1.2,1.2,0,0,1-.23-.9,1.27,1.27,0,0,1,.55-.82l.15-.11a1.27,1.27,0,0,1,1.56,0l.33.22a.51.51,0,0,1,.14.13c1.2,1.06,2.24,1,3.92-.16l20.49-14.67c1.68-1.2,2-2.1,1.4-3.69a.66.66,0,0,1-.06-.14l-.1-.39a1.27,1.27,0,0,1,.52-1.47l.15-.11a1.28,1.28,0,0,1,1-.25,1.2,1.2,0,0,1,.78.5L916.6,235.5a1.21,1.21,0,0,1-.21,1.7l-5.3,4.6a1.17,1.17,0,0,1-.91.29,1.23,1.23,0,0,1-.86-.52l-.08-.1a1.25,1.25,0,0,1,0-1.53.51.51,0,0,1,.1-.11l2.57-5.09-7.49-10.47-10.36,7.42,3.68,5.14a2.23,2.23,0,0,0,2.88.9l2.76-1.05a1.27,1.27,0,0,1,1.49.46l.09.12a1.18,1.18,0,0,1-.28,1.7l-9.9,7.09a1.18,1.18,0,0,1-1.7-.28l-.08-.11a1.22,1.22,0,0,1,.11-1.57l1.81-2.27a2.23,2.23,0,0,0,.08-3l-3.68-5.14-12,8.56,7.4,10.33,6.49-.85a.43.43,0,0,1,.14-.06,1.33,1.33,0,0,1,1.41.55l.27.38a1.14,1.14,0,0,1,.19.93,1.26,1.26,0,0,1-.63.82l-7.1,3.34A1.13,1.13,0,0,1,887,257.82Zm-14.23-21.88a.33.33,0,0,0-.19.08l-.15.11h0a.3.3,0,0,0-.13.16.21.21,0,0,0,0,.13l14.47,20.23c.13.18.18.15.26.11l7.1-3.35a.23.23,0,0,0,.09-.13.12.12,0,0,0,0-.1l-.27-.38a.33.33,0,0,0-.21-.15.42.42,0,0,1-.16.05l-6.79.89a1,1,0,0,1-.86-.41l-7.58-10.59a.68.68,0,0,1,.17-1L891,232.66a.74.74,0,0,1,1,.17l3.85,5.38a3.22,3.22,0,0,1-.12,4.27l-1.82,2.27c-.16.19-.11.25-.07.31l.08.11a.23.23,0,0,0,.12.1.22.22,0,0,0,.14,0l9.9-7.09a.16.16,0,0,0,0-.26l-.08-.12c-.06-.08-.11-.14-.34-.08l-2.71,1a3.22,3.22,0,0,1-4.09-1.26l-3.84-5.37a.74.74,0,0,1-.16-.56.75.75,0,0,1,.34-.49l10.81-7.74a.74.74,0,0,1,1,.17l7.69,10.74a.89.89,0,0,1,.06,1l-2.69,5.32a.53.53,0,0,1-.14.17.2.2,0,0,0,0,.2l.08.11a.22.22,0,0,0,.14.1.14.14,0,0,0,.12,0l5.3-4.6c.16-.14.14-.21.05-.33L901.2,215.76a.21.21,0,0,0-.11-.09.3.3,0,0,0-.19.07l-.15.11c-.15.1-.18.16-.12.37l.08.31,0,.05c.83,2.07.35,3.46-1.74,5L878.51,236.2c-2.06,1.47-3.63,1.49-5.26,0l0,0L873,236A.39.39,0,0,0,872.75,235.94Z"/><path class="cls-1" d="M900.8,279.16c0-.31-.05-.44-.24-.51l-1.88-.73a1.45,1.45,0,0,1-.63-.69l-.06-.13a.72.72,0,0,1,.3-1l9.75-5.37a.69.69,0,0,1,.94.24l.16.24a.79.79,0,0,1,0,1c-4.61,4.44-7.66,7.44-5,13.27,2,4.25,5,5.88,8.22,4.41,8.25-3.8,0-20.39,10.13-25,5-2.31,10.8.39,13.54,6.34a10.61,10.61,0,0,1,.71,7.71c0,.27,0,.36.24.41l2,.38a1.13,1.13,0,0,1,.74.59l0,.08a.68.68,0,0,1-.33,1l-8.31,4.34a.68.68,0,0,1-1-.39L930,285a.86.86,0,0,1,.16-1c1.06-1.06,6.68-5.09,3.86-11.21-1.53-3.32-4.19-4.51-7.13-3.16-8.21,3.78-.08,19.63-10.12,24.25-5.4,2.49-11.72-.48-14.64-6.82C900.83,284.25,900.79,282.05,900.8,279.16Z"/><path class="cls-1" d="M912.76,295.28c-4.44,0-8.79-3-11.11-8-1.38-3-1.37-5.37-1.36-8.12h0s0,0,0,0l-1.79-.7a2,2,0,0,1-.91-1l-.06-.13a1.37,1.37,0,0,1-.09-1,1.17,1.17,0,0,1,.65-.74l9.71-5.35a1.22,1.22,0,0,1,1.62.42l.15.22a1.3,1.3,0,0,1-.09,1.7c-4.47,4.31-7.42,7.15-4.87,12.69a8.57,8.57,0,0,0,3.42,4.11,4.41,4.41,0,0,0,4.11,0c3.63-1.67,3.83-6.19,4-11,.24-5.38.51-11.49,6.09-14.05a9.42,9.42,0,0,1,8.06.07A13.14,13.14,0,0,1,936.5,271a10.91,10.91,0,0,1,.84,7.62l-.06.25,1.78.34a1.65,1.65,0,0,1,1.11.88,1.34,1.34,0,0,1,.11,1.07,1.21,1.21,0,0,1-.64.67l-8.29,4.33a1.2,1.2,0,0,1-1.66-.63l-.16-.34a1.37,1.37,0,0,1,.23-1.54c.15-.15.31-.3.51-.47,1.69-1.51,5.66-5,3.29-10.2-1.42-3.08-3.77-4.14-6.45-2.91-3.61,1.66-3.82,6-4,10.61-.25,5.19-.53,11.08-6.08,13.64A10,10,0,0,1,912.76,295.28Zm-11.44-16.11c0,2.62,0,4.89,1.27,7.67,2.81,6.11,8.81,8.94,14,6.57,5-2.3,5.24-7.61,5.48-12.75.22-4.71.46-9.57,4.64-11.5,3.17-1.46,6.17-.15,7.81,3.42,2.69,5.85-1.83,9.88-3.54,11.4l-.43.39a.33.33,0,0,0-.05.42l.16.34c.1.21.19.17.27.13l8.29-4.33c.06,0,.11-.06.13-.1a.29.29,0,0,0,0-.2.67.67,0,0,0-.43-.39l-2-.37a.78.78,0,0,1-.65-1c0-.13.06-.29.1-.49a9.81,9.81,0,0,0-.77-6.95,12.11,12.11,0,0,0-5.67-6,8.41,8.41,0,0,0-7.19-.07c-5,2.31-5.25,7.83-5.49,13.16-.23,5.11-.44,9.93-4.64,11.86a5.46,5.46,0,0,1-5-.07,9.56,9.56,0,0,1-3.87-4.59c-2.86-6.2.47-9.41,5.08-13.86,0,0,.12-.12-.06-.41l-.14-.21c0-.07-.1-.15-.29-.06l-9.71,5.35c-.1,0-.12.08-.12.11a.36.36,0,0,0,0,.24l.06.13a1,1,0,0,0,.39.44l1.84.71A.93.93,0,0,1,901.32,279.17Z"/><path class="cls-1" d="M917.25,325l.18,0a.73.73,0,0,1,.91.41l1.22,2.5a2.29,2.29,0,0,0,2.69,1.2L951,322.27l-1.55-6.56a3.37,3.37,0,0,0-2.51-2.68l-6.77-2a.81.81,0,0,1-.63-.62l0-.09a.67.67,0,0,1,.61-.87l9.47-.65a.7.7,0,0,1,.77.64l7,29.63c.11.46,0,.77-.41.91l-8.76,3.65a.67.67,0,0,1-.94-.5l0-.09a.86.86,0,0,1,.32-.89l5.14-4.72a3.37,3.37,0,0,0,1-3.52l-1.51-6.43-28.72,6.77a2.38,2.38,0,0,0-1.87,2.27l0,2.74c0,.49-.21.72-.62.82l-.18,0a.69.69,0,0,1-.9-.56l-3.24-13.72A.69.69,0,0,1,917.25,325Z"/><path class="cls-1" d="M947.89,344.25a1.13,1.13,0,0,1-.5-.12,1.26,1.26,0,0,1-.66-.85,1.4,1.4,0,0,1,.49-1.51l5.1-4.69a2.87,2.87,0,0,0,.9-3l-1.4-5.93-28.22,6.65a1.86,1.86,0,0,0-1.47,1.76l0,2.74a1.28,1.28,0,0,1-1,1.32l-.19,0a1.2,1.2,0,0,1-1.52-.94L916.19,326a1.2,1.2,0,0,1,.94-1.52l.18,0a1.24,1.24,0,0,1,1.52.73l1.2,2.45a1.78,1.78,0,0,0,2.11.92l28.22-6.65-1.43-6.06a2.87,2.87,0,0,0-2.16-2.31l-6.76-2a1.32,1.32,0,0,1-1-1l0-.1a1.27,1.27,0,0,1,.22-1,1.14,1.14,0,0,1,.88-.44l9.46-.65a1.22,1.22,0,0,1,1.31,1l7,29.63a1.18,1.18,0,0,1-.74,1.52l-8.74,3.64A1.14,1.14,0,0,1,947.89,344.25ZM952.2,327a.51.51,0,0,1,.5.4l1.51,6.43a3.9,3.9,0,0,1-1.19,4l-5.14,4.73a.37.37,0,0,0-.17.39l0,.1a.23.23,0,0,0,.11.15.12.12,0,0,0,.11,0l8.78-3.66c.11,0,.17-.06.11-.32l-7-29.63c-.06-.26-.15-.25-.22-.24l-9.49.65c-.08,0-.1,0-.12,0a.24.24,0,0,0,0,.19c0,.2.08.27.29.33l6.77,2a3.9,3.9,0,0,1,2.86,3.06l1.55,6.56a.52.52,0,0,1-.38.62l-28.72,6.77a2.8,2.8,0,0,1-3.27-1.48l-1.21-2.5c-.07-.19-.29-.14-.33-.13l-.17,0h0a.28.28,0,0,0-.17.09.27.27,0,0,0,0,.19l3.24,13.72a.19.19,0,0,0,.28.17l.19,0c.15,0,.21,0,.23-.35l0-2.7a2.9,2.9,0,0,1,2.27-2.77L952.08,327Z"/><path class="cls-1" d="M429.82,470.61l0,.15c3.8,0,15.84.41,21.1.36a8.85,8.85,0,0,0,2.56-.27c.69-.19,1-.74.53-2.5a.32.32,0,0,1,.17-.42c.19-.05.32.12.45.57.55,1.94.89,3.58,1,3.92s.65,1.87,1,3.06c.1.34.08.56-.08.6s-.34,0-.4-.26a5.17,5.17,0,0,0-.56-1.24c-.74-1-2.52-1.18-4.82-1.31-5.31-.31-18.52-.72-23.21-1-3.1-.19-3.61-.25-3.73-.67s.32-.75,1.66-1.7l19.11-13.48,0-.08c-4-.34-19.51-1.59-23.44-2-1.77-.16-2.25-.23-2.38-.69s.26-.69,2.63-2.19l20.67-13.18c1.85-1.18,2.28-1.84,2.38-2.94a6.5,6.5,0,0,0-.26-1.78c-.05-.19-.06-.35.17-.42s.33.15.44.53c.56,2,1,4.11,1.16,4.53s.69,2,1.23,3.89c.15.53.08.72-.07.76s-.32-.12-.38-.31a3.87,3.87,0,0,0-.65-1.42,1,1,0,0,0-1.05-.24,30.89,30.89,0,0,0-3.3,1.72c-2.28,1.26-15.14,9.19-17,10.33l0,.08,24,1.91c1.72.13,2,.23,2,.46s-.36.64-1.52,1.46Z"/><path class="cls-1" d="M454.37,512.75c-3.42,1.66-6.23,3-7.64,3.94-1,.61-1.66,1.2-1.28,2.34a17.2,17.2,0,0,0,.64,1.67c.1.21,0,.34-.08.39s-.37,0-.56-.44c-1-2-1.94-4.25-2-4.43s-1.29-2.37-1.81-3.44c-.19-.39-.21-.6,0-.71s.25,0,.35.18a6.1,6.1,0,0,0,.66,1c.49.64,1.36.44,2.46.08,1.58-.55,4.4-1.92,7.82-3.58l3.74-1.82a.23.23,0,0,0,.11-.32l-7.35-15.1a.21.21,0,0,0-.32-.11l-3.74,1.82c-3.42,1.66-6.23,3-7.64,3.94-1,.61-1.66,1.2-1.28,2.34a17.2,17.2,0,0,0,.64,1.67c.1.21,0,.34-.08.39s-.37,0-.56-.43c-1-2-1.94-4.25-2-4.43s-1.29-2.37-1.81-3.44c-.19-.39-.21-.6,0-.71s.25,0,.35.18a6.08,6.08,0,0,0,.66,1c.49.64,1.36.44,2.46.08,1.58-.55,4.4-1.92,7.82-3.58l6.27-3.05c5.56-2.7,6.55-3.19,7.66-3.81s1.61-1.22,1.29-2.52a7.43,7.43,0,0,0-.48-1.26c-.07-.14-.07-.32.08-.39s.37,0,.56.43c.78,1.6,1.76,3.9,1.85,4.08s1.29,2.37,1.81,3.44c.19.39.21.6,0,.71s-.28,0-.35-.18a5.79,5.79,0,0,0-.54-.84c-.65-.87-1.39-.87-2.67-.33s-2.17,1-7.73,3.67l-.75.36a.21.21,0,0,0-.11.32l7.35,15.1a.21.21,0,0,0,.32.11l.75-.36c5.56-2.7,6.55-3.19,7.66-3.81s1.61-1.22,1.29-2.52a7.4,7.4,0,0,0-.48-1.26.28.28,0,0,1,.08-.39c.21-.1.37,0,.56.43.78,1.6,1.76,3.9,1.85,4.08s1.29,2.37,1.81,3.44c.19.39.21.6,0,.71s-.28,0-.35-.18a5.88,5.88,0,0,0-.54-.84c-.65-.88-1.39-.87-2.67-.33s-2.17,1-7.73,3.67Z"/><path class="cls-1" d="M485.38,526.21c5.11,7.3,4.31,16-3.25,21.27-7.27,5.09-16.86,4.16-22.34-3.67-6.22-8.9-1.9-17.43,3.95-21.52C469,518.62,479.11,517.25,485.38,526.21Zm-23.74,17.62c2,2.92,8,7.78,17.4,1.17,7.79-5.45,8.66-13.12,5.08-18.25-3.79-5.42-10.2-7-17.31-2C459.24,530,457.55,538,461.64,543.83Z"/><path class="cls-1" d="M489.44,562c-4.31,3.92-6.08,5.74-6.13,6.74s.44,1.84,2.52,4.13c1.41,1.55,2.61,2.82,4.1,2.75a5.51,5.51,0,0,0,2.45-.84c.26-.18.46-.26.62-.08s0,.28-.28.58a25.32,25.32,0,0,1-3.33,2.22c-.86.41-1.06.43-2.47-1.13-1.92-2.11-3.24-3.69-4.33-4.95s-1.86-2.22-2.63-3.07c-.11-.12-.59-.59-1.12-1.18s-1.18-1.18-1.58-1.62-.37-.52-.19-.68.23-.1.39.07a6,6,0,0,0,.92.77c.65.48,1.43,0,2.39-.61,1.36-1,3.68-3.08,6.5-5.63l5.16-4.69c4.57-4.15,5.39-4.9,6.28-5.81s1.2-1.62.53-2.78a7.31,7.31,0,0,0-.82-1.08.28.28,0,0,1,0-.39c.18-.16.37-.07.66.26,1.2,1.32,2.79,3.25,2.92,3.39s2.17,2.21,3,3.09c.29.32.37.52.19.68s-.28,0-.39-.07a9.23,9.23,0,0,0-1-.89c-.92-.72-1.63-.5-2.71.37s-1.81,1.54-6.39,5.69Z"/><path class="cls-1" d="M511.23,574.11c4.1-4.62,4.84-5.45,5.62-6.45s1-1.74.23-2.82a7.47,7.47,0,0,0-.93-1c-.12-.11-.19-.27-.08-.39s.36-.11.68.18c.68.6,1.48,1.31,2.11,1.92l1.16,1.14c.21.18,6.1,5.42,6.81,6a10.57,10.57,0,0,0,1.4,1c.17.1.4.09.55.22s0,.22-.12.37-.65.43-1.47,1.18c-.29.27-1.51,1.52-1.88,1.82-.16.12-.38.25-.5.14s-.11-.36.11-.6a4.26,4.26,0,0,0,.77-1.22c.21-.66.23-1.28-1.21-2.87-.45-.51-3.65-3.4-4-3.69-.12-.11-.26-.07-.44.14l-7.26,8.18c-.18.21-.23.32-.09.45.39.34,4,3.58,4.76,4.12s1.23.88,1.76.82.67-.1.79,0,.1.19-.06.37-.75.55-1.71,1.45c-.59.54-1.62,1.58-1.8,1.79s-.5.56-.71.38-.1-.3,0-.45a4.06,4.06,0,0,0,.75-1.08c.25-.52.43-1.26-.62-2.4-.72-.8-3.6-3.46-4.1-3.91a.25.25,0,0,0-.39,0l-2.31,2.61c-.89,1-4,4.42-4.5,5.07-1.72,2.12-1.62,2.9,1.28,5.48a11.37,11.37,0,0,0,3.13,2.2c1.06.36,1.94.08,3.23-.95.35-.27.51-.34.66-.21s0,.39-.22.6a38.72,38.72,0,0,1-2.93,2.53c-.89.59-1.13.38-2.28-.65-2.22-2-3.8-3.48-4.93-4.53s-1.79-1.75-2.23-2.14c-.06-.05-.56-.5-1.21-1s-1.33-1.07-1.77-1.47-.42-.48-.26-.66.22-.13.39,0a6.12,6.12,0,0,0,1,.67c.7.41,1.42-.11,2.3-.87,1.25-1.11,3.33-3.45,5.85-6.3Z"/><path class="cls-1" d="M520.08,604.86c-.29-.55-.23-.7.39-1.57,1.15-1.61,2.2-2.81,2.6-3.3.29-.33.46-.45.63-.33s.16.26,0,.52a7,7,0,0,0-.76,1.26c-1.22,2.73.27,5.15,2.43,6.69a5.29,5.29,0,0,0,7.67-1c1.59-2.23,1.57-4.18.43-8.45l-.6-2.23c-1.42-5.24-.76-7.79.8-10,2.46-3.45,6.72-4,10.82-1a15.39,15.39,0,0,1,2.77,2.46,6.44,6.44,0,0,0,1,1c.26.18.28.29.16.46s-1,1.13-2.57,3.33c-.37.52-.59.7-.75.58s-.11-.32,0-.6a6.93,6.93,0,0,0,.73-1.91c.06-.49.16-2.47-2.81-4.58-2.22-1.59-5-1.44-6.63.91-1.31,1.84-1.3,3.6.07,8.22l.4,1.35c1.67,5.71,1.14,8.36-.7,10.94a8.2,8.2,0,0,1-6.56,3.4,10.41,10.41,0,0,1-5.83-2.12A12,12,0,0,1,520.08,604.86Z"/><path class="cls-1" d="M564.39,599.77c1-.91,1.3-1,1.51-.93s.25.37.07,1.67c-.21,1.6-2.7,18.93-3.51,25.37-.46,3.78.24,4.89.85,5.5a5.11,5.11,0,0,0,1.27,1c.21.12.33.23.23.4s-.47.1-.85-.11-3-1.69-5.4-3.08c-.64-.4-1-.61-.91-.82s.22-.15.38-.11.63-.15.73-.82l1.5-10.31a.35.35,0,0,0-.2-.38L552.62,613a.42.42,0,0,0-.5.09l-5.48,5a8.36,8.36,0,0,0-1.77,2.05c-.38.69.17,1.41.76,1.73l.35.19c.24.13.31.26.23.4s-.36.16-.67,0c-.83-.46-2.26-1.39-2.64-1.6s-2.35-1.16-4-2.07c-.45-.25-.62-.43-.5-.64s.25-.13.43,0,.75.37,1,.49c1.71.68,3.13-.26,4.72-1.64Zm-4.08,15.86c.17.1.23,0,.27-.17l1.89-11.18q.17-.92-.52-.29l-8.23,7.67c-.17.13-.13.24,0,.3Z"/><path class="cls-1" d="M582.58,628.11c-2.21,5.38-3,7.79-2.64,8.72s1.19,1.47,4,2.65c1.94.8,3.57,1.42,4.88.72a5.52,5.52,0,0,0,1.86-1.81c.16-.28.3-.43.52-.34s.16.24,0,.64a25.37,25.37,0,0,1-2.05,3.44c-.6.74-.77.84-2.71,0-2.64-1.08-4.51-1.94-6-2.61s-2.63-1.21-3.69-1.65c-.15-.06-.78-.28-1.52-.58s-1.57-.56-2.12-.78-.56-.31-.47-.53.16-.19.38-.1a6.11,6.11,0,0,0,1.16.3c.79.15,1.31-.58,1.89-1.58.82-1.46,2-4.36,3.45-7.87l2.65-6.45c2.35-5.71,2.77-6.74,3.18-7.94s.39-2-.72-2.73a7.45,7.45,0,0,0-1.2-.62c-.15-.06-.26-.19-.2-.34s.3-.22.71,0c1.65.68,3.91,1.74,4.09,1.81s2.9,1.06,4,1.51c.4.17.56.31.47.53s-.24.16-.38.1a9.38,9.38,0,0,0-1.25-.39c-1.14-.25-1.69.25-2.29,1.5s-1,2.17-3.32,7.88Z"/><path class="cls-1" d="M607.47,629.69c1.71-5.94,2-7,2.29-8.24s.17-2-1-2.64a7.42,7.42,0,0,0-1.26-.49c-.15,0-.28-.16-.24-.32s.28-.25.7-.13c.87.25,1.9.55,2.73.83l1.54.53c.27.08,7.84,2.26,8.73,2.47a10.6,10.6,0,0,0,1.69.28c.2,0,.4-.09.59,0s.11.2.05.39-.4.67-.82,1.7c-.15.37-.71,2-.91,2.46-.09.18-.23.39-.39.34s-.25-.28-.16-.58a4.24,4.24,0,0,0,.17-1.44c-.09-.69-.34-1.25-2.33-2.07-.62-.26-4.76-1.5-5.18-1.62-.15,0-.26,0-.34.31l-3,10.5c-.08.27-.07.39.12.45.49.14,5.18,1.49,6.07,1.67s1.49.26,1.94,0,.56-.37.71-.33.17.13.1.36-.44.82-.92,2c-.3.74-.78,2.12-.85,2.39s-.21.72-.47.65-.22-.23-.17-.42a4,4,0,0,0,.21-1.3c0-.58-.15-1.32-1.59-1.9-1-.41-4.74-1.57-5.39-1.76a.25.25,0,0,0-.34.19l-1,3.35c-.37,1.29-1.68,5.7-1.88,6.51-.64,2.66-.21,3.32,3.52,4.39a11.35,11.35,0,0,0,3.77.63c1.11-.13,1.79-.76,2.5-2.25.2-.4.32-.53.51-.47s.14.37.06.64-1.14,2.8-1.56,3.55c-.55.91-.86.82-2.34.4-2.86-.82-4.93-1.5-6.4-2s-2.37-.81-2.94-1c-.08,0-.72-.21-1.53-.4s-1.66-.4-2.23-.56c-.42-.12-.59-.25-.52-.48s.14-.21.37-.14a6.14,6.14,0,0,0,1.19.18c.81.07,1.24-.72,1.71-1.78.65-1.54,1.52-4.55,2.57-8.2Z"/><path class="cls-1" d="M649.51,653.8a15.17,15.17,0,0,1-3.73-12.11,15.81,15.81,0,0,1,5.38-10.38c2.58-2.16,6.34-3.69,12.41-3.14a34,34,0,0,1,5.68,1,34.46,34.46,0,0,0,4,1c.43.08.5.24.47.48s-.19.78-.4,2.19-.39,3.47-.48,4.05-.19.82-.43.8-.29-.3-.24-.86a5.48,5.48,0,0,0-1.3-4.17c-1.27-1.31-4.22-2.64-7.69-3-5.25-.47-7.83.85-9.33,2.07-3.13,2.5-4.11,6-4.47,10a14.31,14.31,0,0,0,12.95,15.72c3,.26,5.32.12,7-1.36a7.54,7.54,0,0,0,1.76-3.18c.12-.43.21-.58.45-.56s.25.3.22.62a40.93,40.93,0,0,1-1.32,5c-.3.73-.39.8-1.13,1.05a23,23,0,0,1-7.18.27C656.23,658.7,652.38,656.88,649.51,653.8Z"/><path class="cls-1" d="M685.9,641c-.28-6.17-.33-7.28-.46-8.54s-.48-2-1.8-2.18a7.45,7.45,0,0,0-1.35-.06c-.16,0-.32-.06-.33-.22s.18-.33.62-.35c1.78-.08,4.28-.07,4.48-.08.44,0,3.44-.27,4.66-.33,2.49-.11,5.15,0,7.32,1.42a6.93,6.93,0,0,1,3,5.26c.13,2.93-1,5.91-4.38,9.35,3.43,4,6.28,7.41,8.68,9.76a8.19,8.19,0,0,0,5,2.63,9.5,9.5,0,0,0,1.55,0c.2,0,.36.1.37.22s-.22.33-.94.36l-2.81.13a8.06,8.06,0,0,1-4.27-.56c-1.74-.83-3.21-2.71-5.6-5.58-1.76-2.1-3.74-4.67-4.58-5.66a.64.64,0,0,0-.52-.21l-4.87.14c-.2,0-.27.13-.26.33l0,.95c.17,3.8.31,6.92.58,8.58.17,1.14.45,2,1.64,2.11a17.25,17.25,0,0,0,1.79.08c.24,0,.32.1.33.22s-.18.33-.62.34c-2.18.1-4.67.09-4.87.1,0,0-2.53.23-3.71.29-.44,0-.64-.05-.65-.29s.07-.24.31-.25a6.13,6.13,0,0,0,1.18-.21c.78-.19.94-1.07,1-2.23.12-1.67,0-4.8-.19-8.59Zm3.32,3.3a.52.52,0,0,0,.3.46,10.92,10.92,0,0,0,4.18.45,5.13,5.13,0,0,0,2.93-.88c1.34-1,2.27-3.19,2.14-6.2-.22-4.95-3-7.8-7.2-7.61a12,12,0,0,0-2.64.36.48.48,0,0,0-.3.49Z"/><path class="cls-1" d="M723.16,627c.24-1.37.36-1.63.59-1.67s.42.13,1.1,1.25c.84,1.38,9.79,16.42,13.2,21.94,2,3.23,3.25,3.65,4.11,3.74a5.13,5.13,0,0,0,1.6,0c.23,0,.4,0,.43.17s-.3.37-.73.45c-.59.1-3.43.6-6.14,1-.75.09-1.18.17-1.22-.07s.08-.25.23-.32.39-.51.05-1.09l-5.31-9a.35.35,0,0,0-.39-.17l-8.39,1.47a.42.42,0,0,0-.33.38l-1.13,7.32a8.36,8.36,0,0,0-.09,2.71c.14.78,1,1,1.68.87l.39-.07c.27,0,.4,0,.43.17s-.18.35-.53.41c-.94.16-2.63.34-3.06.41s-2.56.57-4.39.89c-.51.09-.76.05-.8-.18s.11-.26.31-.3.81-.18,1.12-.28c1.75-.55,2.27-2.17,2.64-4.24Zm6.79,14.9c.2,0,.17-.15.11-.3l-5.55-9.89q-.45-.83-.59.1l-1.59,11.13c0,.21,0,.27.16.25Z"/><path class="cls-1" d="M749.91,631.79c-1.76-5.92-2.08-7-2.52-8.18s-.95-1.79-2.28-1.68a7.41,7.41,0,0,0-1.32.27c-.15,0-.33,0-.37-.14s.1-.36.52-.48c.87-.26,1.9-.57,2.74-.78l1.57-.43c.76-.23,8.48-2.48,9.34-2.78a8.74,8.74,0,0,0,1.63-.65c.21-.14.31-.34.46-.39s.27.08.33.27,0,.78.23,1.87c.08.39.5,2.08.56,2.56,0,.2,0,.45-.18.51s-.32-.11-.4-.38a4.26,4.26,0,0,0-.77-1.34,3,3,0,0,0-2.94-.45l-5.88,1.63c-.23.07-.31.22-.22.52l3.12,10.48c.07.23.14.33.37.26l4.85-1.49c.65-.19,1.18-.35,1.7-.55.89-.35,1.35-.61,1.54-1.2.09-.24.15-.46.3-.5s.22.06.28.25.07.93.33,2.22c.15.78.53,2.32.61,2.59s.22.72-.05.8-.31-.07-.37-.26a6.67,6.67,0,0,0-.64-1.3,2.4,2.4,0,0,0-2.38-.78c-1,.17-5.12,1.4-5.77,1.59-.19.06-.24.16-.16.42l1,3.23c1.09,3.64,2,6.64,2.64,8.18.44,1.07.92,1.83,2.1,1.65a17.14,17.14,0,0,0,1.75-.36c.23-.07.34,0,.37.14s-.1.36-.52.48c-2.09.62-4.51,1.22-4.7,1.28s-2.55.88-3.69,1.22c-.42.12-.63.11-.7-.12s0-.25.24-.32a6.1,6.1,0,0,0,1.09-.49c.71-.38.65-1.27.48-2.42-.28-1.65-1.18-4.65-2.26-8.29Z"/><path class="cls-1" d="M786,626.3c1.5,3.49,2.73,6.37,3.57,7.82.56,1,1.12,1.72,2.28,1.39a17.41,17.41,0,0,0,1.7-.56c.22-.09.34,0,.39.09s-.06.37-.46.54c-2,.86-4.34,1.73-4.52,1.81s-2.43,1.17-3.52,1.64c-.4.17-.61.18-.71,0s0-.25.2-.34a6.11,6.11,0,0,0,1-.61c.67-.46.5-1.34.2-2.45-.47-1.61-1.71-4.48-3.21-8l-6.61-15.39L771,614.6c-2.24,1-3,1.63-3.21,2.76a7,7,0,0,0-.13,1.39c0,.34-.06.46-.21.52s-.23,0-.32-.25-.77-3.81-.82-4.13-.08-.79.07-.85a7.4,7.4,0,0,0,1.79-.25c1.1-.34,2.52-.86,3-1.05l13.65-5.86a15.81,15.81,0,0,0,2.51-1.29c.51-.31.8-.56.94-.62s.28.14.37.36c.47,1.09,1.44,3.65,1.61,4.05s.09.52-.05.58-.3,0-.56-.49l-.21-.38c-.58-1-1.81-1.51-5.34-.08l-4.62,1.9Z"/><path class="cls-1" d="M825.35,618c-.62.07-.74,0-1.33-.93-1.09-1.65-1.83-3.06-2.15-3.61-.21-.39-.25-.59-.09-.7s.3-.05.47.21a7,7,0,0,0,.91,1.16c2.11,2.12,4.9,1.6,7.12.14a5.29,5.29,0,0,0,1.82-7.52c-1.51-2.28-3.34-3-7.73-3.44l-2.3-.24c-5.4-.56-7.55-2.08-9-4.33-2.34-3.54-1.29-7.7,2.91-10.47a15.38,15.38,0,0,1,3.29-1.7,6.46,6.46,0,0,0,1.27-.6c.26-.17.37-.15.48,0s.7,1.34,2.18,3.59c.35.53.44.8.27.91s-.34,0-.55-.25a7,7,0,0,0-1.52-1.37c-.44-.23-2.25-1-5.29,1-2.28,1.51-3.13,4.11-1.53,6.52,1.25,1.88,2.89,2.51,7.7,2.89l1.41.12c5.93.5,8.21,1.93,10,4.58a8.21,8.21,0,0,1,.82,7.34,10.41,10.41,0,0,1-4.07,4.69A12,12,0,0,1,825.35,618Z"/><path class="cls-1" d="M837.16,588.09c-4-4.7-4.74-5.54-5.62-6.45s-1.59-1.25-2.76-.61a7.41,7.41,0,0,0-1.1.78.28.28,0,0,1-.4,0c-.15-.18-.06-.37.28-.66,1.35-1.16,3.27-2.64,3.54-2.87s2-1.87,2.9-2.63c.33-.28.53-.35.69-.17s0,.28-.09.39a5.92,5.92,0,0,0-.67.73c-.71.82-.49,1.56.35,2.67s1.48,1.86,5.5,6.55l3.6,4.22c3.71,4.34,6.27,5.38,8.62,5.51a7.75,7.75,0,0,0,6-2.23,8.32,8.32,0,0,0,2.87-6.21c-.08-2.9-1.91-5.77-4.56-8.87l-3.22-3.76c-4-4.7-4.74-5.54-5.62-6.45s-1.59-1.25-2.76-.61a7.41,7.41,0,0,0-1.1.78.28.28,0,0,1-.4,0c-.15-.18-.06-.37.28-.66,1.35-1.16,3.09-2.48,3.27-2.64s1.55-1.48,2.45-2.25c.33-.28.53-.35.69-.17s0,.28-.09.39a5.83,5.83,0,0,0-.68.73c-.66.88-.49,1.56.35,2.67s1.48,1.86,5.5,6.55l2.75,3.22c2.78,3.25,5.51,7.17,4.93,11.37a11.6,11.6,0,0,1-4.3,7.53c-1,.88-4.17,3.35-8,3.16-2.69-.15-5.63-1.28-9.39-5.68Z"/><path class="cls-1" d="M865.64,561.93c-4.59-4.14-5.41-4.89-6.4-5.68s-1.73-1-2.82-.25a7.42,7.42,0,0,0-1,.92c-.11.12-.27.18-.39.08s-.1-.36.19-.68c1.19-1.32,2.88-3,3.09-3.24.58-.65,2-2.43,3.26-3.79,3.32-3.68,5.75-3.88,6.62-4A6.88,6.88,0,0,1,873,547c4.17,3.77,4.24,9.38.46,13.55a5.76,5.76,0,0,1-.59.59c-.13.15-.35.27-.5.14s-.11-.42.45-1a6.58,6.58,0,0,0-.2-9.42,8.4,8.4,0,0,0-6-2.44,6.88,6.88,0,0,0-5.11,2.7,4.87,4.87,0,0,0-1,1.42c-.1.23.05.47.35.74L873,564.19c2.82,2.55,5.14,4.65,6.51,5.62.93.68,1.74,1.09,2.65.31a17.1,17.1,0,0,0,1.31-1.22c.16-.18.3-.16.39-.08s.1.36-.19.69c-1.46,1.62-3.22,3.39-3.35,3.54s-1.67,2-2.46,2.9c-.29.32-.48.42-.66.26s-.12-.22,0-.39a6.16,6.16,0,0,0,.68-1c.41-.69-.1-1.43-.85-2.31-1.1-1.26-3.42-3.36-6.25-5.91Z"/><path class="cls-1" d="M883.94,540.25c-5-3.6-5.92-4.25-7-4.93s-1.84-.83-2.83.07a7.41,7.41,0,0,0-.88,1c-.09.13-.25.21-.38.12s-.14-.35.11-.7c1-1.45,2.52-3.31,2.71-3.57.51-.71,1.75-2.64,2.81-4.12,2.89-4,5.28-4.5,6.13-4.67a6.88,6.88,0,0,1,5,1.14c4.57,3.28,5.26,8.84,2,13.41a5.73,5.73,0,0,1-.52.65c-.12.16-.32.31-.48.19s-.15-.4.33-1.08a6.58,6.58,0,0,0-1.25-9.33,8.4,8.4,0,0,0-6.25-1.75,6.88,6.88,0,0,0-4.77,3.25,4.86,4.86,0,0,0-.8,1.52c-.07.24.1.47.43.7l13.23,9.49c3.09,2.22,5.63,4,7.1,4.85,1,.57,1.85.89,2.67,0a17.43,17.43,0,0,0,1.17-1.36c.14-.19.28-.19.38-.12s.14.35-.11.7c-1.27,1.77-2.82,3.73-2.94,3.89s-1.43,2.19-2.12,3.16c-.25.35-.43.47-.63.33s-.15-.2,0-.4a6,6,0,0,0,.56-1.06c.33-.74-.26-1.4-1.1-2.2-1.24-1.13-3.78-3-6.87-5.17Z"/><path class="cls-1" d="M907.45,517.23c5.07,2.86,7.36,4,8.33,3.7s1.61-1,3.13-3.69c1-1.83,1.86-3.36,1.32-4.76a5.52,5.52,0,0,0-1.56-2.07c-.26-.19-.39-.36-.27-.56s.25-.13.63.08a25.2,25.2,0,0,1,3.16,2.47c.66.69.74.87-.3,2.7-1.4,2.48-2.48,4.24-3.34,5.67s-1.53,2.46-2.09,3.46c-.08.14-.38.74-.77,1.43s-.75,1.49-1,2-.38.51-.59.4-.17-.19-.05-.39a6.08,6.08,0,0,0,.45-1.11c.25-.77-.41-1.37-1.33-2.07-1.35-1-4.08-2.53-7.39-4.4l-6.07-3.43c-5.38-3-6.35-3.59-7.49-4.14s-1.92-.63-2.8.37a7.42,7.42,0,0,0-.77,1.11c-.08.14-.23.24-.36.16s-.18-.33,0-.71c.88-1.55,2.21-3.67,2.31-3.84s1.42-2.75,2-3.79c.22-.38.38-.51.59-.4a.28.28,0,0,1,.05.39,9.24,9.24,0,0,0-.54,1.2c-.39,1.1,0,1.71,1.21,2.46s2,1.24,7.41,4.28Z"/><path class="cls-1" d="M919.81,492.49c3.47,1.55,6.33,2.82,7.93,3.31,1.1.36,2,.5,2.62-.53a17.32,17.32,0,0,0,.87-1.56c.1-.22.24-.24.35-.19s.21.31,0,.71c-.89,2-2,4.22-2.09,4.4s-1,2.51-1.47,3.6c-.18.4-.33.55-.55.45s-.19-.17-.09-.39a6.1,6.1,0,0,0,.34-1.15c.18-.79-.54-1.32-1.52-1.94-1.44-.86-4.3-2.13-7.77-3.68l-6.37-2.83c-5.65-2.51-6.66-3-7.85-3.41s-2-.39-2.57.33a5.22,5.22,0,0,0-.64,1.06c-.06.14-.2.26-.35.19s-.21-.31,0-.71c.53-1.19,1.66-3.43,1.74-3.61s1-2.51,1.47-3.59c.18-.4.33-.55.55-.45s.15.24.09.39a5.88,5.88,0,0,0-.29,1c-.25,1.06.23,1.62,1.47,2.26s2.14,1,7.78,3.55Z"/><path class="cls-1" d="M920,473.28c-5.86-2-6.92-2.3-8.14-2.63s-2-.25-2.68.9a7.43,7.43,0,0,0-.54,1.24c-.05.15-.17.28-.33.23s-.24-.29-.1-.7c.29-.86.63-1.88.94-2.69l.59-1.52c.09-.26,2.58-7.74,2.83-8.62a10.59,10.59,0,0,0,.35-1.68c0-.2-.08-.4,0-.59s.2-.1.39,0,.65.43,1.67.89c.36.16,2,.79,2.42,1,.17.1.38.25.33.4s-.29.24-.59.14a4.25,4.25,0,0,0-1.43-.22c-.69.06-1.27.29-2.17,2.24-.29.61-1.69,4.7-1.83,5.11-.05.15,0,.26.3.35l10.37,3.45c.26.09.39.09.45-.1.16-.49,1.7-5.11,1.91-6s.32-1.48.06-1.94-.35-.58-.3-.73.14-.16.36-.09.8.48,2,1c.73.33,2.09.86,2.36,1s.71.24.63.5-.24.21-.43.15a4,4,0,0,0-1.29-.26c-.58,0-1.33.1-2,1.52-.45,1-1.76,4.67-2,5.31a.25.25,0,0,0,.18.35l3.31,1.1c1.28.43,5.63,1.91,6.43,2.14,2.63.75,3.31.35,4.53-3.33a11.39,11.39,0,0,0,.79-3.75c-.09-1.11-.69-1.82-2.14-2.59-.39-.21-.51-.34-.45-.53s.38-.13.64,0a38.71,38.71,0,0,1,3.48,1.7c.89.59.79.89.3,2.35-.94,2.82-1.7,4.86-2.23,6.31s-.9,2.33-1.09,2.89c0,.07-.24.71-.46,1.52s-.46,1.64-.65,2.2c-.14.41-.28.58-.5.5s-.2-.15-.13-.38a6.1,6.1,0,0,0,.22-1.18c.1-.8-.66-1.27-1.7-1.78-1.52-.71-4.49-1.7-8.09-2.9Z"/><path class="cls-1" d="M944.77,453c-.39.48-.55.49-1.6.26-1.93-.42-3.45-.91-4.06-1.08-.42-.13-.59-.25-.55-.44s.17-.25.48-.18a7,7,0,0,0,1.46.2c3,0,4.63-2.28,5.19-4.87a5.29,5.29,0,0,0-3.95-6.65c-2.67-.58-4.46.21-7.93,2.94L932,444.58c-4.26,3.37-6.86,3.78-9.49,3.21-4.14-.9-6.29-4.61-5.23-9.52a15.35,15.35,0,0,1,1.17-3.52,6.46,6.46,0,0,0,.49-1.31c.07-.31.16-.37.35-.33s1.44.47,4.07,1c.62.13.87.27.83.46s-.25.23-.57.2a7,7,0,0,0-2,.08c-.48.14-2.33.83-3.1,4.39-.58,2.67.63,5.12,3.46,5.74,2.21.48,3.82-.22,7.53-3.31l1.09-.9c4.59-3.78,7.23-4.35,10.32-3.67a8.2,8.2,0,0,1,5.71,4.69,10.41,10.41,0,0,1,.36,6.2A12,12,0,0,1,944.77,453Z"/></svg>