<?xml version="1.0" standalone="no"?>
<!DOCTYPE svg PUBLIC "-//W3C//DTD SVG 20010904//EN"
 "http://www.w3.org/TR/2001/REC-SVG-20010904/DTD/svg10.dtd">
<svg version="1.0" xmlns="http://www.w3.org/2000/svg"
 width="120.000000pt" height="41.000000pt" viewBox="0 0 120.000000 41.000000"
 preserveAspectRatio="xMidYMid meet">
<metadata>
Created by potrace 1.15, written by Peter Selinger 2001-2017
</metadata>
<g transform="translate(0.000000,41.000000) scale(0.100000,-0.100000)"
fill="#000000" stroke="none">
<path d="M30 350 l-35 -29 27 -1 c30 0 30 1 48 -104 5 -32 7 -68 5 -80 -5 -18
8 -28 90 -71 81 -42 98 -48 105 -35 5 9 36 29 69 45 34 16 61 32 61 36 0 4
-12 10 -27 13 -107 26 -103 24 -103 66 0 36 4 41 70 89 39 28 70 53 70 56 0 3
-40 5 -89 5 l-89 0 -29 -39 -28 -39 -45 59 c-24 32 -49 59 -55 59 -6 0 -26
-13 -45 -30z m299 -43 c-9 -7 -55 -40 -103 -75 -81 -59 -102 -82 -73 -82 6 0
30 14 51 30 22 17 41 28 44 26 2 -3 1 -36 -3 -75 l-7 -70 -64 32 c-35 17 -63
35 -62 39 2 4 34 48 73 98 l69 90 46 0 c38 -1 42 -3 29 -13z"/>
<path d="M466 294 c-22 -21 -20 -67 2 -87 22 -20 63 -22 80 -5 9 9 12 9 12 0
0 -7 9 -12 20 -12 14 0 20 7 21 23 l0 22 16 -22 c18 -27 80 -32 89 -8 8 19 34
19 34 0 0 -11 11 -15 40 -15 33 0 40 3 40 20 0 13 7 20 20 20 13 0 20 7 20 19
0 14 -5 18 -20 14 -11 -3 -20 0 -20 6 0 6 17 11 40 11 l40 0 0 -45 c0 -38 3
-45 20 -45 17 0 20 7 20 45 0 33 4 45 15 45 8 0 15 7 15 15 0 12 -17 15 -95
15 l-95 0 -1 -47 -1 -48 -16 48 c-12 38 -20 47 -38 47 -19 0 -26 -10 -40 -55
-17 -53 -19 -55 -30 -33 -7 13 -9 29 -4 38 15 28 -8 50 -50 50 -25 0 -40 -5
-40 -12 0 -9 -3 -9 -12 0 -17 17 -64 15 -82 -4z"/>
<path d="M450 120 c0 -53 2 -60 20 -60 15 0 20 7 20 25 0 16 6 25 15 25 9 0
15 -9 15 -25 0 -22 4 -25 40 -25 29 0 40 4 40 15 0 19 29 19 36 0 4 -10 20
-15 45 -15 34 0 39 3 40 23 l0 22 16 -23 c27 -39 56 -25 34 17 -6 10 -6 23 -1
31 16 26 -8 50 -50 50 l-40 0 -1 -52 0 -53 -20 53 c-17 43 -25 53 -42 50 -14
-2 -25 -17 -38 -53 l-17 -50 -1 53 c-1 45 -4 52 -21 52 -13 0 -20 -7 -20 -20
0 -11 -7 -20 -15 -20 -8 0 -15 9 -15 20 0 13 -7 20 -20 20 -18 0 -20 -7 -20
-60z"/>
<path d="M786 158 c24 -79 32 -93 51 -96 16 -2 24 8 41 50 l21 53 0 -52 1 -53
45 0 c28 0 45 4 45 12 0 9 3 9 12 0 15 -15 61 -15 76 0 17 17 15 48 -5 55 -15
6 -15 7 3 14 38 15 44 10 44 -36 0 -38 3 -45 20 -45 17 0 20 7 20 45 0 33 4
45 15 45 8 0 15 7 15 15 0 12 -16 15 -87 14 -49 0 -94 -5 -100 -11 -9 -7 -13
-7 -13 1 0 7 -23 11 -64 11 -63 0 -64 0 -76 -32 l-13 -33 -10 33 c-7 21 -16
32 -29 32 -15 0 -18 -5 -12 -22z"/>
</g>
</svg>
