<?xml version="1.0" encoding="UTF-8" standalone="no"?>
<svg
   xmlns:dc="http://purl.org/dc/elements/1.1/"
   xmlns:cc="http://creativecommons.org/ns#"
   xmlns:rdf="http://www.w3.org/1999/02/22-rdf-syntax-ns#"
   xmlns:svg="http://www.w3.org/2000/svg"
   xmlns="http://www.w3.org/2000/svg"
   xmlns:sodipodi="http://sodipodi.sourceforge.net/DTD/sodipodi-0.dtd"
   xmlns:inkscape="http://www.inkscape.org/namespaces/inkscape"
   id="Layer_1"
   data-name="Layer 1"
   viewBox="0 0 1036.8 143.99999"
   version="1.1"
   sodipodi:docname="landing-page-logo.svg"
   inkscape:version="0.92.4 (33fec40, 2019-01-16)"
   width="10.8in"
   height="1.5in">
  <metadata
     id="metadata3991">
    <rdf:RDF>
      <cc:Work
         rdf:about="">
        <dc:format>image/svg+xml</dc:format>
        <dc:type
           rdf:resource="http://purl.org/dc/dcmitype/StillImage" />
        <dc:title>1</dc:title>
      </cc:Work>
    </rdf:RDF>
  </metadata>
  <sodipodi:namedview
     pagecolor="#ffffff"
     bordercolor="#666666"
     borderopacity="1"
     objecttolerance="10"
     gridtolerance="10"
     guidetolerance="10"
     inkscape:pageopacity="0"
     inkscape:pageshadow="2"
     inkscape:window-width="1853"
     inkscape:window-height="1025"
     id="namedview3989"
     showgrid="false"
     inkscape:zoom="1.0924479"
     inkscape:cx="683"
     inkscape:cy="17.849821"
     inkscape:window-x="67"
     inkscape:window-y="27"
     inkscape:window-maximized="1"
     inkscape:current-layer="Layer_1"
     inkscape:snap-grids="true"
     inkscape:snap-to-guides="true"
     inkscape:snap-page="false"
     inkscape:pagecheckerboard="true"
     showborder="true"
     units="in"
     height="2.73958in" />
  <defs
     id="defs3882">
    <style
       id="style3880">.cls-1{fill:#606060;}</style>
  </defs>
  <title
     id="title3884">1</title>
  <path
     class="cls-1"
     d="m 183.4772,84.16443 q 0.45,1.05 1.86,6 a 18.62,18.62 0 0 1 0.67,4.77 h -3.19 a 23.23,23.23 0 0 0 -6.94,-6.85 15.57,15.57 0 0 0 -8,-2.09 10.62,10.62 0 0 0 -8.77,4.24 q -4.52,5.75 -4.52,16 a 32.36,32.36 0 0 0 0.77,8.49 22,22 0 0 0 3.19,6.7 10.37,10.37 0 0 0 3.86,3.12 14.25,14.25 0 0 0 6.59,1.58 13.27,13.27 0 0 0 7.45,-2.39 26.63,26.63 0 0 0 6.89,-7.15 21.24,21.24 0 0 1 3.4,-0.28 24.82,24.82 0 0 1 -0.45,2.76 q -0.11,0.56 -0.81,4.44 l -0.31,1 -0.52,1.7 a 14.89,14.89 0 0 1 -6,2.47 46.56,46.56 0 0 1 -9.52,0.82 39.81,39.81 0 0 1 -8.16,-0.8 19.54,19.54 0 0 1 -6.57,-2.56 24,24 0 0 1 -6.28,-5.47 20.65,20.65 0 0 1 -3.38,-6.42 25.56,25.56 0 0 1 -1.1,-7.78 q 0,-10.45 6.89,-17.25 6.89,-6.8 17.58,-6.8 a 71.61,71.61 0 0 1 8.19,0.44 50.94,50.94 0 0 1 7.18,1.31 z"
     id="path3886"
     inkscape:connector-curvature="0"
     style="fill:#606060" />
  <path
     class="cls-1"
     d="m 206.3672,126.66443 a 8,8 0 0 1 2.7,-0.72 14.83,14.83 0 0 0 3.23,-0.75 9.11,9.11 0 0 0 0.21,-1 q 0.07,-0.49 0.07,-3.37 v -7.82 l 0.14,-4.21 -0.07,-3.26 0.07,-1.89 q 0.11,-3.82 0.11,-7.15 0,-7.29 -0.17,-9.33 l -2.07,-0.42 a 37.72,37.72 0 0 1 -3.79,-0.35 l -0.07,-2.1 0.14,-0.38 a 20.36,20.36 0 0 1 3.23,-0.28 h 3.26 c 1.68,0.14 2.59,0.21 2.73,0.21 l 1.86,-0.1 4.39,-0.21 a 84.86,84.86 0 0 1 8.66,-0.42 q 7.19,0 11.43,3.67 4.24,3.67 4.24,8.4 a 10.1,10.1 0 0 1 -2.29,6.43 13.9,13.9 0 0 1 -7,4.37 20.26,20.26 0 0 0 1.12,1.72 q 1.46,2.1 2.37,3.58 l 5.59,9.08 a 27.13,27.13 0 0 0 2.75,4.23 8.51,8.51 0 0 0 2.68,1.35 11.15,11.15 0 0 1 2.42,1.19 3.23,3.23 0 0 1 0.21,1.05 q 0,0.32 0,0.81 h -0.95 -0.7 l -1.82,-0.24 h -1.44 a 18.28,18.28 0 0 0 -2.77,-0.18 h -3.51 c -0.26,0 -1.07,0.08 -2.45,0.24 l -1.51,0.18 -1.2,-2.31 q -1.47,-2.63 -2.07,-3.93 -1.54,-3.4 -5.29,-10.84 c -1.17,-2.29 -2,-3.59 -2.46,-3.89 a 6.56,6.56 0 0 0 -3.61,-0.74 c -0.47,0 -1.26,0 -2.38,0.07 a 24.06,24.06 0 0 0 -0.1,2.42 l 0.17,7.78 -0.21,6.59 a 7.89,7.89 0 0 0 2.56,0.91 28.67,28.67 0 0 1 4.7,1.33 17.42,17.42 0 0 1 -0.14,2.59 h -0.84 l -1.44,0.07 q -7.54,-0.66 -8.94,-0.66 c -0.61,0 -1,0 -1.3,0 l -4.84,0.32 a 37.08,37.08 0 0 1 -4,0.24 h -1.51 c 0,-0.58 -0.07,-1 -0.07,-1.12 a 8.45,8.45 0 0 1 -0.03,-1.16 z m 15.78,-22.69 q 1.68,0.07 2.45,0.07 6,0 8.45,-2.14 a 7.15,7.15 0 0 0 2.49,-5.72 13.7,13.7 0 0 0 -0.61,-4.15 7.31,7.31 0 0 0 -1.52,-2.89 8.11,8.11 0 0 0 -3.39,-2.07 16.66,16.66 0 0 0 -4.93,-0.52 19.11,19.11 0 0 0 -2.76,0.17 l -0.07,0.67 0.07,4.73 -0.11,2.88 v 3.82 q -0.07,1.61 -0.1,4.17 z"
     id="path3888"
     inkscape:connector-curvature="0"
     style="fill:#606060" />
  <path
     class="cls-1"
     d="m 266.9472,128.80443 0.07,-2.38 a 23.18,23.18 0 0 1 2.35,-0.52 10.94,10.94 0 0 0 3.28,-1 6.31,6.31 0 0 0 1.42,-2 l 7.08,-18.53 8.31,-21.79 h 3.81 l 0.31,0.63 6.1,14.45 q 2.06,4.6 3.71,8.93 1.65,4.33 2.83,7.06 0.7,1.65 1.93,4.95 a 47.11,47.11 0 0 0 1.93,4.49 5.38,5.38 0 0 0 1.05,1.72 4,4 0 0 0 2.05,0.7 13.26,13.26 0 0 1 3.07,0.81 12.57,12.57 0 0 1 0.18,1.72 c 0,0.17 0,0.42 0,0.77 q -2.6,0 -5.71,-0.24 -3.11,-0.24 -5.61,-0.25 c -1.85,0 -3.18,0 -4,0.07 l -6,0.32 -1.72,0.07 c 0,-0.82 0,-1.6 0.1,-2.35 l 3.89,-0.84 a 7.19,7.19 0 0 0 2,-0.7 1.11,1.11 0 0 0 0.35,-0.8 2.89,2.89 0 0 0 -0.17,-0.95 l -1.4,-3.44 -2.75,-6.87 h -13.39 q -0.74,1.68 -3.09,8.24 a 9.38,9.38 0 0 0 -0.67,2.52 1.55,1.55 0 0 0 0.49,1.3 6.34,6.34 0 0 0 3.09,0.94 q 0.32,0.07 2.49,0.39 c 0,0.84 0,1.42 0,1.75 a 4.75,4.75 0 0 1 -0.07,0.8 q -2.18,0 -10.38,-0.59 l -1.44,0.24 a 31,31 0 0 1 -4.95,0.42 z m 16.5,-19.71 q 8.19,0.11 9.66,0.11 h 0.88 q -1.05,-3.12 -2.74,-7.28 -1.69,-4.16 -2.73,-6.33 z"
     id="path3890"
     inkscape:connector-curvature="0"
     style="fill:#606060" />
  <path
     class="cls-1"
     d="m 331.4572,129.05443 0.07,-2.56 q 0.77,-0.18 2.56,-0.53 c 1.19,-0.23 2.38,-0.5 3.57,-0.8 l 0.67,-0.42 a 11.86,11.86 0 0 0 0.32,-2.84 v -0.21 l -0.14,-8.09 v -3.4 l -0.14,-5 0.07,-6 -0.42,-11.73 a 8.71,8.71 0 0 0 -3.4,-1 20.5,20.5 0 0 1 -2,-0.56 l -0.84,-0.21 v -2.45 l 4.63,0.17 q 4.2,0.42 12.37,0.42 4.1,0 8.55,-0.21 h 0.66 1.71 0.7 1.47 l 6.27,-0.21 a 10.9,10.9 0 0 0 1.1,-0.07 c 0.45,0 0.88,-0.08 1.28,-0.11 a 17.12,17.12 0 0 1 0.28,2.1 l 0.52,6.59 a 4.8,4.8 0 0 1 -0.21,1.61 14.93,14.93 0 0 1 -1.86,0.18 1.82,1.82 0 0 1 -1.12,-0.32 7.48,7.48 0 0 1 -0.8,-1.58 q -1.47,-3.54 -2.51,-4.19 -1.04,-0.65 -5.75,-0.65 l -4.84,0.14 a 31.29,31.29 0 0 0 -4.86,0.35 7.05,7.05 0 0 0 -1.12,0.35 4.16,4.16 0 0 0 -0.45,2.07 l 0.1,4.18 -0.1,4.78 a 23.27,23.27 0 0 0 0.24,4.5 1.5,1.5 0 0 0 0.52,0.25 h 2.48 4.2 a 39,39 0 0 0 4.3,-0.35 7,7 0 0 0 2.45,-0.56 3.21,3.21 0 0 0 1.21,-1.42 16.19,16.19 0 0 0 0.54,-4.19 h 0.94 0.67 c 0.25,0 0.77,0 1.54,0.11 l -0.21,5.61 c 0,1.19 -0.05,2.22 -0.11,3.09 l 0.07,0.77 q 0,0.35 0,5.19 c 0,0.21 0,0.56 0,1.05 a 5.67,5.67 0 0 1 -1.06,0.14 10.43,10.43 0 0 1 -1.38,-0.21 14.68,14.68 0 0 1 -0.7,-1.93 q -0.81,-2.77 -1.75,-3.23 -1.68,-0.84 -10.57,-0.84 a 21.83,21.83 0 0 0 -3,0.25 21,21 0 0 0 -0.24,3.4 l 0.21,10.42 q 0,2.91 0.63,3.58 a 6.13,6.13 0 0 0 2.63,0.84 l 0.7,0.07 a 13,13 0 0 1 2.77,0.46 l 0.95,0.21 a 7.83,7.83 0 0 1 0,2.77 h -0.67 -1.09 l -5,-0.28 q -0.84,0 -7.85,0 a 30.82,30.82 0 0 0 -3.68,0.21 q -2.77,0.32 -3,0.31 c -1.49,0.01 -2.52,0 -3.08,-0.02 z"
     id="path3892"
     inkscape:connector-curvature="0"
     style="fill:#606060" />
  <path
     class="cls-1"
     d="m 391.6472,81.46443 h 2.17 l 0.35,0.57 a 12.2,12.2 0 0 0 1.51,2.24 q 0.45,0.11 4.81,0.11 h 4.8 l 0.7,-0.08 h 4.24 7.93 10.83 l 2.07,-0.28 a 4,4 0 0 0 1,-1.7 l 0.38,-0.89 h 1.54 1.05 q 0,2.42 0,7.29 v 3.12 1.79 a 7.58,7.58 0 0 1 -0.14,1.58 12.64,12.64 0 0 1 -2.52,0.56 24.08,24.08 0 0 1 -2,-4 16.61,16.61 0 0 0 -1.35,-2.88 2,2 0 0 0 -1,-0.59 q -0.85,-0.18 -7.45,-0.18 -1,0 -2.46,0.14 a 18.17,18.17 0 0 0 -0.18,2.24 v 4.7 10.31 l 0.1,11.12 v 4.56 a 11.8,11.8 0 0 0 0.42,3.65 9.18,9.18 0 0 0 2.08,0.45 c 0.19,0 1.06,0.21 2.61,0.56 a 13.86,13.86 0 0 1 1.87,0.56 c 0.12,0.84 0.18,1.36 0.18,1.54 a 5.61,5.61 0 0 1 -0.1,0.91 c -0.52,0 -0.94,0 -1.26,0 a 61.11,61.11 0 0 1 -6.13,-0.26 q -2.52,-0.27 -9.15,-0.27 -1.05,0 -6.17,0.42 c -1.33,0.1 -2.2,0.14 -2.59,0.14 0,-0.35 0,-0.62 -0.07,-0.8 v -0.81 -0.28 a 5,5 0 0 1 2.91,-1.51 26.47,26.47 0 0 0 5,-1.58 4.41,4.41 0 0 0 0.42,-1.75 q 0.24,-4.21 0.25,-13.4 l -0.18,-13.25 a 56.67,56.67 0 0 0 -0.21,-6.63 0.76,0.76 0 0 0 -0.73,-0.67 q -1.09,-0.14 -7.09,-0.14 a 10.22,10.22 0 0 0 -4.41,0.63 q -1.51,0.88 -4.53,4.77 c -0.58,0.75 -1,1.12 -1.3,1.12 a 7.81,7.81 0 0 1 -2.07,-1.37 69.45,69.45 0 0 0 3,-9.12 q 0.59,-1.94 0.87,-2.64 z"
     id="path3894"
     inkscape:connector-curvature="0"
     style="fill:#606060" />
  <path
     class="cls-1"
     d="m 499.7572,104.36443 q -2.49,-2.87 -3.22,-3.89 a 9.45,9.45 0 0 1 -1.24,-2.51 9.21,9.21 0 0 1 -0.51,-3 8.9,8.9 0 0 1 2.13,-5.79 11.45,11.45 0 0 1 6.16,-3.65 6.29,6.29 0 0 0 0.94,-0.28 15.84,15.84 0 0 1 3.57,-0.24 11.45,11.45 0 0 1 7.88,2.58 7.67,7.67 0 0 1 2.91,5.84 8.48,8.48 0 0 1 -0.84,3.72 8.24,8.24 0 0 1 -2.83,2.81 17.1,17.1 0 0 1 -3.53,2 1.23,1.23 0 0 0 -0.66,0.42 30.41,30.41 0 0 0 3,3.19 32.24,32.24 0 0 1 2.31,2.59 l 4,4.91 a 14.66,14.66 0 0 0 1.12,1.37 19.12,19.12 0 0 0 3.36,-4.39 6.39,6.39 0 0 0 1,-2.67 2.23,2.23 0 0 0 -0.6,-1.42 4.71,4.71 0 0 0 -2,-1.25 l 0.14,-2.21 a 20.38,20.38 0 0 1 2.1,-0.39 q 2.41,-0.28 5.71,-0.45 l 2.56,-0.14 h 1.75 q 0.39,0 2.28,-0.21 a 8.82,8.82 0 0 0 -0.09,1 5.79,5.79 0 0 1 -0.12,1.05 l -0.11,0.63 a 28.23,28.23 0 0 0 -3.66,2 33.51,33.51 0 0 0 -4,3.84 q -1.75,1.83 -6.1,7.36 a 2.68,2.68 0 0 0 0.84,1.16 l 0.91,1 a 17.45,17.45 0 0 0 3.49,3.16 5.64,5.64 0 0 0 3,1.05 3,3 0 0 0 1.44,-0.28 13.93,13.93 0 0 0 2.64,-2.21 c 0.63,-0.68 1.12,-1 1.47,-1 a 1.66,1.66 0 0 1 1.2,0.48 1.52,1.52 0 0 1 0.49,1.14 7.23,7.23 0 0 1 -1.35,3.53 10.69,10.69 0 0 1 -4,3.63 10.11,10.11 0 0 1 -4.84,1 12.06,12.06 0 0 1 -5,-1.05 26.84,26.84 0 0 1 -6.63,-4.63 23.77,23.77 0 0 1 -15.36,5.72 q -7.23,0 -10.73,-3.19 a 10.52,10.52 0 0 1 -3.51,-8.14 11.94,11.94 0 0 1 1.44,-5.71 13.37,13.37 0 0 1 4.2,-4.65 27.38,27.38 0 0 1 5.11,-2.93 14.74,14.74 0 0 0 1.78,-0.9 z m 14.42,16.86 a 4.8,4.8 0 0 0 -0.72,-1 10.37,10.37 0 0 1 -0.79,-1 l -4.13,-5 q -3.19,-3.85 -6.47,-7.4 a 10,10 0 0 0 -4.06,2.89 6.53,6.53 0 0 0 -1.51,4.26 7.23,7.23 0 0 0 0.59,2.91 14.59,14.59 0 0 0 2.4,3.88 12.53,12.53 0 0 0 3.24,2.45 8.5,8.5 0 0 0 4.13,1.07 10.4,10.4 0 0 0 7.32,-3.06 z m -6.22,-21.42 a 6.94,6.94 0 0 0 3.17,-2.59 6.77,6.77 0 0 0 0.7,-3.44 13.15,13.15 0 0 0 -0.66,-3.37 3,3 0 0 0 -1.45,-1.49 5.52,5.52 0 0 0 -2.88,-0.72 4.73,4.73 0 0 0 -3.08,1.09 3.65,3.65 0 0 0 -1.33,3 5.27,5.27 0 0 0 0.94,2.84 22.45,22.45 0 0 0 4.59,4.68 z"
     id="path3896"
     inkscape:connector-curvature="0"
     style="fill:#606060" />
  <path
     class="cls-1"
     d="m 590.4472,128.70443 a 17.09,17.09 0 0 1 0.21,-2.49 l 4.43,-0.77 a 17.39,17.39 0 0 0 1.95,-0.56 l 0.46,-8.77 q -0.14,-4.73 -0.14,-7.08 v -0.84 q 0.11,-1.43 0.11,-7.22 l -0.1,-1 0.1,-2.95 -0.07,-3.05 v -1.51 a 44.55,44.55 0 0 0 -0.3,-4.77 4.86,4.86 0 0 0 -0.27,-0.84 2.46,2.46 0 0 0 -0.62,-0.14 6.83,6.83 0 0 1 -0.69,-0.11 27.86,27.86 0 0 0 -2.94,-0.35 l -0.53,-0.14 a 6.78,6.78 0 0 1 -1.45,-0.28 c -0.07,-0.68 -0.11,-1.11 -0.11,-1.3 a 4.52,4.52 0 0 1 0.21,-1.16 10.8,10.8 0 0 1 2,-0.14 c 0.84,0 1.42,0 1.75,0 q 4.28,0.45 6.36,0.49 c 0.63,0 1.27,0 1.92,0.05 0.65,0.05 1.21,0.05 1.7,0.05 q 1.16,0 5.65,-0.35 a 7.17,7.17 0 0 1 1.62,-0.17 14.28,14.28 0 0 1 2.18,0.14 c 0,0.49 0,0.84 0,1.05 a 8.72,8.72 0 0 1 -0.14,1.37 l -6.2,1 a 1.11,1.11 0 0 0 -0.74,1 l 0.08,1.3 v 0.56 1.54 1.19 0.28 a 4.07,4.07 0 0 1 0.07,0.67 l -0.07,4.45 c 0,0.42 0.07,0.74 0.07,0.95 0,0.21 0,0.49 0,1.12 0,0.37 0,0.76 0,1.16 0,0.4 0,1.18 0.07,2.49 a 13.19,13.19 0 0 0 1.65,0.21 l 5.18,0.1 h 2.52 6.3 l 6.13,-0.18 a 14,14 0 0 0 2.52,-0.24 q 0.07,-1.19 0.11,-5.86 l 0.07,-1.58 -0.21,-6 -0.25,-2.45 a 1,1 0 0 0 -0.49,-0.46 21.8,21.8 0 0 0 -4.91,-1.58 9.53,9.53 0 0 1 -1.26,-0.35 9.84,9.84 0 0 1 0.28,-2 h 0.94 3.4 a 51.58,51.58 0 0 0 6.61,0.42 c 0.52,0 0.92,0 1.23,0 l 4.55,-0.14 1.23,-0.07 a 11.81,11.81 0 0 1 2.59,-0.28 q 1,0 2.45,0.1 0,1.37 -0.18,2.49 -3.21,0.66 -4.2,1 a 11.58,11.58 0 0 0 -2,0.82 l -0.21,0.7 v 0.6 0.91 0.45 a 10.43,10.43 0 0 0 -0.09,1.12 v 0.88 c 0,1.05 0.07,1.64 0.07,1.75 v 4.45 3.37 l -0.1,4.46 q 0,1.54 0.13,6.31 v 5 l 0.07,4.14 q 0,1.16 -0.07,2.81 c 0.49,0.14 0.94,0.26 1.36,0.35 a 27.25,27.25 0 0 1 4.95,1.44 l 0.11,2.45 h -1.65 q -1.68,0 -3.85,-0.21 -2.87,-0.32 -9.24,-0.32 -2.87,0 -7.42,0.46 a 4.27,4.27 0 0 1 -1.19,-0.21 13.72,13.72 0 0 1 0.18,-2.28 l 2.7,-0.63 2.84,-0.45 c 0.28,-0.07 0.64,-0.18 1.09,-0.32 a 84,84 0 0 0 0.42,-9.43 v -3 a 40.26,40.26 0 0 1 -0.21,-4.45 q -1.3,-0.11 -2.8,-0.14 l -16.24,-0.18 h -0.32 -0.24 a 5.54,5.54 0 0 0 -0.56,0 h -1.54 -1 a 5.46,5.46 0 0 0 -1.51,0.25 l -0.17,2.63 v 0.47 c 0,0.63 0.07,1 0.07,1.23 v 10.87 a 16.85,16.85 0 0 0 0.11,1.86 l 0.32,0.21 5.18,0.8 a 3.33,3.33 0 0 0 0.6,0.18 2.32,2.32 0 0 1 0.78,0.31 10.58,10.58 0 0 1 0.11,1.09 8.51,8.51 0 0 1 -0.14,1.26 h -2.14 q -0.77,0 -1.44,0 a 4.41,4.41 0 0 1 -0.6,0 l -4.95,-0.21 q -1.76,-0.17 -4.92,-0.17 h -0.74 c -1,0 -1.56,0.08 -1.72,0.11 a 58.82,58.82 0 0 1 -6.86,0.26 z"
     id="path3898"
     inkscape:connector-curvature="0"
     style="fill:#606060" />
  <path
     class="cls-1"
     d="m 663.7572,128.80443 0.07,-2.38 a 23.18,23.18 0 0 1 2.35,-0.52 10.94,10.94 0 0 0 3.28,-0.95 6.31,6.31 0 0 0 1.42,-2 l 7.08,-18.53 8.31,-21.79 h 3.81 l 0.31,0.63 6.1,14.45 q 2.06,4.6 3.71,8.93 1.65,4.33 2.83,7.06 0.7,1.65 1.93,4.95 a 47.11,47.11 0 0 0 1.93,4.49 5.38,5.38 0 0 0 1.05,1.72 4,4 0 0 0 2.05,0.7 13.26,13.26 0 0 1 3.07,0.81 12.57,12.57 0 0 1 0.18,1.72 c 0,0.17 0,0.42 0,0.77 q -2.6,0 -5.71,-0.24 -3.11,-0.24 -5.61,-0.25 c -1.85,0 -3.18,0 -4,0.07 l -6,0.32 -1.72,0.07 c 0,-0.82 0,-1.6 0.1,-2.35 l 3.89,-0.84 a 7.19,7.19 0 0 0 2,-0.7 1.11,1.11 0 0 0 0.35,-0.8 2.89,2.89 0 0 0 -0.17,-0.95 l -1.4,-3.44 -2.75,-6.87 h -13.39 q -0.74,1.68 -3.09,8.24 a 9.38,9.38 0 0 0 -0.67,2.52 1.55,1.55 0 0 0 0.49,1.3 6.34,6.34 0 0 0 3.09,0.94 q 0.32,0.07 2.49,0.39 c 0,0.84 0,1.42 0,1.75 a 4.75,4.75 0 0 1 -0.07,0.8 q -2.18,0 -10.38,-0.59 l -1.44,0.24 a 31,31 0 0 1 -4.95,0.42 z m 16.5,-19.71 q 8.19,0.11 9.66,0.11 h 0.88 q -1.05,-3.12 -2.74,-7.28 -1.69,-4.16 -2.73,-6.33 z"
     id="path3900"
     inkscape:connector-curvature="0"
     style="fill:#606060" />
  <path
     class="cls-1"
     d="m 729.1372,126.66443 a 8,8 0 0 1 2.7,-0.72 14.83,14.83 0 0 0 3.23,-0.75 9.11,9.11 0 0 0 0.21,-1 q 0.07,-0.49 0.07,-3.37 v -7.82 l 0.14,-4.21 -0.07,-3.26 0.07,-1.89 q 0.11,-3.82 0.11,-7.15 0,-7.29 -0.17,-9.33 l -2.07,-0.42 a 37.72,37.72 0 0 1 -3.79,-0.35 l -0.07,-2.1 0.15,-0.39 a 20.36,20.36 0 0 1 3.23,-0.28 h 3.26 c 1.68,0.14 2.59,0.21 2.73,0.21 l 1.86,-0.1 4.39,-0.21 a 84.86,84.86 0 0 1 8.66,-0.42 q 7.19,0 11.43,3.67 4.24,3.67 4.24,8.4 a 10.1,10.1 0 0 1 -2.29,6.43 13.9,13.9 0 0 1 -7,4.37 20.26,20.26 0 0 0 1.12,1.72 q 1.46,2.1 2.37,3.58 l 5.59,9.08 a 27.13,27.13 0 0 0 2.75,4.23 8.51,8.51 0 0 0 2.68,1.35 11.15,11.15 0 0 1 2.42,1.19 3.23,3.23 0 0 1 0.21,1.05 q 0,0.32 0,0.81 h -0.95 -0.7 l -1.82,-0.24 h -1.44 a 18.28,18.28 0 0 0 -2.77,-0.18 h -3.51 c -0.26,0 -1.07,0.08 -2.45,0.24 l -1.51,0.18 -1.2,-2.31 q -1.47,-2.63 -2.07,-3.93 -1.54,-3.4 -5.29,-10.84 c -1.17,-2.29 -2,-3.59 -2.46,-3.89 a 6.56,6.56 0 0 0 -3.61,-0.74 c -0.47,0 -1.26,0 -2.38,0.07 a 24.06,24.06 0 0 0 -0.1,2.42 l 0.17,7.78 -0.21,6.59 a 7.89,7.89 0 0 0 2.56,0.91 28.67,28.67 0 0 1 4.7,1.33 17.42,17.42 0 0 1 -0.14,2.59 h -0.84 l -1.44,0.07 q -7.54,-0.66 -8.94,-0.66 c -0.61,0 -1,0 -1.3,0 l -4.84,0.32 a 37.08,37.08 0 0 1 -4,0.24 h -1.51 c 0,-0.58 -0.07,-1 -0.07,-1.12 a 8.45,8.45 0 0 1 -0.04,-1.15 z m 15.78,-22.69 q 1.68,0.07 2.45,0.07 6,0 8.45,-2.14 a 7.15,7.15 0 0 0 2.49,-5.72 13.7,13.7 0 0 0 -0.61,-4.15 7.31,7.31 0 0 0 -1.52,-2.89 8.11,8.11 0 0 0 -3.39,-2.07 16.66,16.66 0 0 0 -4.93,-0.52 19.11,19.11 0 0 0 -2.76,0.17 l -0.07,0.67 0.07,4.73 -0.11,2.88 v 3.82 q -0.07,1.61 -0.1,4.17 z"
     id="path3902"
     inkscape:connector-curvature="0"
     style="fill:#606060" />
  <path
     class="cls-1"
     d="m 787.1572,86.09443 v -3 q 1.82,0 2.21,0.07 a 104,104 0 0 0 11.31998,0.49 q 1.05,0 4.28,-0.21 c 1.54,-0.11 2.7,-0.23 3.47,-0.35 h 2.55995 c 0,1.71 0.07,2.67 0.07,2.88 q -3.50995,0.46 -4.09995,0.6 a 5.31,5.31 0 0 0 -2.28,1.12 1.25,1.25 0 0 0 -0.39,0.91 3.9,3.9 0 0 0 0.07,0.77 l 1.16,3 q 1.22,3.58 4.06995,9.72 l 4,9 q 1.16,2.63 2.1,5 l 2,-5 4.17,-11.57 1,-2.45 q 0.17,-0.53 0.45,-1.47 0.91,-3.12 1.52,-4.74 a 7.77,7.77 0 0 0 0.61,-2.63 1.43,1.43 0 0 0 -0.66,-1.16 6.63,6.63 0 0 0 -3.33,-1 8,8 0 0 0 -1.3,-0.23 13.76,13.76 0 0 1 -1.44,-0.23 4,4 0 0 1 -0.21,-1.05 15.13,15.13 0 0 1 0.14,-1.61 q 0.63,0 3.61,0.28 2.98,0.28 5.82,0.28 a 40.68,40.68 0 0 0 5,-0.26 q 2.07,-0.27 3.37,-0.3 v 1.12 c 0,0.28 0,0.7 0,1.26 a 29.72,29.72 0 0 0 -5.29,2.24 3.51,3.51 0 0 0 -0.94,1.16 83.2,83.2 0 0 0 -4.07,9.5 l -4.5,11.67 q -0.63,1.68 -1.39,3.56 c -0.5,1.25 -1,2.62 -1.59,4.12 q -0.18,0.53 -1.65,4.21 l -0.35,0.63 q -1.54,4.94 -2.31,6.84 c -0.93,0 -1.51,0.07 -1.74,0.07 -0.44,0 -1.05,0 -1.84,-0.07 q -0.39,-1.05 -0.77,-2.14 -0.38,-1.09 -2.99995,-7.61 l -6.63,-14.87 -3.99998,-9.57 q -3.05,-6.52 -3.33,-7 a 3.78,3.78 0 0 0 -1.34,-1.26 9.78,9.78 0 0 0 -3.06,-0.59 z"
     id="path3904"
     inkscape:connector-curvature="0"
     style="fill:#606060" />
  <path
     class="cls-1"
     d="m 851.64713,83.42443 q 2,0.11 3.47,0.32 a 46.9,46.9 0 0 0 6.42,0.38 q 1.26,0 6.49,-0.21 7.82,-0.32 14.13,-0.31 l 6.35,-0.07 a 54.94,54.94 0 0 1 6.31,0.52 2.73,2.73 0 0 1 0.63,1.89 v 7.22 l 0.07,1.44 q 0,0.21 0,0.63 l -1.44,0.07 c -0.19,0 -0.59,0 -1.2,-0.07 q -0.31,-0.7 -0.84,-2.07 l -1.4,-2.49 a 16.2,16.2 0 0 0 -2.24,-3.23 9.39,9.39 0 0 0 -2.24,-0.28 l -2.14,-0.18 q -3.26,-0.28 -7,-0.28 -4.28,0 -7.64,0.14 -0.11,0.88 -0.1,6.91 v 5.89 4.42 a 12.94,12.94 0 0 0 1.51,0.1 q 6.29,0 9,-0.24 a 8.76,8.76 0 0 0 3.3,-0.68 3.62,3.62 0 0 0 1.13,-1.53 48.09,48.09 0 0 0 1.23,-5.15 h 0.45 2 c 0.09,2.08 0.14,3.66 0.14,4.73 0,2.45 0,4 -0.05,4.74 -0.05,0.74 -0.06,1.25 -0.06,1.65 0,0.63 0,1.64 0.11,3 0.11,1.36 0.1,2.43 0.1,3.1 v 0.77 h -2.49 q -0.14,-0.56 -0.53,-2.31 a 14,14 0 0 0 -1.26,-4.07 2.56,2.56 0 0 0 -1.41,-0.95 28,28 0 0 0 -5.2,-0.24 q -5.3,0 -8,0.28 v 1.19 q 0,4.17 0.14,6.94 l -0.07,7.57 a 1.87,1.87 0 0 0 0.94,1.82 q 1.44,0.74 8.8,0.73 a 39.81,39.81 0 0 0 8.28,-0.73 8.22,8.22 0 0 0 4.14,-2.35 17.9,17.9 0 0 0 4,-6.59 c 0.72,-0.07 1.32,-0.1 1.79,-0.1 h 1.16 l -0.18,1.47 -0.21,1.05 -1.28,6.63 -0.62,4 q -2.28,0.11 -3.61,0.1 -2,0 -10.49,-0.35 -6,-0.24 -14.46,-0.24 -4.21,0 -10.35,0.35 h -1.47 l -4.25,0.14 v -2.42 a 22.57,22.57 0 0 1 2.67,-0.38 16.89,16.89 0 0 0 5,-1.12 7.27,7.27 0 0 0 0.39,-2.56 c 0,-0.39 0,-1.07 0,-2 v -1.09 l -0.11,-13.22 v -4 l -0.18,-5.61 v -4 l -0.32,-4.35 c 0,-0.11 0,-0.35 -0.07,-0.7 a 1.74,1.74 0 0 0 -1.06,-0.49 l -1,-0.21 a 23.13,23.13 0 0 0 -3.86,-0.49 c -0.44,0 -1,-0.07 -1.54,-0.14 z"
     id="path3906"
     inkscape:connector-curvature="0"
     style="fill:#606060" />
  <path
     class="cls-1"
     d="m 945.07711,84.44443 a 23.71,23.71 0 0 1 0.63,3.61 51.9,51.9 0 0 1 0.42,5.61 7.15,7.15 0 0 1 -0.14,1.37 l -0.35,0.1 -2.52,-0.17 -0.47,-0.06 q -1.55,-4.63 -3.09,-6.28 a 8.4,8.4 0 0 0 -6.28,-2.81 7.87,7.87 0 0 0 -5.45,1.81 5.78,5.78 0 0 0 -2,4.47 6.21,6.21 0 0 0 2,4.32 q 2,2.07 8.35,4 a 39.82,39.82 0 0 1 5.17,2 15.23,15.23 0 0 1 4.61,3 13.12,13.12 0 0 1 2.89,4.19 13.87,13.87 0 0 1 0.79,5 18,18 0 0 1 -1.23,6.49 9.72,9.72 0 0 1 -2.14,3.19 20,20 0 0 1 -3.26,2.47 16,16 0 0 1 -4.57,2.05 24.24,24.24 0 0 1 -6.09,0.63 29.53,29.53 0 0 1 -5.85,-0.7 l -4.21,-1.23 a 6.91,6.91 0 0 1 -2.20998,-0.88 1.3,1.3 0 0 1 -0.32,-0.66 v -0.39 q 0,-0.38 -0.18,-4.8 -0.07,-2.28 -0.07,-3.23 v -1.33 l 3.25998,-0.07 q 1.68,3.9 2.17,4.71 a 11.71,11.71 0 0 0 2.4,2.9 10,10 0 0 0 3.14,1.76 11.61,11.61 0 0 0 4,0.65 12.58,12.58 0 0 0 4.17,-0.81 7.68,7.68 0 0 0 3.66,-2.65 6.13,6.13 0 0 0 -1,-8.76 q -1.47,-1.37 -7.92,-3.65 a 39,39 0 0 1 -8.94,-4.07 12.31,12.31 0 0 1 -3.92998,-4.79 13.32,13.32 0 0 1 -1.44,-5.77 12.73,12.73 0 0 1 3.99998,-9.47 q 4,-3.89 11.78,-3.89 a 30.5,30.5 0 0 1 5,0.6 37.33,37.33 0 0 1 5.22,1.54 z"
     id="path3908"
     inkscape:connector-curvature="0"
     style="fill:#606060" />
  <path
     class="cls-1"
     d="m 970.20711,81.46443 h 2.17 l 0.35,0.57 a 12.2,12.2 0 0 0 1.51,2.24 q 0.45,0.11 4.81,0.11 h 4.8 l 0.7,-0.08 h 4.24 7.93001 10.82998 l 2.07,-0.28 a 4,4 0 0 0 1,-1.7 l 0.38,-0.89 h 1.54 1.05 q 0,2.42 0,7.29 v 3.12 1.79 a 7.58,7.58 0 0 1 -0.14,1.58 12.64,12.64 0 0 1 -2.52,0.56 24.08,24.08 0 0 1 -2,-4 16.61,16.61 0 0 0 -1.28,-2.87 2,2 0 0 0 -1,-0.59 q -0.85,-0.18 -7.44998,-0.18 -1,0 -2.46,0.14 a 18.17,18.17 0 0 0 -0.18,2.24 v 4.7 10.31 l 0.1,11.12 v 4.56 a 11.8,11.8 0 0 0 0.42,3.65 9.18,9.18 0 0 0 2.08,0.45 c 0.19,0 1.05998,0.21 2.60998,0.56 a 13.86,13.86 0 0 1 1.87,0.56 c 0.12,0.84 0.18,1.36 0.18,1.54 a 5.61,5.61 0 0 1 -0.1,0.91 c -0.52,0 -0.94,0 -1.26,0 a 61.11,61.11 0 0 1 -6.12998,-0.26 q -2.52,-0.27 -9.15001,-0.27 -1.05,0 -6.17,0.42 c -1.33,0.1 -2.2,0.14 -2.59,0.14 0,-0.35 0,-0.62 -0.07,-0.8 v -0.81 -0.28 a 5,5 0 0 1 2.91,-1.51 26.47,26.47 0 0 0 5,-1.58 4.41,4.41 0 0 0 0.42,-1.75 q 0.24,-4.21 0.25,-13.4 l -0.18,-13.25 a 56.67,56.67 0 0 0 -0.21,-6.63 0.76,0.76 0 0 0 -0.73,-0.67 q -1.09,-0.14 -7.09,-0.14 a 10.22,10.22 0 0 0 -4.41,0.63 q -1.51,0.88 -4.53,4.77 c -0.58,0.75 -1,1.12 -1.3,1.12 a 7.81,7.81 0 0 1 -2.07,-1.37 69.45,69.45 0 0 0 3,-9.12 q 0.55,-1.95 0.8,-2.65 z"
     id="path3910"
     inkscape:connector-curvature="0"
     style="fill:#606060" />
  <path
     class="cls-1"
     d="m 31.934572,93.71135 a 8.26,8.26 0 0 1 0.37,-2.68 9.75,9.75 0 0 1 1.29,-2.42 15.86,15.86 0 0 1 4.08,-3.65 38.89,38.89 0 0 1 10.08,-4.15 90.47,90.47 0 0 1 43.08,0 39,39 0 0 1 10.079998,4.15 15.86,15.86 0 0 1 4.08,3.65 9.77,9.77 0 0 1 1.29,2.42 8.26,8.26 0 0 1 0.37,2.68 8.11,8.11 0 0 0 -2,-4.82 15.23,15.23 0 0 0 -4.16,-3.21 38.31,38.31 0 0 0 -9.999998,-3.59 104.9,104.9 0 0 0 -42.44,0 38.37,38.37 0 0 0 -10,3.6 15.24,15.24 0 0 0 -4.16,3.22 8.11,8.11 0 0 0 -1.96,4.8 z"
     id="path3976"
     inkscape:connector-curvature="0"
     style="fill:#606060" />
  <path
     class="cls-1"
     d="m 31.084572,80.95135 a 21.31,21.31 0 0 0 -4,6.66 10.1,10.1 0 0 0 -0.51,3.59 8.2,8.2 0 0 0 1.07,3.28 14.39,14.39 0 0 0 5.3,4.81 38.65,38.65 0 0 0 6.92,3.07 83.83,83.83 0 0 0 15.08,3.41 120.58,120.58 0 0 0 15.5,1.25 114.52,114.52 0 0 0 15.55,-0.55 71.15,71.15 0 0 0 15.089998,-3 31.89,31.89 0 0 0 6.82,-3.1 13.65,13.65 0 0 0 5,-5.06 10.79,10.79 0 0 0 0.85,-7.11 25.52,25.52 0 0 0 -2.87,-7.27 22.42,22.42 0 0 1 4.23,6.9 12.45,12.45 0 0 1 0.08,8.48 16.36,16.36 0 0 1 -5.36,6.78 32.42,32.42 0 0 1 -7.35,4.09 c -10.339999,4.14 -21.359998,5 -32.149998,4.89 -10.8,-0.39 -21.7,-1.84 -31.91,-6.05 a 37.47,37.47 0 0 1 -7.32,-4 16.94,16.94 0 0 1 -5.7,-6.46 10.42,10.42 0 0 1 -0.82,-4.39 10.79,10.79 0 0 1 1.18,-4.14 19.32,19.32 0 0 1 5.32,-6.08 z"
     id="path3978"
     inkscape:connector-curvature="0"
     style="fill:#606060" />
  <path
     class="cls-1"
     d="m 70.264572,51.241346 c -1.77,3.550004 -2.73,7.240004 -2.15,10.780004 0.58,3.54 2.18,6.91 3.82,10.45 a 51.45,51.45 0 0 1 2.2,5.6 17.11,17.11 0 0 1 0.76,6.27 12.52,12.52 0 0 1 -2.07,5.95 16.74,16.74 0 0 1 -4.24,4.26 c 2.23,-3.26 3.9,-6.76 3.66,-10.27 -0.24,-3.51 -1.78,-6.89 -3.4,-10.4 -1.62,-3.51 -3.3,-7.37 -3.36,-11.65 a 14.09,14.09 0 0 1 1.25,-6.12 15.93,15.93 0 0 1 3.53,-4.870004 z"
     id="path3980"
     inkscape:connector-curvature="0"
     style="fill:#606060" />
  <path
     class="cls-1"
     d="m 28.534572,114.92135 a 38.85,38.85 0 0 0 10.65,5.22 78.81,78.81 0 0 0 11.49,2.82 115.19,115.19 0 0 0 11.77,1.38 109.46,109.46 0 0 0 11.83,0.24 101.31,101.31 0 0 0 11.76,-1 77,77 0 0 0 11.509999,-2.43 44,44 0 0 0 10.709999,-4.68 24.44,24.44 0 0 0 8.31,-8.25 22.17,22.17 0 0 1 -7.36,9.61 40.15,40.15 0 0 1 -10.829999,5.88 77.61,77.61 0 0 1 -23.999999,4.27 95.26,95.26 0 0 1 -24.22,-2.43 63.91,63.91 0 0 1 -11.58,-3.84 32.37,32.37 0 0 1 -10.04,-6.79 z"
     id="path3982"
     inkscape:connector-curvature="0"
     style="fill:#606060" />
  <path
     class="cls-1"
     d="m 22.164572,123.27135 a 32.26,32.26 0 0 0 12.1,6.12 95.27,95.27 0 0 0 13.28,3 146,146 0 0 0 27.18,1.64 113,113 0 0 0 13.54,-1.16 83,83 0 0 0 13.179998,-2.89 43.1,43.1 0 0 0 12.09,-5.78 22.76,22.76 0 0 0 8.37,-10.42 c -0.94,4.56 -3.81,8.61 -7.34,11.72 a 40.64,40.64 0 0 1 -12.24,7 c -8.829999,3.3 -18.209998,4.6 -27.509998,5 a 117.23,117.23 0 0 1 -27.77,-2.44 77.75,77.75 0 0 1 -13.36,-4.06 c -4.24,-1.9 -8.54,-4.13 -11.52,-7.73 z"
     id="path3984"
     inkscape:connector-curvature="0"
     style="fill:#606060" />
  <path
     class="cls-1"
     d="m 66.684572,49.401346 c -8.14,-18.279995 10.88,-19.689995 23.7,-34.319995 6.299999,20.349995 1.469999,35.319995 -16.63,43.869999 -3.66,-6.56 0.28,-16.000004 6.37,-26.180004 -6.68,5.44 -11.79,10.94 -13.44,16.63 z"
     id="path3986"
     inkscape:connector-curvature="0"
     style="fill:#606060" />
</svg>
