<svg xmlns="http://www.w3.org/2000/svg" xmlns:xlink="http://www.w3.org/1999/xlink" version="1.1" x="0px" y="0px" viewBox="0 0 100 125" enable-background="new 0 0 100 100" xml:space="preserve"><g><path d="M83,70.1c2.1,0,3.7-1.7,3.7-3.7s-1.7-3.7-3.7-3.7c-2.1,0-3.7,1.7-3.7,3.7S81,70.1,83,70.1z"/><path d="M83,31.3c2.1,0,3.7-1.7,3.7-3.7c0-2.1-1.7-3.7-3.7-3.7c-2.1,0-3.7,1.7-3.7,3.7C79.3,29.6,81,31.3,83,31.3z"/><path d="M85.2,54.2l-11.2-7.3l11.2-7.3c5.7-1.1,9.9-6.1,9.9-12c0-6.7-5.5-12.2-12.2-12.2c-6.7,0-12.2,5.5-12.2,12.2   c0,0.3,0,0.7,0,1l-12.5,7.9C35,21.2,23.9,14,23.3,13.6c-2-1.3-4.3-1.9-6.6-1.9c-4.1,0-7.9,2.1-10.1,5.6c-0.9,1.4-1.5,2.9-1.7,4.3   l-0.3,1.8l37.2,23.4L4.7,70.3l0.3,1.8c0.2,1.4,0.8,3,1.7,4.3c2.2,3.5,6,5.6,10.1,5.6c2.3,0,4.6-0.7,6.6-1.9   c0.6-0.4,12-7.9,34.9-22.9l12.5,7.9c0,0.3,0,0.7,0,1c0,6.7,5.5,12.2,12.2,12.2c6.7,0,12.2-5.5,12.2-12.2   C95.1,60.3,91,55.2,85.2,54.2z M52.9,53.9L20.3,75.3c-1.1,0.7-2.3,1-3.6,1c-2.2,0-4.1-1.1-5.3-2.9c-0.1-0.2-0.2-0.3-0.3-0.5   l36-22.7L52.9,53.9z M76.7,64.5l0.5-2L11.1,20.7c0.1-0.2,0.2-0.3,0.3-0.5c1.1-1.8,3.1-2.9,5.3-2.9c1.2,0,2.5,0.4,3.6,1   c0.5,0.3,11.8,7.7,62.3,40.8l0.5,0.3l0.7,0.1c3.2,0.4,5.6,3.2,5.6,6.4c0,3.6-2.9,6.5-6.5,6.5s-6.5-2.9-6.5-6.5   C76.4,65.6,76.5,65,76.7,64.5z M76.4,27.6c0-3.6,2.9-6.5,6.5-6.5s6.5,2.9,6.5,6.5c0,3.2-2.4,6-5.7,6.4c0,0-0.4,0.1-0.7,0.2   l-14.2,9.3l-5.4-3.5l13.7-8.7l-0.5-2C76.5,28.7,76.4,28.1,76.4,27.6z"/></g></svg>