<svg xmlns="http://www.w3.org/2000/svg" xmlns:xlink="http://www.w3.org/1999/xlink" version="1.1" x="0px" y="0px" viewBox="0 0 100 125" style="enable-background:new 0 0 100 100;" xml:space="preserve"><path d="M65.2,65.6l0.7-22.7L99.9,18H58.7l-16,20.7L27.3,18.8L19,7.6L0.4,22h13.9l7.1,44.3l-3.5,4.5l46.5,25.2l0.2-5.5l31.9-17.2  L65.2,65.6z M12.1,18l6.1-4.7l3.5,4.7h-8.1H12.1z M18.3,22h6.4l15.5,19.9L24.7,62L18.3,22z M23.9,69.6L60.7,22h26.9L62.8,40.3  L62,40.8l0,0L35.4,60.4l2.4,3.2l24-17.7l-1.4,43.5L23.9,69.6z M65.1,69.7l20.2,5L64.6,85.9L65.1,69.7z"/></svg>