<svg xmlns="http://www.w3.org/2000/svg" xmlns:xlink="http://www.w3.org/1999/xlink" version="1.1" x="0px" y="0px" viewBox="206 206 100 125" enable-background="new 206 206 100 100" xml:space="preserve"><g><path d="M262.969,273.146c0.036-0.038,0.073-0.076,0.109-0.116c0.02-0.021,0.038-0.042,0.058-0.063   c0.006-0.007,0.012-0.014,0.02-0.021c0.022-0.026,0.045-0.054,0.066-0.081c1.684-2.048,2.183-6.275,2.236-6.774   c0.03-0.288-0.07-0.575-0.276-0.78c-0.205-0.205-0.491-0.305-0.781-0.276c-0.496,0.054-4.717,0.551-6.767,2.23   c-0.031,0.024-0.063,0.051-0.091,0.077c-0.06,0.052-0.118,0.105-0.175,0.159c-0.005,0.005-0.01,0.01-0.015,0.016   c-0.008,0.007-0.016,0.015-0.023,0.023c-0.004,0.003-0.009,0.008-0.013,0.012c-1.538,1.551-1.534,4.063,0.013,5.611   c0.774,0.773,1.79,1.16,2.809,1.16c1.02,0,2.042-0.389,2.821-1.168C262.963,273.152,262.967,273.148,262.969,273.146z    M261.775,271.604l-0.195,0.218c-0.804,0.785-2.098,0.779-2.893-0.017c-0.802-0.804-0.802-2.108,0.005-2.915   c0.016-0.015,0.031-0.03,0.047-0.045c0.006-0.005,0.013-0.012,0.018-0.017c0.016-0.016,0.032-0.028,0.05-0.043   c0.006-0.007,0.008-0.009,0.015-0.014c0.027-0.021,0.055-0.043,0.079-0.065c1.008-0.805,3.016-1.316,4.462-1.579   c-0.264,1.437-0.782,3.466-1.58,4.47C261.78,271.599,261.777,271.602,261.775,271.604z"/><path d="M254.674,267.541c-0.034-0.034-0.067-0.066-0.102-0.099c-0.004-0.004-0.007-0.006-0.011-0.01   c-0.035-0.032-0.069-0.063-0.105-0.095c-0.032-0.028-0.065-0.056-0.099-0.083c-2.054-1.673-6.261-2.168-6.757-2.222   c-0.288-0.028-0.575,0.071-0.781,0.276c-0.205,0.205-0.306,0.492-0.275,0.78c0.053,0.496,0.548,4.692,2.215,6.748   c0.029,0.038,0.058,0.072,0.087,0.105c0.031,0.037,0.063,0.072,0.088,0.1c0.037,0.04,0.075,0.08,0.113,0.118   c0,0.001,0,0.001,0,0.001c0.775,0.774,1.793,1.163,2.812,1.163c1.018-0.001,2.037-0.389,2.812-1.163   c0.75-0.752,1.164-1.75,1.164-2.812C255.836,269.288,255.422,268.289,254.674,267.541z M253.315,271.805   c-0.798,0.798-2.095,0.802-2.894,0.016l-0.197-0.219c0,0-0.001-0.002-0.001-0.002c-0.808-1.007-1.322-3.021-1.586-4.473   c1.444,0.261,3.447,0.772,4.458,1.572c0.024,0.023,0.05,0.044,0.078,0.064c0.01,0.009,0.02,0.019,0.031,0.027   c0.009,0.007,0.018,0.016,0.026,0.022c0.002,0.003,0.004,0.004,0.005,0.005c0.004,0.003,0.007,0.007,0.011,0.01   c0.006,0.007,0.013,0.013,0.02,0.019c0.003,0.004,0.007,0.006,0.011,0.01c0.013,0.013,0.025,0.025,0.039,0.038   c0.003,0.003,0.006,0.006,0.01,0.01c0.382,0.387,0.592,0.898,0.592,1.445C253.917,270.9,253.703,271.416,253.315,271.805z"/><path d="M257.33,263.82c0.774,0.775,1.792,1.163,2.81,1.163c1.013,0,2.024-0.383,2.8-1.149c0.005-0.004,0.01-0.009,0.015-0.014   c0.07-0.07,0.139-0.145,0.206-0.223c0.02-0.021,0.036-0.042,0.055-0.065c1.689-2.044,2.188-6.284,2.242-6.782   c0.031-0.29-0.069-0.576-0.275-0.781c-0.205-0.205-0.491-0.306-0.781-0.276c-0.496,0.054-4.713,0.551-6.764,2.228   c-0.036,0.028-0.068,0.057-0.091,0.076c-0.055,0.047-0.106,0.095-0.158,0.144c-0.021,0.021-0.04,0.038-0.058,0.057   C255.78,259.749,255.78,262.27,257.33,263.82z M258.685,259.556c0.002-0.002,0.002-0.002,0.002-0.003   c0.008-0.007,0.016-0.016,0.024-0.022c0.01-0.009,0.018-0.018,0.027-0.026c0.005-0.005,0.015-0.013,0.02-0.02   c0.011-0.01,0.022-0.018,0.032-0.027l0.021-0.019c0.005-0.005,0.016-0.014,0.02-0.017c0.023-0.019,0.045-0.035,0.065-0.055   c1.009-0.806,3.02-1.319,4.468-1.582c-0.263,1.448-0.775,3.455-1.578,4.465c-0.004,0.004-0.007,0.009-0.012,0.013l-0.192,0.215   c-0.805,0.787-2.099,0.782-2.896-0.015C257.886,261.665,257.885,260.363,258.685,259.556z"/><path d="M248.763,263.504c0.027,0.034,0.054,0.066,0.082,0.098c0.022,0.027,0.045,0.053,0.068,0.078   c0.044,0.049,0.089,0.095,0.134,0.141c0.006,0.007,0.012,0.013,0.018,0.019c0.773,0.763,1.784,1.145,2.794,1.145   c1.018,0,2.037-0.388,2.812-1.163c0.75-0.75,1.164-1.749,1.164-2.812c0-1.062-0.414-2.061-1.162-2.809   c-0.034-0.034-0.068-0.067-0.103-0.099c-0.002-0.003-0.005-0.007-0.008-0.009c-0.034-0.033-0.069-0.063-0.105-0.094   c-0.033-0.03-0.067-0.059-0.104-0.088c-2.055-1.67-6.257-2.165-6.753-2.218c-0.288-0.031-0.576,0.071-0.781,0.276   c-0.205,0.205-0.307,0.492-0.275,0.781C246.597,257.246,247.092,261.449,248.763,263.504z M253.116,259.378   c0.018,0.016,0.036,0.03,0.056,0.045c0,0.001,0.001,0.002,0.003,0.003c0.008,0.008,0.018,0.015,0.026,0.023   c0.007,0.005,0.014,0.011,0.02,0.016c0.007,0.008,0.015,0.014,0.022,0.021c0,0,0.001,0,0.001,0   c0.007,0.008,0.015,0.015,0.022,0.021c0.002,0.003,0.005,0.006,0.009,0.008c0.014,0.014,0.027,0.027,0.04,0.039   c0.004,0.005,0.009,0.01,0.014,0.014c0.79,0.803,0.785,2.099-0.013,2.896c-0.798,0.798-2.094,0.802-2.897,0.014l-0.193-0.216   c-0.001-0.001-0.002-0.002-0.003-0.003c-0.807-1.007-1.321-3.02-1.585-4.47C250.078,258.053,252.116,258.574,253.116,259.378z"/><path d="M257.33,254.48c0.774,0.775,1.793,1.163,2.812,1.163c1.018,0,2.036-0.388,2.812-1.163c0,0,0,0,0.001,0   c0.046-0.047,0.091-0.095,0.137-0.145c0.011-0.012,0.021-0.023,0.031-0.036c0.011-0.012,0.021-0.024,0.033-0.037   c0.021-0.025,0.043-0.05,0.064-0.077c1.686-2.046,2.185-6.279,2.238-6.777c0.03-0.288-0.07-0.575-0.276-0.78   c-0.205-0.205-0.491-0.306-0.781-0.276c-0.496,0.053-4.702,0.549-6.756,2.221c-0.04,0.031-0.078,0.063-0.114,0.096c0,0,0,0,0,0   c-0.015,0.012-0.026,0.024-0.04,0.035c-0.007,0.006-0.014,0.012-0.021,0.019c-0.022,0.02-0.045,0.041-0.067,0.062   c-0.025,0.024-0.05,0.048-0.072,0.071C255.78,250.407,255.78,252.929,257.33,254.48z M258.685,250.215   c0.002,0,0.002-0.001,0.002-0.001c0.01-0.009,0.02-0.019,0.029-0.028c0.007-0.007,0.015-0.015,0.022-0.022   c0.005-0.004,0.01-0.009,0.015-0.013c0.014-0.013,0.028-0.025,0.042-0.037l0.017-0.015c0.005-0.004,0.011-0.01,0.016-0.014   c0.023-0.018,0.047-0.037,0.067-0.056c1.007-0.806,3.019-1.319,4.467-1.583c-0.264,1.437-0.782,3.466-1.58,4.47   c-0.002,0.002-0.005,0.004-0.007,0.006l-0.195,0.217c-0.803,0.786-2.096,0.781-2.893-0.016   C257.886,252.323,257.885,251.022,258.685,250.215z"/><path d="M248.76,254.158c0.028,0.036,0.057,0.07,0.086,0.104c0.027,0.032,0.055,0.063,0.083,0.094   c0.039,0.042,0.079,0.083,0.118,0.123c0.004,0.005,0.009,0.008,0.014,0.013c0.749,0.743,1.742,1.152,2.799,1.153l0,0   c1.063,0,2.061-0.414,2.812-1.165c1.55-1.55,1.55-4.073,0.002-5.62c-0.037-0.037-0.073-0.072-0.111-0.106   c-0.035-0.033-0.069-0.064-0.106-0.096c-0.035-0.031-0.072-0.063-0.11-0.092c-2.058-1.667-6.251-2.161-6.747-2.214   c-0.288-0.03-0.575,0.071-0.781,0.276c-0.205,0.205-0.306,0.492-0.275,0.78C246.597,247.905,247.092,252.102,248.76,254.158z    M253.113,250.033c0.018,0.016,0.037,0.032,0.057,0.047c0.002,0.002,0.005,0.004,0.008,0.007c0.008,0.007,0.015,0.014,0.023,0.02   c0.006,0.005,0.012,0.011,0.019,0.016c0.009,0.008,0.018,0.017,0.027,0.024c0,0,0.001,0.001,0.002,0.002   c0.005,0.005,0.011,0.01,0.017,0.016c0.001,0,0.002,0.001,0.003,0.002c0.016,0.016,0.031,0.03,0.046,0.045   c0.004,0.004,0.009,0.009,0.014,0.013c0.38,0.387,0.589,0.898,0.589,1.442c0,0.55-0.214,1.066-0.602,1.455   c-0.389,0.389-0.905,0.603-1.455,0.603l0,0c-0.542,0-1.052-0.208-1.441-0.589l-0.195-0.216c-0.001-0.001-0.001-0.001-0.002-0.002   c-0.807-1.005-1.321-3.02-1.585-4.471C250.076,248.712,252.111,249.232,253.113,250.033z"/><path d="M262.943,245.15c0.003-0.004,0.007-0.008,0.012-0.012c0.073-0.074,0.145-0.151,0.214-0.233   c0.016-0.018,0.03-0.036,0.047-0.054c1.689-2.043,2.189-6.286,2.243-6.785c0.03-0.288-0.07-0.575-0.276-0.78   c-0.205-0.205-0.491-0.306-0.781-0.276c-0.496,0.054-4.698,0.548-6.753,2.22c-0.04,0.032-0.078,0.063-0.107,0.09   c-0.033,0.028-0.065,0.057-0.098,0.087c-0.006,0.005-0.012,0.011-0.018,0.016c-0.033,0.031-0.064,0.062-0.095,0.092   c-1.55,1.55-1.55,4.072,0,5.623c0.773,0.774,1.79,1.162,2.809,1.162C261.152,246.301,262.164,245.917,262.943,245.15z    M258.687,243.782c-0.799-0.799-0.802-2.096-0.009-2.902c0.004-0.002,0.006-0.005,0.009-0.008c0.012-0.012,0.024-0.023,0.035-0.035   c0.006-0.005,0.012-0.01,0.017-0.015s0.01-0.009,0.015-0.014c0.016-0.015,0.032-0.028,0.056-0.05   c0.007-0.005,0.021-0.017,0.026-0.021c0.021-0.016,0.04-0.032,0.058-0.048c1.007-0.806,3.019-1.321,4.469-1.584   c-0.264,1.436-0.78,3.464-1.58,4.468c-0.002,0.002-0.005,0.005-0.007,0.008l-0.194,0.217   C260.777,244.584,259.484,244.579,258.687,243.782z"/><path d="M248.763,244.822c0.027,0.034,0.055,0.067,0.083,0.099c0,0,0.001,0,0.001,0.002c0.022,0.025,0.045,0.052,0.068,0.077   c0.043,0.048,0.087,0.094,0.132,0.139c0.004,0.004,0.009,0.008,0.013,0.013c0.773,0.767,1.786,1.15,2.799,1.15   c1.019,0,2.037-0.388,2.813-1.163c1.55-1.551,1.55-4.073,0-5.623c-0.036-0.036-0.071-0.07-0.108-0.104   c-0.035-0.033-0.07-0.064-0.106-0.096c-0.036-0.032-0.074-0.063-0.113-0.094c-2.059-1.665-6.249-2.158-6.744-2.212   c-0.288-0.03-0.575,0.071-0.781,0.276c-0.205,0.205-0.306,0.492-0.275,0.78C246.597,238.564,247.092,242.767,248.763,244.822z    M253.127,240.704c0.013,0.011,0.025,0.021,0.038,0.032c0.005,0.004,0.011,0.009,0.016,0.014c0.006,0.006,0.013,0.011,0.019,0.017   c0.003,0.002,0.006,0.005,0.009,0.008c0.015,0.013,0.029,0.026,0.043,0.04c0.002,0.002,0.005,0.004,0.007,0.006   c0.019,0.018,0.037,0.035,0.054,0.052c0.006,0.005,0.011,0.011,0.017,0.017c0.786,0.803,0.78,2.096-0.016,2.894   c-0.799,0.799-2.096,0.802-2.895,0.015l-0.196-0.218c-0.001-0.001-0.002-0.002-0.003-0.003c-0.807-1.007-1.32-3.019-1.584-4.47   C250.084,239.373,252.131,239.896,253.127,240.704z"/><path d="M257.65,229.888c-0.037,0.029-0.073,0.059-0.106,0.089c-0.036,0.03-0.069,0.06-0.104,0.092   c-0.004,0.004-0.008,0.007-0.012,0.011c-0.035,0.032-0.067,0.064-0.098,0.095c-1.55,1.55-1.55,4.072,0,5.623   c0.774,0.776,1.793,1.163,2.812,1.163c1.01,0,2.021-0.382,2.793-1.145c0.006-0.006,0.013-0.012,0.02-0.019   c0.072-0.073,0.143-0.149,0.212-0.23c0.015-0.017,0.029-0.034,0.044-0.052c1.693-2.042,2.194-6.29,2.248-6.789   c0.002-0.031,0.004-0.062,0.004-0.093c0-0.003,0.001-0.006,0.001-0.009v-15.887c0-0.53-0.43-0.959-0.959-0.959   c-0.53,0-0.96,0.43-0.96,0.959v15.048C262.09,228.012,259.234,228.601,257.65,229.888z M261.781,234.232   c-0.002,0.003-0.005,0.006-0.007,0.009l-0.191,0.214c-0.387,0.38-0.897,0.589-1.441,0.589c-0.55,0-1.067-0.213-1.455-0.602   c-0.799-0.798-0.802-2.093-0.009-2.901c0.004-0.003,0.006-0.006,0.009-0.009c0.012-0.012,0.025-0.025,0.037-0.037   c0.005-0.004,0.01-0.008,0.015-0.013c0.006-0.005,0.013-0.011,0.018-0.017c0.002-0.002,0.006-0.005,0.008-0.008   c0.003-0.002,0.005-0.003,0.008-0.006c0.011-0.01,0.023-0.02,0.035-0.031c0.006-0.005,0.019-0.015,0.024-0.021   c0.021-0.017,0.043-0.034,0.062-0.051c1.007-0.807,3.019-1.321,4.469-1.584C263.098,231.2,262.579,233.228,261.781,234.232z"/><path d="M255.776,229.254c2.193,0,3.976-1.785,3.976-3.977l0,0l0,0c0-0.048-0.001-0.096-0.002-0.145c0,0,0-0.001,0-0.002   c-0.002-0.028-0.003-0.057-0.005-0.084c-0.002-0.023-0.003-0.047-0.004-0.07c-0.003-0.033-0.005-0.066-0.009-0.1   c-0.258-2.638-2.896-5.979-3.209-6.369c-0.183-0.226-0.457-0.357-0.748-0.357c-0.29,0-0.564,0.132-0.747,0.357   c-0.313,0.388-2.932,3.707-3.206,6.34c-0.006,0.046-0.01,0.091-0.012,0.135c-0.004,0.042-0.006,0.083-0.007,0.123   c-0.002,0.047-0.004,0.094-0.004,0.14l0,0c0,0,0,0.001,0,0.001c0,0.007,0,0.015,0,0.022v0.001v0c0,0,0,0.001,0,0.002v0   c0,0,0,0.002,0,0.002c0,0,0,0,0,0c0,0,0,0.001,0,0.002l0,0c0,1.062,0.413,2.06,1.165,2.812   C253.716,228.84,254.714,229.254,255.776,229.254z M253.719,225.277c0-0.001,0-0.001,0-0.002c0-0.022,0-0.044,0.001-0.066   c0.001-0.01,0.001-0.02,0.001-0.028c0-0.02,0.002-0.039,0.003-0.059c0-0.009,0.002-0.033,0.003-0.042   c0.004-0.026,0.006-0.051,0.007-0.077c0.141-1.282,1.201-3.07,2.041-4.283c0.829,1.204,1.898,3.006,2.042,4.28   c0,0.003,0,0.005,0,0.008l0.016,0.292c-0.012,1.124-0.931,2.035-2.056,2.035c-0.55,0-1.066-0.214-1.456-0.603   C253.933,226.344,253.719,225.827,253.719,225.277L253.719,225.277z"/><path d="M246.538,228.618v0.005c0,0.002,0,0.004,0,0.005c0,0.032,0.001,0.064,0.005,0.097c0.054,0.497,0.549,4.704,2.222,6.757   c0.027,0.034,0.053,0.065,0.081,0.096c0.025,0.029,0.049,0.057,0.072,0.081c0.042,0.047,0.085,0.092,0.13,0.137   c0.007,0.007,0.015,0.015,0.022,0.022c0.749,0.737,1.737,1.143,2.79,1.143l0,0c1.062,0,2.061-0.414,2.812-1.165   c1.55-1.55,1.55-4.073,0.002-5.62c-0.037-0.037-0.072-0.071-0.109-0.105c-0.036-0.033-0.072-0.065-0.109-0.097   c-0.036-0.032-0.074-0.063-0.113-0.094c-1.586-1.282-4.434-1.869-5.886-2.095v-15.048c0-0.53-0.429-0.959-0.959-0.959   c-0.529,0-0.959,0.43-0.959,0.959V228.618C246.538,228.618,246.538,228.618,246.538,228.618z M253.121,231.359   c0.014,0.013,0.029,0.025,0.044,0.037c0.006,0.005,0.011,0.009,0.016,0.014c0.007,0.006,0.015,0.012,0.021,0.018   c0.001,0.001,0.003,0.002,0.004,0.004c0.016,0.014,0.031,0.028,0.046,0.042c0.002,0.001,0.004,0.003,0.006,0.005   c0.019,0.017,0.037,0.035,0.055,0.052c0.006,0.005,0.011,0.011,0.017,0.017c0.378,0.386,0.586,0.896,0.586,1.438   c0,0.55-0.214,1.066-0.602,1.455c-0.389,0.389-0.905,0.603-1.455,0.603c-0.543,0-1.054-0.209-1.444-0.592l-0.192-0.213   c-0.001-0.001-0.002-0.002-0.003-0.003c-0.806-1.007-1.32-3.019-1.584-4.47C250.081,230.031,252.123,230.553,253.121,231.359z"/><path d="M278.334,288.258c-0.469-0.175-4.461-1.628-7.046-1.048c-0.039,0.008-0.077,0.018-0.114,0.027   c-0.045,0.011-0.09,0.023-0.127,0.034c-0.029,0.007-0.059,0.016-0.086,0.025c-0.024,0.007-0.048,0.015-0.069,0.021h-0.001   c-1.008,0.334-1.825,1.041-2.304,1.989c-0.477,0.949-0.556,2.026-0.223,3.034c0.553,1.668,2.108,2.727,3.78,2.727   c0.415,0,0.837-0.065,1.253-0.203c0.005-0.001,0.009-0.002,0.013-0.004c0.046-0.016,0.092-0.032,0.139-0.05   c0.04-0.015,0.08-0.03,0.12-0.047c0,0,0-0.001,0.001-0.001c0.033-0.014,0.066-0.027,0.099-0.043   c2.423-1.075,4.764-4.624,5.034-5.045c0.157-0.244,0.196-0.546,0.105-0.82C278.817,288.579,278.605,288.36,278.334,288.258z    M273.046,292.944c-0.004,0.001-0.006,0.003-0.01,0.004l-0.273,0.106c-1.072,0.34-2.223-0.245-2.577-1.314   c-0.173-0.522-0.131-1.079,0.116-1.571c0.247-0.489,0.668-0.854,1.19-1.027c0-0.002,0.002-0.002,0.003-0.002   c0.01-0.003,0.02-0.006,0.029-0.01c0.016-0.005,0.032-0.01,0.055-0.016c0.021-0.007,0.045-0.012,0.066-0.019   c0.009-0.002,0.019-0.004,0.027-0.007c0.032-0.005,0.064-0.014,0.095-0.021c1.263-0.265,3.288,0.179,4.699,0.595   C275.582,290.839,274.219,292.405,273.046,292.944z"/><path d="M268.523,286.145c-0.002-0.007-0.005-0.015-0.007-0.021c-0.018-0.054-0.037-0.108-0.058-0.162   c-0.014-0.035-0.026-0.069-0.041-0.104c-0.001-0.003-0.003-0.007-0.004-0.011c-0.014-0.034-0.028-0.066-0.044-0.103   c-1.075-2.422-4.625-4.764-5.046-5.036c-0.244-0.156-0.546-0.195-0.821-0.104c-0.275,0.091-0.494,0.302-0.597,0.573   c-0.175,0.467-1.619,4.438-1.052,7.024c0.008,0.049,0.019,0.093,0.027,0.125c0.013,0.045,0.023,0.091,0.037,0.136   c0.006,0.021,0.012,0.044,0.019,0.065c0.005,0.019,0.012,0.035,0.017,0.051c0.005,0.015,0.008,0.028,0.013,0.042   c0.003,0.007,0.005,0.016,0.008,0.022c0.337,0.998,1.04,1.807,1.981,2.281c0.563,0.282,1.171,0.425,1.781,0.425   c0.421,0,0.844-0.067,1.253-0.203c1.008-0.332,1.826-1.039,2.304-1.988C268.768,288.214,268.849,287.142,268.523,286.145z    M266.578,288.297c-0.247,0.491-0.67,0.856-1.19,1.029c-0.522,0.173-1.079,0.131-1.571-0.115c-0.484-0.242-0.846-0.657-1.022-1.175   l-0.077-0.278c0-0.001,0-0.002,0-0.004c-0.27-1.26,0.176-3.292,0.592-4.707c1.163,0.881,2.74,2.254,3.281,3.417   c0.011,0.028,0.022,0.057,0.037,0.085c0.004,0.011,0.008,0.021,0.013,0.031c0.008,0.02,0.016,0.039,0.03,0.077   c0.007,0.021,0.015,0.041,0.024,0.07C266.867,287.248,266.825,287.806,266.578,288.297z"/><path d="M282.53,279.912c-0.467-0.176-4.453-1.624-7.04-1.049c-0.04,0.009-0.08,0.018-0.12,0.027   c-0.043,0.012-0.086,0.022-0.128,0.036c-0.035,0.01-0.069,0.02-0.104,0.03c-0.017,0.006-0.033,0.011-0.051,0.016   c-2.08,0.688-3.214,2.943-2.525,5.024c0.553,1.668,2.111,2.728,3.777,2.728c0.413,0,0.833-0.064,1.245-0.2   c0.039-0.014,0.079-0.028,0.119-0.043c0.015-0.005,0.03-0.011,0.045-0.017c0.039-0.015,0.078-0.029,0.117-0.047   c0.035-0.013,0.069-0.028,0.104-0.045c2.421-1.077,4.76-4.623,5.03-5.043c0.157-0.244,0.195-0.546,0.104-0.821   S282.803,280.013,282.53,279.912z M277.245,284.596c-0.004,0.002-0.009,0.004-0.013,0.005l-0.273,0.107   c-1.072,0.34-2.223-0.246-2.577-1.315c-0.354-1.073,0.227-2.233,1.292-2.594c0.005-0.002,0.011-0.004,0.016-0.005   c0.008-0.002,0.015-0.005,0.021-0.007c0.017-0.005,0.033-0.01,0.051-0.015c0.009-0.003,0.017-0.005,0.024-0.008   c0.004-0.001,0.007-0.002,0.011-0.003c0.001,0,0.003-0.002,0.004-0.002c0.012-0.003,0.024-0.006,0.035-0.008   c0.014-0.004,0.028-0.008,0.041-0.012c0.028-0.005,0.057-0.011,0.083-0.02c1.263-0.266,3.291,0.178,4.703,0.594   C279.778,282.492,278.416,284.058,277.245,284.596z"/><path d="M265.048,279.855c0.009,0.045,0.02,0.088,0.029,0.131c0.012,0.05,0.025,0.099,0.039,0.141   c0.014,0.048,0.028,0.095,0.045,0.149c0.554,1.669,2.11,2.729,3.779,2.729c0.412,0,0.832-0.066,1.245-0.202   c1.008-0.334,1.825-1.04,2.304-1.989c0.474-0.944,0.555-2.015,0.228-3.019c-0.002-0.006-0.004-0.011-0.005-0.017   c-0.031-0.092-0.066-0.185-0.104-0.275c-0.014-0.036-0.029-0.073-0.047-0.108c-1.077-2.421-4.623-4.76-5.044-5.03   c-0.243-0.157-0.545-0.195-0.821-0.105c-0.274,0.092-0.494,0.304-0.596,0.574C265.925,273.301,264.483,277.27,265.048,279.855z    M267.504,274.7c1.176,0.884,2.739,2.244,3.28,3.416c0.011,0.03,0.024,0.06,0.039,0.089c0.004,0.009,0.006,0.017,0.01,0.025   c0.01,0.021,0.02,0.044,0.026,0.066c0.003,0.007,0.005,0.014,0.008,0.02c0.009,0.022,0.016,0.044,0.023,0.064   c0.172,0.522,0.131,1.08-0.116,1.571s-0.67,0.857-1.192,1.029c-1.069,0.355-2.228-0.222-2.589-1.277l-0.08-0.292   c0,0,0-0.002,0-0.003C266.643,278.147,267.088,276.114,267.504,274.7z"/><path d="M286.726,271.567c-0.468-0.176-4.46-1.627-7.045-1.048c-0.037,0.007-0.072,0.016-0.106,0.024   c-0.011,0.004-0.021,0.006-0.031,0.009c-0.031,0.007-0.063,0.016-0.094,0.025c-0.056,0.016-0.11,0.032-0.165,0.05   c-0.005,0.002-0.012,0.005-0.017,0.006c-2.071,0.694-3.197,2.941-2.511,5.019c0.553,1.667,2.108,2.727,3.779,2.727   c0.414,0,0.838-0.065,1.253-0.203c0.025-0.009,0.051-0.019,0.076-0.027c0.028-0.009,0.055-0.021,0.083-0.03   c0.026-0.01,0.053-0.021,0.079-0.031c0.012-0.005,0.023-0.01,0.035-0.015c0.036-0.014,0.073-0.029,0.108-0.046   c2.419-1.082,4.753-4.621,5.024-5.042c0.157-0.243,0.196-0.545,0.104-0.82C287.209,271.887,286.997,271.669,286.726,271.567z    M281.439,276.254c-0.004,0.001-0.006,0.002-0.01,0.003l-0.276,0.108c-1.069,0.338-2.22-0.247-2.574-1.315   c-0.355-1.077,0.231-2.243,1.312-2.601c0.021-0.008,0.043-0.014,0.064-0.02c0.009-0.004,0.023-0.008,0.033-0.011   c0.015-0.004,0.029-0.008,0.045-0.012c0.013-0.003,0.021-0.006,0.035-0.01c0.031-0.005,0.062-0.012,0.091-0.021   c1.264-0.267,3.29,0.178,4.701,0.594C283.974,274.148,282.611,275.716,281.439,276.254z"/><path d="M269.274,271.636c0.01,0.045,0.021,0.087,0.034,0.131c0.009,0.028,0.017,0.056,0.024,0.084   c0.008,0.026,0.017,0.054,0.026,0.08c0.553,1.668,2.109,2.728,3.777,2.728c0.413,0,0.834-0.065,1.246-0.201   c1.008-0.334,1.826-1.039,2.304-1.988c0.477-0.95,0.556-2.028,0.223-3.037c-0.002-0.001-0.002-0.002-0.002-0.003   c-0.002-0.007-0.004-0.012-0.006-0.017l0,0l0,0c-0.007-0.023-0.016-0.047-0.024-0.07c-0.012-0.034-0.025-0.068-0.038-0.102   c-0.011-0.029-0.021-0.056-0.031-0.078v-0.001c-0.015-0.034-0.028-0.068-0.044-0.103c-1.074-2.425-4.627-4.77-5.048-5.041   c-0.244-0.156-0.545-0.195-0.821-0.104c-0.275,0.092-0.495,0.302-0.597,0.574c-0.176,0.468-1.623,4.449-1.051,7.035   C269.254,271.562,269.264,271.599,269.274,271.636z M271.702,266.354c1.181,0.891,2.757,2.262,3.288,3.438   c0.009,0.022,0.019,0.044,0.029,0.067l0.011,0.025c0.009,0.022,0.019,0.045,0.027,0.069c0.002,0.006,0.005,0.014,0.007,0.02   c0.004,0.008,0.006,0.017,0.01,0.025c0.004,0.012,0.009,0.024,0.012,0.035c0,0.001,0,0.001,0,0.001   c0.173,0.522,0.132,1.079-0.115,1.571c-0.247,0.491-0.67,0.856-1.192,1.029c-1.068,0.354-2.227-0.223-2.591-1.284l-0.078-0.284   c0-0.003-0.001-0.004-0.001-0.005C270.839,269.801,271.284,267.769,271.702,266.354z"/><path d="M290.922,263.221c-0.468-0.176-4.467-1.63-7.054-1.046c-0.039,0.009-0.075,0.017-0.103,0.024   c-0.045,0.011-0.089,0.023-0.125,0.034c-0.055,0.015-0.108,0.031-0.161,0.049c-0.006,0.002-0.011,0.003-0.017,0.006   c-2.07,0.694-3.196,2.94-2.51,5.018c0.553,1.669,2.109,2.729,3.778,2.728c0.413,0,0.833-0.064,1.246-0.201   c0.004-0.001,0.018-0.006,0.021-0.007c0.002,0,0.002-0.001,0.003-0.001c0.09-0.031,0.18-0.065,0.269-0.103   c0.025-0.01,0.05-0.021,0.075-0.032c2.427-1.069,4.775-4.63,5.047-5.051c0.157-0.243,0.196-0.545,0.104-0.821   C291.406,263.543,291.195,263.323,290.922,263.221z M285.634,267.908c-0.003,0.002-0.007,0.003-0.01,0.004l-0.274,0.107   c-1.07,0.339-2.222-0.246-2.575-1.315c-0.355-1.077,0.231-2.243,1.306-2.599c0.026-0.009,0.053-0.018,0.092-0.028   c0.022-0.006,0.043-0.012,0.068-0.018c0.005-0.002,0.024-0.007,0.03-0.008c0.028-0.005,0.058-0.012,0.084-0.02   c1.263-0.265,3.287,0.178,4.699,0.593C288.173,265.79,286.798,267.369,285.634,267.908z"/><path d="M273.467,263.286c0.004,0.013,0.008,0.024,0.01,0.037c0.008,0.026,0.014,0.052,0.021,0.076   c0.018,0.063,0.037,0.126,0.057,0.187c0.002,0.007,0.005,0.016,0.008,0.023c0.559,1.655,2.11,2.704,3.771,2.704   c0.413,0,0.832-0.064,1.246-0.201c2.077-0.687,3.21-2.934,2.528-5.017c-0.001-0.003-0.003-0.005-0.003-0.008   c-0.02-0.057-0.04-0.114-0.062-0.171c-0.013-0.033-0.024-0.063-0.035-0.091c-0.002-0.002-0.003-0.006-0.004-0.01   c-0.015-0.035-0.029-0.069-0.045-0.104c-1.074-2.423-4.626-4.767-5.047-5.038c-0.244-0.157-0.546-0.196-0.821-0.104   c-0.276,0.091-0.495,0.302-0.598,0.574c-0.175,0.469-1.63,4.473-1.045,7.058C273.454,263.229,273.461,263.259,273.467,263.286z    M275.897,258.01c1.179,0.887,2.749,2.254,3.285,3.428c0.01,0.025,0.021,0.051,0.034,0.077l0.01,0.023   c0.01,0.024,0.02,0.048,0.03,0.079c0.01,0.025,0.02,0.051,0.026,0.073c0,0.001,0,0.001,0,0.001   c0.356,1.077-0.229,2.243-1.307,2.599c-1.071,0.355-2.231-0.223-2.594-1.288l-0.075-0.278c-0.001-0.004-0.003-0.008-0.004-0.012   C275.036,261.449,275.482,259.423,275.897,258.01z"/><path d="M285.15,246.703c-0.027,0.039-0.05,0.078-0.073,0.116c-0.026,0.044-0.051,0.087-0.072,0.127   c-0.025,0.046-0.05,0.091-0.068,0.13c-0.478,0.949-0.557,2.026-0.223,3.035c0.333,1.008,1.04,1.827,1.987,2.304   c0.572,0.287,1.179,0.423,1.779,0.423c1.445,0,2.841-0.791,3.546-2.163c0.005-0.009,0.01-0.018,0.015-0.027   c0.05-0.099,0.097-0.201,0.138-0.307c0.005-0.008,0.007-0.018,0.012-0.027c0.977-2.468,0.113-6.675,0.007-7.167   c-0.062-0.284-0.247-0.524-0.507-0.655c-0.26-0.13-0.563-0.136-0.828-0.016C290.407,242.684,286.576,244.473,285.15,246.703z    M286.644,247.951c0.001-0.004,0.003-0.009,0.006-0.012c0.011-0.021,0.021-0.043,0.034-0.064c0.001-0.004,0.003-0.007,0.006-0.012   c0.005-0.008,0.01-0.017,0.015-0.026c0.007-0.012,0.015-0.024,0.021-0.036c0.004-0.008,0.014-0.023,0.019-0.031   c0.015-0.022,0.029-0.045,0.043-0.069c0.701-1.082,2.451-2.202,3.746-2.908c0.199,1.445,0.345,3.531-0.096,4.735   c-0.002,0.005-0.005,0.01-0.007,0.014l-0.114,0.264c-0.515,1.001-1.747,1.403-2.754,0.896c-0.491-0.247-0.856-0.67-1.029-1.192   C286.364,248.994,286.402,248.445,286.644,247.951z"/><path d="M277.667,254.952c0.01,0.039,0.02,0.076,0.03,0.114c0.016,0.059,0.034,0.117,0.053,0.174   c0.003,0.011,0.007,0.021,0.011,0.031c0.561,1.651,2.109,2.698,3.768,2.698c0.414,0,0.834-0.065,1.246-0.202   c2.077-0.688,3.209-2.932,2.528-5.019c-0.002-0.001-0.002-0.002-0.003-0.004c0-0.003-0.001-0.006-0.002-0.01   c-0.001,0-0.001-0.001-0.001-0.003c-0.021-0.061-0.043-0.122-0.067-0.183c-0.005-0.012-0.01-0.024-0.014-0.036   c-0.007-0.018-0.015-0.036-0.021-0.053c-0.014-0.033-0.028-0.066-0.044-0.099c-0.831-1.867-3.128-3.684-4.33-4.542l6.761-13.444   c0.237-0.473,0.048-1.051-0.426-1.289c-0.475-0.238-1.051-0.047-1.288,0.427l-7.134,14.186c-0.001,0.002-0.002,0.004-0.002,0.006   l-0.001,0.001c0,0.001-0.002,0.002-0.002,0.002c-0.014,0.03-0.027,0.061-0.04,0.092c-0.175,0.468-1.626,4.461-1.047,7.047   C277.649,254.881,277.657,254.916,277.667,254.952z M283.37,253.075c0.013,0.031,0.026,0.062,0.04,0.092   c0.005,0.012,0.01,0.024,0.015,0.036c0.009,0.02,0.017,0.038,0.023,0.057c0.003,0.007,0.005,0.014,0.008,0.021   c0.008,0.022,0.016,0.044,0.021,0.061c0,0.001,0.001,0.003,0.001,0.004c0.001,0.003,0.003,0.006,0.003,0.009   c0.351,1.075-0.235,2.236-1.31,2.591c-1.07,0.354-2.229-0.223-2.595-1.292l-0.074-0.275c-0.001-0.004-0.003-0.007-0.004-0.011   c-0.267-1.263,0.179-3.291,0.594-4.703C281.267,250.548,282.826,251.905,283.37,253.075z"/><path d="M302.776,242.012c0.237-0.474,0.048-1.051-0.426-1.289c-0.475-0.238-1.051-0.047-1.288,0.426l-6.76,13.444   c-1.406-0.452-4.235-1.213-6.228-0.766c-0.043,0.008-0.083,0.018-0.111,0.026c-0.015,0.004-0.029,0.007-0.043,0.011   c-0.083,0.021-0.165,0.045-0.244,0.072c-0.012,0.004-0.022,0.008-0.035,0.012c-0.991,0.338-1.797,1.039-2.268,1.977   c-0.479,0.949-0.558,2.026-0.224,3.034c0.552,1.667,2.107,2.727,3.78,2.726c0.416,0,0.838-0.064,1.255-0.203   c0.005-0.001,0.011-0.004,0.018-0.005c0.051-0.019,0.104-0.036,0.155-0.057c0.024-0.01,0.049-0.02,0.074-0.029   c0.008-0.004,0.015-0.007,0.022-0.01c0.032-0.014,0.065-0.027,0.099-0.043c2.422-1.074,4.764-4.624,5.035-5.046   c0.017-0.025,0.031-0.052,0.045-0.08c0.003-0.003,0.005-0.006,0.006-0.009l0.002-0.003c0.001-0.001,0.001-0.002,0.001-0.002   L302.776,242.012z M289.826,259.564c-0.002,0-0.004,0.002-0.005,0.002l-0.275,0.108c-1.07,0.339-2.222-0.247-2.575-1.315   c-0.173-0.522-0.132-1.079,0.115-1.571c0.247-0.49,0.671-0.856,1.196-1.03c0.021-0.007,0.044-0.014,0.066-0.02   c0.007-0.002,0.014-0.004,0.021-0.006c0.022-0.007,0.046-0.012,0.067-0.018c0.006-0.002,0.026-0.006,0.031-0.008   c0.028-0.005,0.055-0.012,0.082-0.02c1.262-0.266,3.287,0.178,4.7,0.593C292.367,257.445,290.991,259.028,289.826,259.564z"/><path d="M241.124,287.323c-0.005-0.002-0.009-0.003-0.014-0.005c-0.001-0.001-0.004-0.001-0.006-0.002   c-0.024-0.008-0.049-0.016-0.072-0.023c-0.033-0.01-0.067-0.02-0.101-0.029c-0.034-0.01-0.068-0.018-0.104-0.026   c-0.037-0.01-0.074-0.02-0.112-0.027c-2.586-0.58-6.58,0.871-7.048,1.048c-0.271,0.103-0.482,0.321-0.574,0.597   s-0.052,0.577,0.104,0.821c0.271,0.421,2.607,3.961,5.026,5.041c0.036,0.018,0.07,0.032,0.105,0.045   c0.047,0.021,0.092,0.038,0.128,0.052c0.043,0.017,0.087,0.032,0.131,0.047c0.008,0.003,0.015,0.005,0.023,0.008   c0.413,0.138,0.833,0.202,1.245,0.202c1.669,0,3.227-1.061,3.779-2.729c0.333-1.008,0.254-2.086-0.223-3.035   C242.937,288.36,242.12,287.654,241.124,287.323z M241.815,291.74c-0.354,1.07-1.51,1.657-2.574,1.316l-0.277-0.109   c-0.003,0-0.005-0.002-0.008-0.003c-1.173-0.539-2.537-2.105-3.423-3.282c1.413-0.416,3.44-0.86,4.703-0.594   c0.031,0.009,0.063,0.016,0.095,0.021c0.007,0.003,0.015,0.004,0.022,0.006c0.024,0.005,0.047,0.013,0.08,0.021   c0.013,0.005,0.027,0.008,0.042,0.013c0.008,0.003,0.016,0.004,0.023,0.008c0.002,0,0.006,0.001,0.009,0.002   c0.521,0.173,0.945,0.538,1.191,1.029C241.946,290.661,241.988,291.218,241.815,291.74z"/><path d="M249.5,280.604c-0.276-0.092-0.578-0.053-0.821,0.104c-0.42,0.271-3.962,2.608-5.042,5.027   c-0.018,0.037-0.034,0.076-0.048,0.114c-0.019,0.043-0.035,0.087-0.049,0.122c-0.005,0.014-0.01,0.027-0.015,0.039   c-0.013,0.037-0.026,0.073-0.037,0.106c0,0.001-0.001,0.003-0.002,0.006c-0.001,0.004-0.002,0.007-0.003,0.011   c-0.329,1.005-0.25,2.078,0.226,3.024c0.477,0.949,1.295,1.656,2.303,1.988c0.41,0.136,0.832,0.203,1.253,0.203   c0.611,0,1.219-0.143,1.782-0.425c0.943-0.475,1.646-1.286,1.983-2.289c0.002-0.005,0.004-0.01,0.005-0.015   c0.019-0.057,0.036-0.112,0.052-0.17c0.012-0.038,0.021-0.076,0.03-0.107c0.012-0.046,0.022-0.091,0.032-0.138   c0.567-2.587-0.876-6.562-1.052-7.028C249.995,280.907,249.775,280.695,249.5,280.604z M249.283,287.759l-0.076,0.281   c-0.175,0.513-0.538,0.927-1.022,1.171c-0.492,0.246-1.05,0.288-1.571,0.115s-0.944-0.538-1.191-1.029   c-0.247-0.49-0.288-1.049-0.113-1.578h0c0.003-0.011,0.007-0.021,0.011-0.033c0.004-0.013,0.009-0.025,0.016-0.042   c0.008-0.022,0.016-0.043,0.025-0.063c0.005-0.011,0.006-0.015,0.01-0.024l0.002-0.005c0.014-0.027,0.026-0.057,0.037-0.086   c0.54-1.172,2.104-2.532,3.279-3.418C249.101,284.452,249.55,286.504,249.283,287.759z"/><path d="M234.131,286.416c0.046,0.021,0.092,0.038,0.139,0.055c0.012,0.005,0.022,0.009,0.034,0.014   c0.037,0.013,0.074,0.026,0.112,0.039c0.411,0.136,0.833,0.203,1.253,0.203c0.612,0,1.219-0.143,1.782-0.426   c0.949-0.478,1.655-1.295,1.989-2.304c0.688-2.081-0.445-4.336-2.53-5.024c-0.005-0.003-0.011-0.005-0.017-0.006   c-0.048-0.016-0.097-0.03-0.146-0.044c-0.038-0.013-0.077-0.022-0.115-0.03c-0.001-0.002-0.001-0.002-0.001-0.002   c-0.038-0.01-0.077-0.019-0.115-0.026c-2.586-0.578-6.577,0.872-7.045,1.048c-0.271,0.102-0.482,0.321-0.574,0.597   s-0.052,0.577,0.104,0.821c0.271,0.42,2.612,3.969,5.035,5.046C234.071,286.391,234.103,286.405,234.131,286.416z M231.338,281.315   c1.417-0.416,3.451-0.862,4.712-0.591c0.026,0.007,0.053,0.014,0.079,0.019c0.012,0.003,0.024,0.006,0.036,0.01   c0.019,0.005,0.037,0.008,0.074,0.02c0.021,0.006,0.043,0.013,0.063,0.019c0.003,0.002,0.007,0.003,0.01,0.004   c0.002,0.001,0.005,0.001,0.009,0.003c1.072,0.359,1.654,1.522,1.298,2.598c-0.172,0.521-0.538,0.943-1.029,1.19   c-0.484,0.243-1.033,0.287-1.546,0.124l-0.274-0.108c-0.005-0.001-0.008-0.003-0.013-0.005   C233.584,284.056,232.223,282.492,231.338,281.315z"/><path d="M239.435,277.403c-0.014,0.032-0.028,0.064-0.042,0.097c-0.036,0.088-0.07,0.177-0.1,0.266   c-0.001,0.004-0.003,0.009-0.004,0.013c-0.333,1.008-0.255,2.086,0.223,3.035s1.295,1.655,2.303,1.989   c0.411,0.136,0.833,0.203,1.253,0.203c0.611,0,1.219-0.143,1.782-0.426c0.95-0.478,1.655-1.296,1.99-2.306   c0.014-0.043,0.027-0.086,0.04-0.129c0.002-0.006,0.003-0.013,0.005-0.018c0.014-0.046,0.027-0.092,0.038-0.139   c0.01-0.04,0.02-0.08,0.029-0.122c0.572-2.586-0.875-6.566-1.051-7.034c-0.102-0.272-0.321-0.482-0.597-0.574   c-0.276-0.091-0.578-0.052-0.821,0.105C244.061,272.635,240.509,274.978,239.435,277.403z M244.494,274.701   c0.41,1.405,0.859,3.455,0.594,4.709c0,0.002,0,0.002,0,0.003l-0.078,0.284c-0.176,0.512-0.538,0.925-1.021,1.168   c-0.491,0.247-1.049,0.289-1.57,0.116c-0.522-0.173-0.945-0.538-1.192-1.029c-0.246-0.49-0.288-1.045-0.119-1.562   c0.001-0.003,0.002-0.006,0.004-0.01c0-0.002,0.001-0.003,0.001-0.005c0.008-0.021,0.015-0.043,0.026-0.07   c0.009-0.024,0.018-0.047,0.028-0.071c0.003-0.008,0.007-0.016,0.01-0.024l0.005-0.013c0.013-0.025,0.024-0.052,0.034-0.079   C241.755,276.948,243.319,275.587,244.494,274.701z"/><path d="M229.942,278.073c0.003,0.001,0.006,0.003,0.009,0.004c0.042,0.019,0.083,0.034,0.125,0.05   c0.006,0.003,0.012,0.004,0.018,0.006c0.039,0.015,0.079,0.029,0.126,0.045c0.413,0.137,0.833,0.201,1.246,0.201   c1.668,0,3.226-1.059,3.778-2.728c0.688-2.078-0.441-4.328-2.51-5.018c-0.006-0.003-0.011-0.005-0.017-0.006   c-0.059-0.02-0.118-0.037-0.178-0.054c-0.023-0.008-0.047-0.014-0.071-0.02c-0.014-0.004-0.029-0.007-0.043-0.011   c-0.033-0.01-0.066-0.018-0.1-0.024c-2.586-0.582-6.582,0.871-7.05,1.048c-0.272,0.101-0.483,0.32-0.574,0.596   c-0.09,0.276-0.052,0.578,0.105,0.821c0.271,0.42,2.6,3.95,5.015,5.037C229.862,278.041,229.902,278.057,229.942,278.073z    M227.143,272.973c1.403-0.41,3.45-0.859,4.706-0.595c0.027,0.007,0.054,0.013,0.082,0.019c0.012,0.003,0.025,0.007,0.038,0.01   c0.017,0.004,0.034,0.008,0.051,0.014c0.009,0.003,0.018,0.005,0.027,0.008c0.02,0.006,0.041,0.012,0.068,0.021   c1.078,0.356,1.665,1.523,1.308,2.6c-0.354,1.07-1.509,1.657-2.57,1.317l-0.281-0.11c-0.002,0-0.004-0.001-0.006-0.001   C229.394,275.717,228.031,274.149,227.143,272.973z"/><path d="M235.242,269.051c-0.017,0.037-0.032,0.072-0.044,0.103c-0.018,0.045-0.035,0.088-0.048,0.121   c-0.004,0.013-0.009,0.024-0.014,0.037c-0.015,0.039-0.028,0.079-0.043,0.121c-0.333,1.009-0.254,2.087,0.223,3.036   c0.477,0.948,1.295,1.655,2.302,1.989c0.411,0.135,0.833,0.203,1.253,0.203c0.612,0,1.22-0.144,1.783-0.428   c0.945-0.474,1.649-1.288,1.986-2.294c0.001-0.004,0.002-0.006,0.003-0.009c0.018-0.054,0.034-0.107,0.049-0.162   c0.013-0.043,0.023-0.085,0.033-0.121c0.01-0.042,0.021-0.084,0.03-0.127c0.57-2.586-0.876-6.566-1.051-7.033   c-0.102-0.271-0.322-0.481-0.597-0.573c-0.275-0.092-0.578-0.052-0.822,0.104C239.866,264.29,236.32,266.63,235.242,269.051z    M240.3,266.354c0.416,1.415,0.861,3.446,0.593,4.709c0,0.001-0.001,0.002-0.001,0.004l-0.077,0.283   c-0.175,0.511-0.537,0.926-1.022,1.17c-0.492,0.247-1.049,0.289-1.571,0.116c-0.521-0.173-0.945-0.538-1.192-1.029   c-0.244-0.487-0.287-1.038-0.122-1.552c0.002-0.006,0.004-0.013,0.007-0.02c0.004-0.015,0.009-0.027,0.014-0.041   c0.004-0.013,0.009-0.025,0.015-0.04c0.008-0.025,0.018-0.049,0.032-0.08l0.008-0.02c0.012-0.027,0.024-0.054,0.035-0.081   C237.558,268.601,239.124,267.24,240.3,266.354z"/><path d="M225.74,269.726c0.024,0.01,0.047,0.02,0.072,0.029c0.01,0.003,0.02,0.007,0.03,0.011c0.051,0.021,0.102,0.039,0.153,0.056   c0.007,0.003,0.025,0.01,0.03,0.011c0.413,0.137,0.833,0.201,1.246,0.201c1.668,0,3.226-1.06,3.778-2.728   c0.687-2.074-0.438-4.32-2.512-5.019c-0.005-0.002-0.01-0.004-0.015-0.005c-0.062-0.021-0.125-0.041-0.189-0.058   c-0.02-0.006-0.039-0.011-0.056-0.016c-0.011-0.003-0.022-0.005-0.034-0.009c-0.035-0.01-0.072-0.019-0.109-0.025   c-2.584-0.584-6.585,0.87-7.054,1.045c-0.272,0.103-0.483,0.321-0.575,0.598c-0.09,0.274-0.052,0.576,0.105,0.821   c0.271,0.421,2.614,3.971,5.037,5.046C225.677,269.7,225.708,269.714,225.74,269.726z M222.946,264.625   c1.419-0.417,3.458-0.864,4.72-0.59c0.032,0.01,0.064,0.018,0.097,0.024c0.024,0.006,0.046,0.012,0.081,0.021   c0.027,0.007,0.054,0.016,0.077,0.023c1.077,0.356,1.663,1.522,1.307,2.599c-0.354,1.073-1.512,1.659-2.57,1.317l-0.279-0.109   c-0.004-0.001-0.009-0.004-0.014-0.005C225.191,267.366,223.83,265.802,222.946,264.625z"/><path d="M231.044,260.71c-0.015,0.031-0.028,0.062-0.041,0.094c-0.04,0.095-0.075,0.189-0.106,0.284h0l0,0   c-0.688,2.082,0.445,4.335,2.526,5.023c0.413,0.138,0.833,0.202,1.246,0.202c1.661,0,3.211-1.049,3.771-2.704   c0.003-0.008,0.006-0.017,0.008-0.023c0.019-0.056,0.036-0.113,0.052-0.172c0.011-0.036,0.021-0.073,0.03-0.11   c0.011-0.042,0.021-0.084,0.031-0.129c0.57-2.587-0.876-6.564-1.052-7.032c-0.102-0.271-0.321-0.482-0.597-0.574   c-0.276-0.091-0.578-0.053-0.821,0.104C235.669,255.945,232.119,258.287,231.044,260.71z M236.104,258.009   c0.416,1.415,0.861,3.446,0.593,4.708c0,0.002-0.001,0.004-0.001,0.005l-0.076,0.279c-0.363,1.065-1.523,1.644-2.594,1.289   c-1.077-0.356-1.663-1.521-1.31-2.59c0.009-0.028,0.018-0.054,0.032-0.092c0.008-0.021,0.017-0.043,0.026-0.066   c0.005-0.011,0.006-0.016,0.011-0.027l0.005-0.009c0.012-0.026,0.022-0.052,0.032-0.077   C233.362,260.257,234.927,258.894,236.104,258.009z"/><path d="M221.551,261.384c0.044,0.019,0.086,0.035,0.119,0.048c0.046,0.017,0.091,0.033,0.137,0.048   c0.006,0.003,0.013,0.005,0.021,0.008c0.413,0.138,0.833,0.202,1.247,0.202c1.667,0,3.225-1.06,3.777-2.729   c0.334-1.008,0.255-2.085-0.223-3.034c-0.473-0.942-1.282-1.644-2.274-1.979c-0.01-0.004-0.02-0.007-0.03-0.01   c-0.065-0.021-0.131-0.042-0.199-0.061c-0.028-0.007-0.054-0.015-0.078-0.02c-0.037-0.01-0.075-0.02-0.115-0.027   c-1.995-0.449-4.827,0.312-6.234,0.765l-6.76-13.445c-0.238-0.473-0.814-0.664-1.288-0.426c-0.474,0.238-0.664,0.814-0.427,1.288   l7.137,14.193c0.004,0.008,0.01,0.015,0.014,0.023c0.012,0.022,0.024,0.044,0.037,0.066c0.271,0.42,2.606,3.96,5.024,5.041   C221.476,261.353,221.513,261.369,221.551,261.384z M218.75,256.282c1.404-0.41,3.453-0.859,4.708-0.594   c0.024,0.007,0.049,0.012,0.074,0.017l0.033,0.009c0.022,0.004,0.043,0.01,0.064,0.017c0.009,0.002,0.018,0.005,0.027,0.008   c0.021,0.005,0.042,0.012,0.067,0.021c0.521,0.172,0.945,0.538,1.192,1.029s0.288,1.049,0.115,1.57   c-0.354,1.071-1.509,1.658-2.575,1.316l-0.275-0.108c-0.003-0.002-0.006-0.003-0.008-0.004   C220.999,259.024,219.637,257.459,218.75,256.282z"/><path d="M219.835,250.37c0.004,0.011,0.009,0.022,0.013,0.034c0.015,0.033,0.028,0.065,0.042,0.094   c0.023,0.052,0.047,0.102,0.072,0.151c0.002,0.005,0.004,0.008,0.006,0.013c0.7,1.38,2.101,2.177,3.553,2.177   c0.6,0,1.208-0.136,1.779-0.423c0.949-0.477,1.655-1.295,1.989-2.304c0.334-1.009,0.255-2.086-0.218-3.027   c-0.023-0.047-0.047-0.091-0.073-0.137c-0.023-0.044-0.048-0.087-0.075-0.132c-0.023-0.04-0.047-0.079-0.074-0.119   c-1.43-2.228-5.255-4.013-5.709-4.219c-0.264-0.121-0.568-0.114-0.828,0.016c-0.259,0.131-0.446,0.371-0.506,0.655   c-0.106,0.49-0.961,4.657-0.007,7.13C219.809,250.31,219.821,250.34,219.835,250.37z M221.466,244.791   c1.299,0.708,3.056,1.834,3.754,2.919c0.013,0.023,0.027,0.045,0.042,0.068l0,0c0.005,0.01,0.011,0.019,0.017,0.028   c0.001,0.002,0.001,0.003,0.002,0.005c0.025,0.042,0.048,0.085,0.07,0.128c0.003,0.008,0.008,0.015,0.012,0.023   c0.237,0.485,0.273,1.034,0.104,1.547c-0.173,0.523-0.539,0.946-1.029,1.192c-1.009,0.507-2.241,0.104-2.752-0.894l-0.118-0.268   c-0.001-0.003-0.003-0.008-0.005-0.012C221.117,248.318,221.26,246.249,221.466,244.791z"/><path d="M231.18,247.816c-1.199,0.856-3.487,2.667-4.324,4.528c-0.02,0.042-0.038,0.083-0.054,0.124   c-0.019,0.045-0.036,0.088-0.051,0.128c-0.018,0.048-0.035,0.096-0.052,0.146c-0.333,1.008-0.254,2.086,0.223,3.035   c0.477,0.949,1.295,1.656,2.303,1.989c0.41,0.135,0.832,0.203,1.252,0.203c0.612,0,1.22-0.144,1.783-0.426   c0.94-0.474,1.642-1.281,1.98-2.28c0.003-0.008,0.005-0.016,0.009-0.024c0.016-0.051,0.032-0.103,0.047-0.154   c0.013-0.044,0.024-0.088,0.036-0.134c0.01-0.039,0.02-0.08,0.028-0.122c0.571-2.586-0.875-6.565-1.051-7.033   c-0.012-0.031-0.025-0.061-0.04-0.09c0,0-0.001-0.002-0.002-0.004l-0.001-0.003c0,0-0.001-0.002-0.002-0.002l-7.133-14.188   c-0.238-0.473-0.814-0.664-1.288-0.426s-0.664,0.814-0.426,1.288L231.18,247.816z M232.499,254.378l-0.076,0.278   c-0.175,0.513-0.538,0.93-1.023,1.174c-0.491,0.247-1.049,0.288-1.57,0.116c-0.521-0.173-0.945-0.538-1.192-1.029   c-0.245-0.486-0.287-1.037-0.121-1.554c0.002-0.005,0.004-0.011,0.006-0.017c0.006-0.02,0.013-0.04,0.021-0.06   c0.002-0.005,0.004-0.011,0.007-0.018c0.008-0.023,0.018-0.046,0.027-0.069c0.004-0.01,0.007-0.018,0.011-0.028l0.002-0.006   c0.013-0.025,0.024-0.051,0.034-0.077c0.538-1.172,2.104-2.535,3.281-3.422C232.316,251.071,232.765,253.123,232.499,254.378z"/><path d="M256.001,274.603c-0.53,0-0.959,0.43-0.959,0.959v23.7c0,0.529,0.43,0.958,0.959,0.958s0.959-0.429,0.959-0.958v-23.7   C256.96,275.033,256.531,274.603,256.001,274.603z"/></g></svg>