<svg xmlns="http://www.w3.org/2000/svg" viewBox="0 0 20 82.5" x="0px" y="0px"><path fill="#000000" fill-rule="evenodd" d="M211,445 L211,455 L214,455 C214.51179,455 214.940979,455.386415 214.994514,455.895397 L216.979567,474.76835 L216.985048,474.869664 C217.002566,480.197056 214.818021,483 210,483 C205.201842,483 203,480.217329 203,475 L203.005495,474.895315 L205.005495,455.895315 C205.059068,455.386368 205.488241,455 206,455 L209,455 L209,445 L201,445 C200.447715,445 200,444.552285 200,444 L200,418 C200,417.447715 200.447715,417 201,417 C201.552285,417 202,417.447715 202,418 L202,443 L209,443 L209,418 C209,417.447715 209.447715,417 210,417 C210.552285,417 211,417.447715 211,418 L211,443 L218,443 L218,418 C218,417.447715 218.447715,417 219,417 C219.552285,417 220,417.447715 220,418 L220,444 C220,444.552285 219.552285,445 219,445 L211,445 Z M206.900262,457 L205.000072,475.051798 C205.011756,479.216761 206.437451,481 210,481 C213.574184,481 214.988243,479.203471 214.985159,474.926407 L213.099664,457 L206.900262,457 Z" transform="translate(-200 -417)"/></svg>