<svg xmlns="http://www.w3.org/2000/svg" xmlns:xlink="http://www.w3.org/1999/xlink" version="1.1" x="0px" y="0px" viewBox="0 0 100 125" enable-background="new 0 0 100 100" xml:space="preserve"><path d="M72.027,42.114c0.918,0.918,2.139,1.425,3.438,1.425c1.301,0,2.52-0.507,3.508-1.497l9.623-11.32  c0.85-0.85,3.549-3.899,2.547-7.487c-0.43-1.317-1.929-5.702-3.127-6.905c-1.453-1.447-5.346-2.396-6.312-2.614  c-0.651-0.23-1.409-0.351-2.196-0.351c-2.191,0-4.391,0.892-5.813,2.318l-11.463,9.755c-0.918,0.919-1.428,2.141-1.428,3.442  c0,1.299,0.508,2.521,1.428,3.44l4.012,4.012l-14.86,14.859L36.933,36.742l5.219-5.219c0.073-0.073,0.113-0.163,0.165-0.248  c0.174-0.092,0.329-0.225,0.448-0.399c0.392-0.57,0.246-1.349-0.324-1.74c-1.659-1.137-2.818-1.828-3.843-2.438  c-2.178-1.301-3.492-2.085-7.409-6.002c-4.757-4.758-7.475-10.197-7.503-10.251c-0.307-0.619-1.058-0.87-1.676-0.567  c-0.62,0.306-0.872,1.057-0.568,1.676c0.118,0.237,2.919,5.851,7.978,10.911c4.137,4.136,5.633,5.03,7.898,6.382  c0.707,0.422,1.489,0.891,2.453,1.517l-4.75,4.75c-0.019-0.004-0.038-0.007-0.057-0.011c-1.189-0.787-2.116-1.344-2.939-1.835  c-2.179-1.301-3.492-2.087-7.409-6.002c-4.755-4.756-7.474-10.196-7.503-10.249c-0.306-0.62-1.057-0.872-1.676-0.567  c-0.619,0.305-0.872,1.056-0.567,1.674c0.117,0.238,2.918,5.853,7.977,10.911c4.136,4.135,5.633,5.029,7.896,6.381  c0.707,0.423,1.49,0.893,2.456,1.521l-4.722,4.722c-1.207-0.8-2.145-1.364-2.977-1.861c-2.179-1.301-3.494-2.085-7.411-6.002  c-4.754-4.755-7.474-10.193-7.502-10.249c-0.307-0.617-1.058-0.869-1.676-0.567c-0.62,0.307-0.873,1.056-0.568,1.677  c0.117,0.236,2.919,5.851,7.977,10.907c4.136,4.138,5.633,5.03,7.897,6.382c0.992,0.593,2.115,1.265,3.71,2.358  c0.216,0.147,0.461,0.218,0.706,0.218c0.398,0,0.792-0.189,1.034-0.543c0.033-0.048,0.04-0.104,0.065-0.154  c0.127-0.06,0.25-0.131,0.355-0.236l5.077-5.077l14.451,14.45L27.799,74.775c-0.079,0.078-0.124,0.175-0.177,0.267l-2.065-2.065  c-1.38-1.383-3.965-1.219-5.526,0.34l-1.334,1.334c-1.617,1.619-1.771,4.099-0.342,5.529l6.169,6.164  c0.633,0.635,1.505,0.986,2.451,0.986c1.112,0,2.232-0.484,3.075-1.325l1.333-1.334c0.754-0.754,1.219-1.721,1.31-2.722  c0.097-1.07-0.256-2.094-0.968-2.805l-2.423-2.424c0.092-0.054,0.188-0.099,0.267-0.178L51.383,54.73l21.086,21.084l3.243,12.096  c0.115,0.431,0.453,0.767,0.886,0.883c0.107,0.027,0.215,0.043,0.322,0.043c0.329,0,0.646-0.129,0.887-0.365l9.084-9.087  c0.316-0.315,0.439-0.776,0.325-1.208c-0.116-0.431-0.454-0.769-0.886-0.885L74.243,74.05L53.152,52.961l14.861-14.86L72.027,42.114  z M30.201,81.723c-0.038,0.411-0.253,0.84-0.589,1.176l-1.332,1.336c-0.372,0.371-0.859,0.593-1.305,0.593  c-0.197,0-0.474-0.043-0.683-0.25l-6.167-6.168c-0.446-0.446-0.289-1.357,0.341-1.99l1.334-1.331  c0.369-0.371,0.857-0.593,1.304-0.593c0.197,0,0.474,0.043,0.682,0.249l6.168,6.168C30.211,81.166,30.219,81.529,30.201,81.723z   M83.587,79.146l-6.021,6.02l-2.205-8.225L83.587,79.146z M63.309,28.879c0-0.632,0.246-1.226,0.619-1.604l11.463-9.754  c1.037-1.036,2.575-1.654,4.116-1.654c0.528,0,1.015,0.078,1.409,0.225l0.166,0.048c1.708,0.378,4.438,1.236,5.162,1.959  c0.52,0.52,1.723,3.477,2.503,5.859c0.621,2.228-1.313,4.384-1.99,5.066l-9.623,11.319c-0.892,0.893-2.444,0.893-3.337,0  l-9.796-9.793C63.555,30.102,63.309,29.51,63.309,28.879z"/></svg>